<?xml version="1.0" encoding="utf-8"?>
<!-- Generator: Adobe Illustrator 22.0.0, SVG Export Plug-In . SVG Version: 6.00 Build 0)  -->
<svg version="1.1" id="layer_1" xmlns="http://www.w3.org/2000/svg" xmlns:xlink="http://www.w3.org/1999/xlink" x="0px" y="0px"
	 viewBox="0 0 200 200" style="enable-background:new 0 0 200 200;" xml:space="preserve">
<style type="text/css">
	.st0{fill:#415267;}
	.st1{fill:#9860C7;}
</style>
<path class="st0" d="M186.4,0H13.6C6.2,0,0,7.6,0,16.5v167c0,8.9,6.2,16.5,13.6,16.5h172.9c7.3,0,13.6-7.6,13.6-16.5v-167
	C200,6.9,193.8,0,186.4,0z M7.9,182.8v-76.3h93.8c2.8,0,5.6,2.7,5.6,6.9v77H13.6C10.2,189.7,7.9,186.9,7.9,182.8L7.9,182.8z
	 M192.1,182.8c0,4.1-2.3,6.9-5.6,6.9h-33.3h-0.6h-36.7v-76.3c0-8.9-6.2-16.5-13.6-16.5H7.9V16.5c0-4.1,2.3-6.9,5.6-6.9h172.9
	c2.8,0,5.6,2.7,5.6,6.9L192.1,182.8L192.1,182.8z"/>
<path class="st1" d="M171.1,31.4c-2.5-2.5-6.2-4.4-10.6-4.4h-22.4c-2.5,0-4.4,1.9-4.4,4.4s1.9,4.4,4.4,4.4h22.4l-36.7,36.7
	c-1.9,1.9-1.9,4.4,0,6.2c0.6,0.6,1.9,1.2,3.1,1.2c1.2,0,2.5-0.6,3.1-1.2l36.7-36.7v22.4c0,2.5,1.9,4.4,4.4,4.4
	c2.5,0,4.4-1.9,4.4-4.4V41.9C175.5,37.6,174.3,34.5,171.1,31.4z"/>
</svg>
