<?xml version="1.0" encoding="utf-8"?>
<!-- Generator: Adobe Illustrator 22.0.0, SVG Export Plug-In . SVG Version: 6.00 Build 0)  -->
<svg version="1.1" id="layer_1" xmlns="http://www.w3.org/2000/svg" xmlns:xlink="http://www.w3.org/1999/xlink" x="0px" y="0px"
	 viewBox="0 0 200 200" style="enable-background:new 0 0 200 200;" xml:space="preserve">
<style type="text/css">
	.st0{fill:#415267;}
</style>
<path class="st0" d="M110.5,147.8l-68.7,0.1l-13.2,38.1h29.7v12.9H0v-12.9h10.4l70.4-185h6.1l72.4,185h8.6v12.9h-52.6v-12.9h11.3
	L110.5,147.8z M51.6,123.1l48.1-0.2L77.9,69.5h-4.3L51.6,123.1z"/>
<g>
	<path class="st0" d="M195,39.3h-32.2V7c0-2.7-2.2-5-5-5c-2.7,0-5,2.2-5,5v32.2h-32.2c-2.7,0-5,2.2-5,5s2.2,5,5,5h32.2v32.2
		c0,2.7,2.2,5,5,5c2.7,0,5-2.2,5-5V49.2H195c2.7,0,5-2.2,5-5S197.8,39.3,195,39.3z"/>
</g>
</svg>
