<?xml version="1.0" encoding="utf-8"?>
<!-- Generator: Adobe Illustrator 22.0.0, SVG Export Plug-In . SVG Version: 6.00 Build 0)  -->
<svg version="1.1" id="layer_1" xmlns="http://www.w3.org/2000/svg" xmlns:xlink="http://www.w3.org/1999/xlink" x="0px" y="0px"
	 viewBox="0 0 200 200" style="enable-background:new 0 0 200 200;" xml:space="preserve">
<style type="text/css">
	.st0{fill:#415267;}
</style>
<path class="st0" d="M5.7,20C2.3,20,0,17.7,0,14.3s2.3-5.7,5.7-5.7h188.6c3.4,0,5.7,2.3,5.7,5.7s-2.3,5.7-5.7,5.7
	C194.3,20,5.7,20,5.7,20z M5.7,60C2.3,60,0,57.7,0,54.3s2.3-5.7,5.7-5.7H120c3.4,0,5.7,2.3,5.7,5.7S123.4,60,120,60H5.7z M5.7,100
	C2.3,100,0,97.7,0,94.3c0-3.4,2.3-5.7,5.7-5.7h188.6c3.4,0,5.7,2.3,5.7,5.7c0,3.4-2.3,5.7-5.7,5.7C194.3,100,5.7,100,5.7,100z
	 M5.7,145.7c-3.4,0-5.7-2.3-5.7-5.7c0-3.4,2.3-5.7,5.7-5.7H120c3.4,0,5.7,2.3,5.7,5.7c0,3.4-2.3,5.7-5.7,5.7H5.7z M5.7,191.4
	c-3.4,0-5.7-2.3-5.7-5.7c0-3.4,2.3-5.7,5.7-5.7h188.6c3.4,0,5.7,2.3,5.7,5.7c0,3.4-2.3,5.7-5.7,5.7C194.3,191.4,5.7,191.4,5.7,191.4
	z"/>
</svg>
