<?xml version="1.0" encoding="utf-8"?>
<!-- Generator: Adobe Illustrator 22.0.0, SVG Export Plug-In . SVG Version: 6.00 Build 0)  -->
<svg version="1.1" id="layer_1" xmlns="http://www.w3.org/2000/svg" xmlns:xlink="http://www.w3.org/1999/xlink" x="0px" y="0px"
	 viewBox="0 0 200 200" style="enable-background:new 0 0 200 200;" xml:space="preserve">
<style type="text/css">
	.st0{fill:#415267;}
	.st1{fill:#EF5343;}
	.st2{fill:#D84141;}
</style>
<path class="st0" d="M100,199.7H31.7c-16.7,0-30.2-12.4-30.2-27.6V27.6C1.6,12.4,15.1,0,31.7,0h136.6c16.7,0,30.2,12.4,30.2,27.6
	v64.1c0,2.5-2.2,4.5-4.9,4.5s-4.9-2-4.9-4.5V27.6c0-10.3-9.1-18.6-20.4-18.6H31.7c-11.2,0-20.4,8.3-20.4,18.6v144.5
	c0,10.3,9.1,18.6,20.4,18.6H100c2.7,0,4.9,2,4.9,4.5C104.9,197.7,102.7,199.7,100,199.7L100,199.7z"/>
<path class="st0" d="M125.6,196c0-2.2,1.5-4,3.3-4h65.3c1.8,0,3.3,1.8,3.3,4s-1.5,4-3.3,4h-65.3C127,200,125.6,198.2,125.6,196z"/>
<path class="st0" d="M125.6,168c0-2.2,1.5-4,3.3-4h65.3c1.8,0,3.3,1.8,3.3,4s-1.5,4-3.3,4h-65.3C127,172,125.6,170.2,125.6,168z"/>
<path class="st0" d="M161.6,139.9c0-2.2,1.5-4,3.3-4h29.3c1.8,0,3.3,1.8,3.3,4s-1.5,4-3.3,4h-29.3
	C163.1,143.9,161.6,142.1,161.6,139.9z"/>
<path class="st0" d="M161.6,113c0-2.2,1.5-4,3.3-4h29.3c1.8,0,3.3,1.8,3.3,4c0,2.2-1.5,4-3.3,4h-29.3
	C163.1,116.9,161.6,115.2,161.6,113z"/>
<path class="st1" d="M115.7,95.4v-2.8c0-3.4,1.3-6.7,3.7-9c5.5-5.2,8.7-12.8,8-21.2c-1.1-12.7-11.4-22.8-24.1-23.7
	c-15.2-1.1-27.9,11-27.9,26c0,7.3,3,13.9,7.9,18.7c2.5,2.4,3.9,5.7,3.9,9.1v2.8c0,4.9-2.8,9.4-7.3,11.4L62.5,115
	c-5.6,2.6-9.1,8.2-9.1,14.3v15.2h96.3v-15.2c0-6.1-3.6-11.7-9.1-14.3l-17.5-8.1C118.5,104.8,115.7,100.3,115.7,95.4L115.7,95.4z"/>
<path class="st2" d="M140.5,115l-17.5-8.1c-4.5-2.1-7.3-6.5-7.3-11.4v-2.8c0-3.4,1.3-6.7,3.7-9c5.5-5.2,8.7-12.8,8-21.2
	c-0.7-8.2-5.3-15.4-11.9-19.6c2.2,3.4,3.2,7.5,4,11.7c2.5,12.6-2.5,23.8-8,29.1c-2.4,2.3-3.7,5.6-3.7,9v2.8c0,4.9,2.8,9.4,7.3,11.4
	l17.5,8.1c5.6,2.6,9.1,8.2,9.1,14.3v7.3H53.4v7.9h96.3v-15.2C149.6,123.2,146.1,117.6,140.5,115L140.5,115z"/>
</svg>
