<?xml version="1.0" encoding="utf-8"?>
<!-- Generator: Adobe Illustrator 22.0.0, SVG Export Plug-In . SVG Version: 6.00 Build 0)  -->
<svg version="1.1" id="layer_1" xmlns="http://www.w3.org/2000/svg" xmlns:xlink="http://www.w3.org/1999/xlink" x="0px" y="0px"
	 viewBox="0 0 200 200" style="enable-background:new 0 0 200 200;" xml:space="preserve">
<style type="text/css">
	.st0{fill:#415267;}
</style>
<path class="st0" d="M112.5,100l85-85c3.4-3.4,3.4-9,0-12.5c-3.4-3.4-9-3.4-12.5,0l-85,85l-85-85c-3.4-3.4-9-3.4-12.5,0
	s-3.4,9,0,12.5l0,0l85,85l-85,85c-3.4,3.4-3.4,9,0,12.5c3.4,3.4,9,3.4,12.5,0l0,0l85-85l85,85c3.4,3.4,9,3.4,12.5,0
	c3.4-3.4,3.4-9,0-12.5L112.5,100L112.5,100z"/>
</svg>
