<?xml version="1.0" encoding="utf-8"?>
<!-- Generator: Adobe Illustrator 22.0.0, SVG Export Plug-In . SVG Version: 6.00 Build 0)  -->
<svg version="1.1" id="layer_1" xmlns="http://www.w3.org/2000/svg" xmlns:xlink="http://www.w3.org/1999/xlink" x="0px" y="0px"
	 viewBox="0 0 200 200" style="enable-background:new 0 0 200 200;" xml:space="preserve">
<style type="text/css">
	.st0{fill:#415267;}
</style>
<path class="st0" d="M1.1,36.3c0-2.2,1.8-4,3.9-4h78.6c2.2,0,3.9,1.8,3.9,4c0,2.2-1.8,4-3.9,4H5C2.9,40.3,1.1,38.5,1.1,36.3z"/>
<path class="st0" d="M1.1,4.5c0-2.2,1.8-4,3.9-4h78.6c2.2,0,3.9,1.8,3.9,4c0,2.2-1.8,4-3.9,4H5C2.9,8.4,1.1,6.6,1.1,4.5z"/>
<path class="st0" d="M1.1,100c0-2.2,1.8-4,3.9-4h78.6c2.2,0,3.9,1.8,3.9,4c0,2.2-1.8,4-3.9,4H5C2.9,104,1.1,102.2,1.1,100z"/>
<path class="st0" d="M1.1,68.2c0-2.2,1.8-4,3.9-4h78.6c2.2,0,3.9,1.8,3.9,4s-1.8,4-3.9,4H5C2.9,72.1,1.1,70.3,1.1,68.2z"/>
<path class="st0" d="M1.1,131.9c0-2.2,1.8-4,3.9-4h78.6c2.2,0,3.9,1.8,3.9,4c0,2.2-1.8,4-3.9,4H5C2.9,135.8,1.1,134.1,1.1,131.9z"/>
<path class="st0" d="M1.1,195.6c0-2.2,1.8-4,3.9-4h78.6c2.2,0,3.9,1.8,3.9,4s-1.8,4-3.9,4H5C2.9,199.5,1.1,197.8,1.1,195.6z"/>
<path class="st0" d="M1.1,163.7c0-2.2,1.8-4,3.9-4h78.6c2.2,0,3.9,1.8,3.9,4c0,2.2-1.8,4-3.9,4H5C2.9,167.7,1.1,165.9,1.1,163.7z"/>
<path class="st0" d="M112.4,36.3c0-2.2,1.8-4,3.9-4H195c2.2,0,3.9,1.8,3.9,4c0,2.2-1.8,4-3.9,4h-78.6
	C114.2,40.2,112.4,38.5,112.4,36.3z"/>
<path class="st0" d="M112.4,4.4c0-2.2,1.8-4,3.9-4H195c2.2,0,3.9,1.8,3.9,4c0,2.2-1.8,4-3.9,4h-78.6C114.2,8.4,112.4,6.6,112.4,4.4z
	"/>
<path class="st0" d="M112.4,100c0-2.2,1.8-4,3.9-4H195c2.2,0,3.9,1.8,3.9,4c0,2.2-1.8,4-3.9,4h-78.6
	C114.2,103.9,112.4,102.2,112.4,100z"/>
<path class="st0" d="M112.4,68.1c0-2.2,1.8-4,3.9-4H195c2.2,0,3.9,1.8,3.9,4s-1.8,4-3.9,4h-78.6C114.2,72.1,112.4,70.3,112.4,68.1z"
	/>
<path class="st0" d="M112.4,131.8c0-2.2,1.8-4,3.9-4H195c2.2,0,3.9,1.8,3.9,4c0,2.2-1.8,4-3.9,4h-78.6
	C114.2,135.8,112.4,134,112.4,131.8z"/>
<path class="st0" d="M112.4,195.5c0-2.2,1.8-4,3.9-4H195c2.2,0,3.9,1.8,3.9,4s-1.8,4-3.9,4h-78.6
	C114.2,199.5,112.4,197.7,112.4,195.5z"/>
<path class="st0" d="M112.4,163.7c0-2.2,1.8-4,3.9-4H195c2.2,0,3.9,1.8,3.9,4c0,2.2-1.8,4-3.9,4h-78.6
	C114.2,167.6,112.4,165.9,112.4,163.7z"/>
</svg>
