<?xml version="1.0" encoding="utf-8"?>
<!-- Generator: Adobe Illustrator 22.0.0, SVG Export Plug-In . SVG Version: 6.00 Build 0)  -->
<svg version="1.1" id="layer_1" xmlns="http://www.w3.org/2000/svg" xmlns:xlink="http://www.w3.org/1999/xlink" x="0px" y="0px"
	 viewBox="0 0 201 200" style="enable-background:new 0 0 201 200;" xml:space="preserve">
<style type="text/css">
	.st0{fill:#415267;}
	.st1{fill:#DB404B;}
</style>
<path class="st0" d="M42.2,199.9c-0.4-3.4-0.7-6.6-1.2-10.7c-6.6,0-13.5-0.1-20.4,0.1c-1.3,0-2.6,1.5-4,2.3
	c-4.1,2.5-7.9,2.1-11.1-1.3c-2.9-3.2-3.1-7.2-0.6-10.7c2.6-3.7,7-5.1,10.3-2.6c4.7,3.5,9.7,2.8,14.7,2.9c3.7,0.1,7.3,0,10.4,0
	c1.5-5.6,2.8-10.4,4.1-15.2c-3.2-1.9,18.2,0.3,16.4,0.7c0.7,1.5,1.9,2.9,2.2,4.5c0.6,3.1,0.7,6.2,1,10c7,0,13.9,0.1,20.7-0.1
	c1.3,0,2.6-1.6,4-2.3c4.1-2.2,7.9-1.8,11,1.8c2.9,3.4,2.9,7.2,0.1,10.7c-2.8,3.5-6.9,5.1-10.3,2.3c-4.1-3.4-8.5-2.9-13-2.9
	c-4.1,0-8.2,0-12.7,0c-0.1,3.7-0.4,7.2-0.6,10.7C56.4,199.9,49.4,199.9,42.2,199.9L42.2,199.9z"/>
<polygon class="st0" points="125,168.1 46,168.1 46,155.5 164.3,155.5 "/>
<path class="st0" d="M64.1,133l-23,13.3c-1.9,1.2-4.5,0.4-5.7-1.5l-0.6-1c-1.2-1.9-0.4-4.5,1.5-5.7l23-13.3c1.9-1.2,4.5-0.4,5.7,1.5
	l0.6,1C66.7,129.4,66.1,132,64.1,133z"/>
<path class="st0" d="M63.9,114.6l-23,13.3c-1.9,1.2-4.5,0.4-5.7-1.5l-0.6-1c-1.2-1.9-0.4-4.5,1.5-5.7l23-13.3
	c1.9-1.2,4.5-0.4,5.7,1.5l0.6,1C66.5,110.9,65.8,113.4,63.9,114.6z"/>
<path class="st0" d="M63.9,94.5l-23,13.3c-1.9,1.2-4.5,0.4-5.7-1.5l-0.6-1c-1.2-1.9-0.4-4.5,1.5-5.7l23-13.3
	c1.9-1.2,4.5-0.4,5.7,1.5l0.6,1C66.5,90.8,65.8,93.3,63.9,94.5z"/>
<path class="st0" d="M63.9,74.7l-23,13.3c-1.9,1.2-4.5,0.4-5.7-1.5l-0.6-1c-1.2-1.9-0.4-4.5,1.5-5.7l23.2-13.3
	c1.9-1.2,4.5-0.4,5.7,1.5l0.6,1C66.5,71.1,65.8,73.6,63.9,74.7z"/>
<path class="st0" d="M63.9,53.5l-23,13.3c-1.9,1.2-4.5,0.4-5.7-1.5l-0.6-1c-1.2-1.9-0.4-4.5,1.5-5.7l23-13.3
	c1.9-1.2,4.5-0.4,5.7,1.5l0.6,1C66.5,49.8,65.8,52.3,63.9,53.5z"/>
<path class="st0" d="M63.9,33.7L40.9,47c-1.9,1.2-4.5,0.4-5.7-1.5l-0.6-1c-1.2-1.9-0.4-4.5,1.5-5.7l23.2-13.3
	c1.9-1.2,4.5-0.4,5.7,1.5l0.6,1C66.5,29.9,65.8,32.5,63.9,33.7z"/>
<polygon class="st0" points="131,0 51.5,0 51.5,13 170.4,13 "/>
<rect x="44.6" class="st0" width="13.6" height="36"/>
<path class="st0" d="M65.1,153l-23,13.2c-1.9,1.2-4.5,0.4-5.7-1.5l-0.6-1c-1.2-1.9-0.4-4.5,1.5-5.7l23-13.3c1.9-1.2,4.5-0.4,5.7,1.5
	l0.6,1C67.7,149.3,67,151.8,65.1,153z"/>
<g>
	<path class="st1" d="M195,78h-8.2c-0.4,0-0.9-0.4-0.9-0.9V61c0-1.9-0.7-3.8-2.2-5.1l-28.4-28.4c-1.3-1.3-3.2-2.2-5.1-2.2H96.7
		c-3.1,0-5.4,2.5-5.4,5.4v46.4c0,0.4-0.4,0.9-0.9,0.9h-8.2c-1,0-1.8,0.9-1.8,1.8v45.6c0,1,0.9,1.8,1.8,1.8h9.1c0,4,1.6,7.6,4.2,10.3
		c2.6,2.6,6.3,4.2,10.3,4.2h74.7c3.1,0,5.4-2.5,5.4-5.4v-7.3c0-1,0.9-1.8,1.8-1.8h7.3c1,0,1.8-0.9,1.8-1.8V79.7
		C196.7,78.8,195.9,78,195,78z M160.3,42.8L160.3,42.8l7.9,7.9h-7.5c-0.3,0-0.4-0.1-0.4-0.4V42.8z M98.4,33.4c0-0.4,0.4-0.9,0.9-0.9
		h46.4c4,0,7.3,3.2,7.3,7.3v16.4c0,1,0.9,1.8,1.8,1.8h16.4c4,0,7.3,3.2,7.3,7.3v11.9c0,0.4-0.4,0.9-0.9,0.9H99.3
		c-0.4,0-0.9-0.4-0.9-0.9V33.4z M156.9,102.7c0,4.7-1.5,8.5-4.5,11.4c-3.1,2.9-7,4.2-11.7,4.2h-10.5V87.8h10.5
		C151.5,87.8,156.9,92.8,156.9,102.7z M123.5,97.5c0,3.1-1.2,5.7-3.5,7.5c-2.3,1.9-5.1,2.8-8.6,2.8H108v10.7h-6.4V87.8h10.5
		C119.7,87.8,123.5,91,123.5,97.5z M178.6,133.5c0,0.4-0.4,0.9-0.9,0.9h-71.9c-4,0-7.3-3.2-7.3-7.3h79.3c0.4,0,0.9,0.4,0.9,0.9
		V133.5z M169.9,93.2v7.9H180v5.3h-10.1v12h-6.6V87.8h17.4v5.4H169.9z"/>
	<path class="st1" d="M108.1,92.9v9.8h2.8c3.8,0,5.7-1.6,5.7-5c0-3.2-1.9-4.8-5.6-4.8H108.1z"/>
	<path class="st1" d="M136.7,93.2v19.9h3.5c3.1,0,5.6-0.9,7.3-2.8c1.8-1.8,2.6-4.2,2.6-7.5c0-3.1-1-5.4-2.8-7.2
		c-1.8-1.6-4.2-2.5-7.2-2.5H136.7z"/>
</g>
</svg>
