<?xml version="1.0" encoding="utf-8"?>
<!-- Generator: Adobe Illustrator 22.0.0, SVG Export Plug-In . SVG Version: 6.00 Build 0)  -->
<svg version="1.1" id="layer_1" xmlns="http://www.w3.org/2000/svg" xmlns:xlink="http://www.w3.org/1999/xlink" x="0px" y="0px"
	 viewBox="0 0 200 200" style="enable-background:new 0 0 200 200;" xml:space="preserve">
<style type="text/css">
	.st0{fill:#415267;}
	.st1{fill:#E90006;}
</style>
<path class="st0" d="M100,199.7H31.7c-16.7,0-30.2-12.4-30.2-27.6V27.6C1.6,12.4,15.1,0,31.7,0h136.6c16.7,0,30.2,12.4,30.2,27.6
	v64.1c0,2.5-2.2,4.5-4.9,4.5s-4.9-2-4.9-4.5V27.6c0-10.3-9.1-18.6-20.4-18.6H31.7c-11.2,0-20.4,8.3-20.4,18.6v144.5
	c0,10.3,9.1,18.6,20.4,18.6H100c2.7,0,4.9,2,4.9,4.5C104.9,197.7,102.7,199.7,100,199.7L100,199.7z"/>
<path class="st0" d="M125.6,196c0-2.2,1.5-4,3.3-4h65.3c1.8,0,3.3,1.8,3.3,4s-1.5,4-3.3,4h-65.3C127,200,125.6,198.2,125.6,196z"/>
<path class="st0" d="M125.6,168c0-2.2,1.5-4,3.3-4h65.3c1.8,0,3.3,1.8,3.3,4s-1.5,4-3.3,4h-65.3C127,172,125.6,170.2,125.6,168z"/>
<path class="st0" d="M161.6,139.9c0-2.2,1.5-4,3.3-4h29.3c1.8,0,3.3,1.8,3.3,4s-1.5,4-3.3,4h-29.3
	C163.1,143.9,161.6,142.1,161.6,139.9z"/>
<path class="st0" d="M161.6,113c0-2.2,1.5-4,3.3-4h29.3c1.8,0,3.3,1.8,3.3,4c0,2.2-1.5,4-3.3,4h-29.3
	C163.1,116.9,161.6,115.2,161.6,113z"/>
<path class="st1" d="M149.1,54.9h-26.6v-3.8c0-4.8-3.9-8.8-8.8-8.8H87.8c-4.8,0-8.8,3.9-8.8,8.8v3.8H51.8c-1.3,0-2.4,1.1-2.4,2.4
	s1.1,2.4,2.4,2.4h10.3v78.4c0,7.4,6,13.4,13.4,13.4h50.9c7.4,0,13.4-6,13.4-13.4V59.8h9.2c1.3,0,2.4-1.1,2.4-2.4
	S150.4,54.9,149.1,54.9z M83.9,51.1c0-2.2,1.8-3.9,3.9-3.9h25.9c2.2,0,3.9,1.8,3.9,3.9v3.8H83.9V51.1z M135,138.2
	c0,4.7-3.8,8.5-8.5,8.5H75.5c-4.7,0-8.5-3.8-8.5-8.5V60h68V138.2z"/>
<path class="st1" d="M100.4,139.5c1.3,0,2.4-1.1,2.4-2.4V70.3c0-1.3-1.1-2.4-2.4-2.4s-2.4,1.1-2.4,2.4v66.8
	C97.9,138.5,99,139.5,100.4,139.5z"/>
<path class="st1" d="M83.7,132.2c1.3,0,2.4-1.1,2.4-2.4V77.6c0-1.3-1.1-2.4-2.4-2.4c-1.3,0-2.4,1.1-2.4,2.4v52.2
	C81.3,131.1,82.4,132.2,83.7,132.2z"/>
<path class="st1" d="M117.4,132.2c1.3,0,2.4-1.1,2.4-2.4l0-52.2c0-1.3-1.1-2.4-2.4-2.4c-1.3,0-2.4,1.1-2.4,2.4v52.2
	C115,131.1,116,132.2,117.4,132.2z"/>
</svg>
