<?xml version="1.0" encoding="utf-8"?>
<!-- Generator: Adobe Illustrator 22.0.0, SVG Export Plug-In . SVG Version: 6.00 Build 0)  -->
<svg version="1.1" id="layer_1" xmlns="http://www.w3.org/2000/svg" xmlns:xlink="http://www.w3.org/1999/xlink" x="0px" y="0px"
	 viewBox="0 0 200 200" style="enable-background:new 0 0 200 200;" xml:space="preserve">
<style type="text/css">
	.st0{fill:#415267;}
	.st1{fill:#007BBF;}
</style>
<path class="st0" d="M100.4,200H32c-16.7,0-30.2-12.4-30.2-27.7V27.7C1.8,12.4,15.3,0,32,0h136.8C185.5,0,199,12.4,199,27.7v64.2
	c0,2.5-2.2,4.5-4.9,4.5s-4.9-2-4.9-4.5V27.7C189.2,17.4,180,9,168.8,9H32c-11.3,0-20.4,8.4-20.4,18.7v144.7
	c0,10.3,9.1,18.6,20.4,18.7h68.4c2.7,0,4.9,2,4.9,4.5C105.3,198,103.1,200,100.4,200L100.4,200z"/>
<path class="st0" d="M162.6,109.3c5.9-8,17.1-9.7,25-3.8c8,5.9,9.7,17.1,3.8,25l-37.7,51.2c-0.3,0.4-0.7,0.7-1.1,0.9l-23.6,12.6
	c-4.9,2.6-10.7-1.6-9.7-7.1l5-26.3c0.1-0.5,0.3-0.9,0.6-1.3L162.6,109.3z M183.8,110.7c-5.1-3.7-12.2-2.7-16,2.4c0,0,0,0,0,0
	l-37.2,50.6l-4.8,25.5c0,0,0,0.1,0,0.1c0,0,0,0,0,0c0,0,0,0.1,0.1,0.1c0,0,0.1,0,0.1,0c0,0,0,0,0,0c0,0,0,0,0.1,0l22.9-12.2
	l37.2-50.6C190,121.6,188.9,114.4,183.8,110.7L183.8,110.7z"/>
<path class="st0" d="M158.8,115.9c1.1-1.4,3.1-1.7,4.5-0.7c0,0,0,0,0,0l22.2,16.3c1.4,1.1,1.7,3.1,0.7,4.5c-1.1,1.4-3.1,1.7-4.5,0.7
	l-22.2-16.3C158.1,119.4,157.8,117.4,158.8,115.9L158.8,115.9z M126.5,159.9c1.1-1.4,3.1-1.7,4.5-0.7c0,0,0,0,0,0l22.2,16.3
	c1.4,1.1,1.7,3.1,0.7,4.5c-1.1,1.4-3.1,1.7-4.5,0.7l0,0l-22.2-16.3C125.7,163.4,125.4,161.4,126.5,159.9L126.5,159.9z"/>
<path class="st1" d="M54.3,38.9l-3.1,25.1h3.1c0-8.8,6.9-15.7,15.7-15.7h22v80c0,4.4-3.5,7.9-7.9,7.9h-7.8v3.1h50.2v-3.1h-7.8
	c-4.3,0-7.8-3.4-7.9-7.7c0-0.1,0-0.1,0-0.2V48.4h22c8.8,0,15.7,6.9,15.7,15.7h3.1l-3.1-25.1L54.3,38.9L54.3,38.9z"/>
</svg>
