<?xml version="1.0" encoding="utf-8"?>
<!-- Generator: Adobe Illustrator 22.0.0, SVG Export Plug-In . SVG Version: 6.00 Build 0)  -->
<svg version="1.1" id="layer_1" xmlns="http://www.w3.org/2000/svg" xmlns:xlink="http://www.w3.org/1999/xlink" x="0px" y="0px"
	 viewBox="0 0 200 200" style="enable-background:new 0 0 200 200;" xml:space="preserve">
<style type="text/css">
	.st0{fill:#415267;}
</style>
<g>
	<path class="st0" d="M24.5,200V0h75c15.3,0,27.5,2,36.8,6.1c9.2,4,16.5,10.3,21.7,18.7c5.2,8.4,7.8,17.2,7.8,26.4
		c0,8.6-2.3,16.6-7,24.1c-4.6,7.6-11.6,13.6-21,18.3c12.1,3.5,21.4,9.6,27.9,18.1c6.5,8.6,9.8,18.6,9.8,30.3c0,9.4-2,18.1-5.9,26.1
		c-4,8.1-8.8,14.3-14.7,18.6c-5.8,4.4-13.1,7.7-21.9,9.9c-8.8,2.2-19.5,3.3-32.3,3.3H24.5z M51,84h43.2c11.7,0,20.1-0.8,25.2-2.3
		c6.7-2,11.8-5.3,15.2-10s5.1-10.5,5.1-17.5c0-6.6-1.6-12.5-4.8-17.5c-3.2-5-7.7-8.5-13.6-10.4s-16.1-2.8-30.4-2.8H51V84z M51,176.4
		h49.8c8.5,0,14.5-0.3,18-1c6.1-1.1,11.2-2.9,15.3-5.5c4.1-2.5,7.5-6.3,10.1-11.1c2.6-4.9,4-10.5,4-16.8c0-7.5-1.9-13.9-5.7-19.4
		c-3.8-5.5-9.1-9.4-15.9-11.6c-6.8-2.2-16.5-3.3-29.3-3.3H51V176.4z"/>
</g>
</svg>
