<?xml version="1.0" encoding="utf-8"?>
<!-- Generator: Adobe Illustrator 22.0.0, SVG Export Plug-In . SVG Version: 6.00 Build 0)  -->
<svg version="1.1" id="layer_1" xmlns="http://www.w3.org/2000/svg" xmlns:xlink="http://www.w3.org/1999/xlink" x="0px" y="0px"
	 viewBox="0 0 200 200" style="enable-background:new 0 0 200 200;" xml:space="preserve">
<style type="text/css">
	.st0{fill:#415267;}
</style>
<path class="st0" d="M128.5,12.3c16.3-16.4,42.9-16.4,59.2,0c16.4,16.3,16.4,42.9,0,59.2L82.6,176.6c-0.8,0.8-1.8,1.4-2.8,1.8
	l-59,20.7c-12.4,4.3-24.2-7.5-19.9-19.9l20.7-59c0.4-1.1,1-2,1.8-2.8L128.5,12.3z M177,23c-10.4-10.4-27.4-10.4-37.8,0c0,0,0,0,0,0
	L35.3,126.8l-20.1,57.3c0,0.1,0,0.1,0,0.2c0,0,0,0.1,0,0.1c0,0.1,0.1,0.2,0.1,0.2c0.1,0.1,0.2,0.1,0.2,0.1c0,0,0,0,0.1,0
	c0,0,0.1,0,0.2,0l57.3-20.1L177,60.8C187.5,50.3,187.5,33.4,177,23L177,23z"/>
<path class="st0" d="M117.5,26.3c3-3,7.7-3,10.7,0c0,0,0,0,0,0l45.6,45.6c3,3,3,7.7,0,10.7c-3,3-7.7,3-10.7,0L117.5,37
	C114.6,34,114.6,29.2,117.5,26.3L117.5,26.3z M27.1,116.7c3-3,7.7-3,10.7,0c0,0,0,0,0,0l45.6,45.6c3,3,3,7.7,0,10.7
	c-3,3-7.7,3-10.7,0l0,0l-45.6-45.6C24.2,124.4,24.2,119.6,27.1,116.7L27.1,116.7z"/>
</svg>
