<?xml version="1.0" encoding="utf-8"?>
<!-- Generator: Adobe Illustrator 22.0.0, SVG Export Plug-In . SVG Version: 6.00 Build 0)  -->
<svg version="1.1" id="图层_1" xmlns="http://www.w3.org/2000/svg" xmlns:xlink="http://www.w3.org/1999/xlink" x="0px" y="0px"
	 viewBox="0 0 207.8 200" style="enable-background:new 0 0 207.8 200;" xml:space="preserve">
<style type="text/css">
	.st0{fill:#415267;}
</style>
<g>
	<path class="st0" d="M203.3,176.9l-29.6-75.3c-9.2-23.3-42.3-22.8-50.7,0.8l-26.7,74.8c-1.8,5.3,1,11,6.2,13
		c5.4,2.1,11.4-0.6,13.5-6l7.9-22.3H175l8.9,22.6c2.1,5.4,8.2,8,13.5,5.9C202.7,188.3,205.4,182.3,203.3,176.9z M131.3,141.1
		l11.3-31.7c2-5.4,9.6-5.6,11.7-0.2l12.5,31.9H131.3z"/>
	<path class="st0" d="M104,114c0-5.8-4.7-10.4-10.4-10.4H55.2l30.1-70.1c0.6-1.3,1.6-2.4,2.8-3.1c3.1-1.6,6.8-0.5,8.4,2.6l21.2,40
		c2.7,5.1,9,7,14.1,4.3s7-9,4.3-14.1l-21.2-40C104.3,3.2,75,4.4,66.1,25.3l-36.3,84.6c0,0,0,0.1,0,0.1l-25,58.3
		c-2.2,5.2,0.2,11.2,5.4,13.5c5.3,2.3,11.4,0,13.7-5.3l22.3-52h47.3C99.3,124.4,104,119.8,104,114z"/>
</g>
</svg>
