<?xml version="1.0" encoding="utf-8"?>
<!-- Generator: Adobe Illustrator 22.0.0, SVG Export Plug-In . SVG Version: 6.00 Build 0)  -->
<svg version="1.1" id="layer_1" xmlns="http://www.w3.org/2000/svg" xmlns:xlink="http://www.w3.org/1999/xlink" x="0px" y="0px"
	 viewBox="0 0 200 200" style="enable-background:new 0 0 200 200;" xml:space="preserve">
<style type="text/css">
	.st0{fill:#E90006;}
	.st1{fill:#415267;}
</style>
<path class="st0" d="M15.2,200c-6.7,0-12.1-5.4-12.1-12.1c0-6.7,5.4-12.1,12.1-12.1h169.7c6.7,0,12.1,5.4,12.1,12.1
	c0,6.7-5.4,12.1-12.1,12.1H15.2z"/>
<path class="st1" d="M28.5,12.1C28.5,5.4,33.9,0,40.6,0c6.7,0,12.1,5.4,12.1,12.1v72.7c0,26.8,21.7,48.5,48.5,48.5
	c26.8,0,48.5-21.7,48.5-48.5c0,0,0,0,0,0V12.1c0-6.7,5.4-12.1,12.1-12.1c6.7,0,12.1,5.4,12.1,12.1c0,0,0,0,0,0v72.7
	c0,40.2-32.6,72.7-72.7,72.7S28.5,125,28.5,84.8L28.5,12.1z"/>
</svg>
