<?xml version="1.0" encoding="utf-8"?>
<!-- Generator: Adobe Illustrator 22.0.0, SVG Export Plug-In . SVG Version: 6.00 Build 0)  -->
<svg version="1.1" id="图层_1" xmlns="http://www.w3.org/2000/svg" xmlns:xlink="http://www.w3.org/1999/xlink" x="0px" y="0px"
	 viewBox="0 0 200 200" style="enable-background:new 0 0 200 200;" xml:space="preserve">
<style type="text/css">
	.st0{fill:#46596F;}
</style>
<g>
	<path class="st0" d="M176.6,0H23.4C10.5,0,0,10.5,0,23.4v153.1C0,189.5,10.5,200,23.4,200h153.1c12.9,0,23.4-10.5,23.4-23.4V23.4
		C200,10.5,189.5,0,176.6,0z M187.5,176.6c0,2.9-1.2,5.6-3.2,7.7s-4.8,3.2-7.7,3.2H23.4c-2.9,0-5.6-1.2-7.7-3.2s-3.2-4.8-3.2-7.7
		V23.4c0-2.9,1.2-5.6,3.2-7.7s4.8-3.2,7.7-3.2h153.1c2.9,0,5.6,1.2,7.7,3.2s3.2,4.8,3.2,7.7V176.6z"/>
	<path class="st0" d="M153.7,63.7c-2.4-2.4-6.4-2.4-8.8,0l-59.4,59.4L55.1,92.7c-2.4-2.4-6.4-2.4-8.8,0l0,0c-2.4,2.4-2.4,6.4,0,8.8
		l34.8,34.8l0,0c2.4,2.4,6.4,2.4,8.8,0l0,0l63.8-63.8C156.2,70.1,156.2,66.1,153.7,63.7L153.7,63.7z"/>
</g>
</svg>
