<?xml version="1.0" encoding="utf-8"?>
<!-- Generator: Adobe Illustrator 22.0.0, SVG Export Plug-In . SVG Version: 6.00 Build 0)  -->
<svg version="1.1" id="图层_1" xmlns="http://www.w3.org/2000/svg" xmlns:xlink="http://www.w3.org/1999/xlink" x="0px" y="0px"
	 viewBox="0 0 200 200" style="enable-background:new 0 0 200 200;" xml:space="preserve">
<style type="text/css">
	.st0{fill:#3B444F;}
	.st1{fill:#4A555F;}
	.st2{fill:#F58E6F;}
</style>
<path class="st0" d="M174.3,0.2H25.6C11.5,0.2,0,11.6,0,25.7v148.7C0,188.5,11.5,200,25.6,200h148.7c14.1,0,25.6-11.5,25.6-25.6
	l0-148.7C199.8,11.6,188.4,0.2,174.3,0.2z M190.5,172.7c0,9.9-8.1,18-18,18H27.3c-9.9,0-18-8.1-18-18V27.5c0-9.9,8.1-18,18-18h145.2
	c9.9,0,18,8.1,18,18V172.7z"/>
<path class="st1" d="M163.2,96.5h-3.9v-3.9h3.9V96.5z M155.3,96.5h-3.9v-3.9h3.9V96.5z M147.4,96.5h-3.9v-3.9h3.9V96.5z M139.5,96.5
	h-3.9v-3.9h3.9V96.5z M131.7,96.5h-3.9v-3.9h3.9V96.5z M123.8,96.5h-3.9v-3.9h3.9V96.5z M115.9,96.5h-3.9v-3.9h3.9V96.5z M108,96.5
	h-3.9v-3.9h3.9V96.5z M100.1,96.5h-3.9v-3.9h3.9V96.5z M92.2,96.5h-3.9v-3.9h3.9V96.5z M84.4,96.5h-3.9v-3.9h3.9V96.5z M76.5,96.5
	h-3.9v-3.9h3.9V96.5z M68.6,96.5h-3.9v-3.9h3.9V96.5z M64.6,106.4h107.7v3.9H64.6V106.4z M52.9,114.4H33.3c-1.1,0-2-0.9-2-2l0,0
	V91.6c0-1.1,0.9-2,2-2c0,0,0,0,0,0h19.6v3.9H35.3v16.9h15.6v-5.9h3.9v7.9C54.9,113.5,54,114.4,52.9,114.4
	C52.9,114.4,52.9,114.4,52.9,114.4z M172.4,96.5h-3.9v-3.9h3.9V96.5z"/>
<path class="st1" d="M43.7,107.9c-0.6,0-1.1-0.2-1.5-0.7l-4.7-5.2l2.9-2.6l3.4,3.8l13.2-11.2l2.6,3L45,107.4
	C44.6,107.7,44.2,107.9,43.7,107.9z M123.8,145.1h-3.9v-3.9h3.9V145.1z M115.9,145.1h-3.9v-3.9h3.9V145.1z M108,145.1h-3.9v-3.9h3.9
	V145.1z M100.1,145.1h-3.9v-3.9h3.9V145.1z M92.2,145.1h-3.9v-3.9h3.9V145.1z M84.4,145.1h-3.9v-3.9h3.9V145.1z M76.5,145.1h-3.9
	v-3.9h3.9V145.1z M68.6,145.1h-3.9v-3.9h3.9V145.1z M64.6,155.1h61.6v3.9H64.6V155.1z M52.9,163H33.3c-1.1,0-2-0.9-2-2v-20.9
	c0-1.1,0.9-2,2-2h19.6v3.9H35.3v16.9h15.6v-5.9h3.9v7.9C54.9,162.2,54,163,52.9,163C52.9,163,52.9,163,52.9,163L52.9,163z"/>
<path class="st1" d="M43.7,156.5c-0.6,0-1.1-0.2-1.5-0.7l-4.7-5.2l2.9-2.6l3.4,3.8l13.2-11.2l2.6,3L45,156
	C44.6,156.3,44.2,156.5,43.7,156.5z"/>
<path class="st2" d="M31.1,34.5h141.3v36.9H31.1V34.5z"/>
</svg>
