<?xml version="1.0" encoding="utf-8"?>
<!-- Generator: Adobe Illustrator 22.0.0, SVG Export Plug-In . SVG Version: 6.00 Build 0)  -->
<svg version="1.1" id="isolation_mode" xmlns="http://www.w3.org/2000/svg" xmlns:xlink="http://www.w3.org/1999/xlink" x="0px"
	 y="0px" viewBox="0 0 200 200" style="enable-background:new 0 0 200 200;" xml:space="preserve">
<style type="text/css">
	.st0{fill:#5B975B;}
	.st1{fill:#415267;}
</style>
<path class="st0" d="M48.6,161h39c2.9,0,4.8,1.9,4.8,4.8s-1.9,4.8-4.8,4.8h-51c-2.9,0-4.8-1.9-4.8-4.8v-0.5v-48.1
	c0-2.9,1.9-4.8,4.8-4.8c2.9,0,4.8,1.9,4.8,4.8v38.1l49-46.2c1.9-1.9,4.8-1.9,6.7,0c1.9,1.9,1.9,4.8,0,6.7L48.6,161z"/>
<path class="st0" d="M156.2,39h-39c-2.9,0-4.8-1.9-4.8-4.8c0-2.9,1.9-4.8,4.8-4.8h51c2.9,0,4.8,1.9,4.8,4.8v48.6
	c0,2.9-1.9,4.8-4.8,4.8c-2.9,0-4.8-1.9-4.8-4.8V44.8l-49,46.2c-1.9,1.9-4.8,1.9-6.7,0c-1.9-1.9-1.9-4.8,0-6.7L156.2,39L156.2,39z"/>
<path class="st1" d="M200,114.3c0,2.9-1.9,4.8-4.8,4.8s-4.8-1.9-4.8-4.8V23.8c0-8.1-6.2-14.3-14.3-14.3H23.8
	c-8.1,0-14.3,6.2-14.3,14.3v152.4c0,8.1,6.2,14.3,14.3,14.3h152.4c8.1,0,14.3-6.2,14.3-14.3v-21.9c0-2.9,1.9-4.8,4.8-4.8
	s4.8,1.9,4.8,4.8v21.9c0,13.3-10.5,23.8-23.8,23.8H23.8C10.5,200,0,189.5,0,176.2V23.8C0,10.5,10.5,0,23.8,0h152.4
	C189.5,0,200,10.5,200,23.8V114.3z"/>
</svg>
