<?xml version="1.0" encoding="utf-8"?>
<!-- Generator: Adobe Illustrator 22.0.0, SVG Export Plug-In . SVG Version: 6.00 Build 0)  -->
<svg version="1.1" id="layer_1" xmlns="http://www.w3.org/2000/svg" xmlns:xlink="http://www.w3.org/1999/xlink" x="0px" y="0px"
	 viewBox="0 0 200 200" style="enable-background:new 0 0 200 200;" xml:space="preserve">
<style type="text/css">
	.st0{fill:#415267;}
</style>
<path class="st0" d="M73.4,92.9l-7.1,7l97.1,97.2c3.9,3.9,10.2,3.9,14.1,0c3.9-3.9,3.9-10.2,0.1-14.1c0,0,0,0,0,0l-83-83l83-83
	c3.9-3.9,3.9-10.1,0-14c0,0,0,0,0,0c-3.9-3.9-10.2-3.9-14.1,0L73.9,92.5L73.4,92.9L73.4,92.9z"/>
<path class="st0" d="M19.5,8.1v183.8c0,4.5,3.6,8.1,8.1,8.1s8.1-3.6,8.1-8.1V8.1c0-4.5-3.6-8.1-8.1-8.1S19.5,3.6,19.5,8.1z"/>
</svg>
