<?xml version="1.0" encoding="utf-8"?>
<!-- Generator: Adobe Illustrator 22.0.0, SVG Export Plug-In . SVG Version: 6.00 Build 0)  -->
<svg version="1.1" id="layer_1" xmlns="http://www.w3.org/2000/svg" xmlns:xlink="http://www.w3.org/1999/xlink" x="0px" y="0px"
	 viewBox="0 0 200 200" style="enable-background:new 0 0 200 200;" xml:space="preserve">
<style type="text/css">
	.st0{fill:#415267;}
	.st1{fill:#C90044;}
</style>
<path class="st0" d="M100,0C44.9,0,0,44.9,0,100c0,30.2,13.8,58.9,37.1,77.8H4.4c-2.4,0-4.4,2-4.4,4.4s2,4.4,4.4,4.4h44.4
	c2.4,0,4.4-2,4.4-4.4v-44.4c0-2.4-2-4.4-4.4-4.4s-4.4,2-4.4,4.4v34.4C22,155.1,8.9,128.4,8.9,100C8.9,49.8,49.8,8.9,100,8.9
	s91.1,40.9,91.1,91.1s-40.9,91.1-91.1,91.1c-2.4,0-4.4,2-4.4,4.4c0,2.4,2,4.4,4.4,4.4c55.1,0,100-44.9,100-100S155.1,0,100,0z"/>
<path class="st1" d="M100,50.2v53.3l26.7,18.7c2,1.3,2.4,4.2,1.1,6.2c-0.9,1.3-2.2,1.8-3.6,1.8c-0.9,0-1.8-0.2-2.4-0.9l-28.4-20
	c-1.1-0.9-1.8-2.2-1.8-3.6V50.2c0-2.4,2-4.4,4.4-4.4C98.4,45.8,100,47.8,100,50.2L100,50.2z"/>
</svg>
