<?xml version="1.0" encoding="utf-8"?>
<!-- Generator: Adobe Illustrator 22.0.0, SVG Export Plug-In . SVG Version: 6.00 Build 0)  -->
<svg version="1.1" id="layer_1" xmlns="http://www.w3.org/2000/svg" xmlns:xlink="http://www.w3.org/1999/xlink" x="0px" y="0px"
	 viewBox="0 0 200 200" style="enable-background:new 0 0 200 200;" xml:space="preserve">
<style type="text/css">
	.st0{fill:#415267;}
	.st1{fill:#789F7C;}
</style>
<path class="st0" d="M100,199.7H31.7c-16.7,0-30.2-12.4-30.2-27.6V27.6C1.6,12.4,15.1,0,31.7,0h136.6c16.7,0,30.2,12.4,30.2,27.6
	v64.1c0,2.5-2.2,4.5-4.9,4.5s-4.9-2-4.9-4.5V27.6c0-10.3-9.1-18.6-20.4-18.6H31.7c-11.2,0-20.4,8.3-20.4,18.6v144.5
	c0,10.3,9.1,18.6,20.4,18.6H100c2.7,0,4.9,2,4.9,4.5C104.9,197.7,102.7,199.7,100,199.7L100,199.7z"/>
<path class="st1" d="M137.9,93.9h-34.3V59.6c0-2.7-2.3-5-5-5c-2.7,0-5,2.3-5,5v34.3H59.3c-2.7,0-5,2.3-5,5c0,2.7,2.3,5,5,5h34.3
	v34.3c0,2.7,2.3,5,5,5c2.7,0,5-2.3,5-5v-34.3h34.3h0c2.7,0,5-2.3,5-5C142.9,96.2,140.6,93.9,137.9,93.9z"/>
<path class="st0" d="M125.6,196c0-2.2,1.5-4,3.3-4h65.3c1.8,0,3.3,1.8,3.3,4s-1.5,4-3.3,4h-65.3C127,200,125.6,198.2,125.6,196z"/>
<path class="st0" d="M125.6,168c0-2.2,1.5-4,3.3-4h65.3c1.8,0,3.3,1.8,3.3,4s-1.5,4-3.3,4h-65.3C127,172,125.6,170.2,125.6,168z"/>
<path class="st0" d="M161.6,139.9c0-2.2,1.5-4,3.3-4h29.3c1.8,0,3.3,1.8,3.3,4s-1.5,4-3.3,4h-29.3
	C163.1,143.9,161.6,142.1,161.6,139.9z"/>
<path class="st0" d="M161.6,113c0-2.2,1.5-4,3.3-4h29.3c1.8,0,3.3,1.8,3.3,4c0,2.2-1.5,4-3.3,4h-29.3
	C163.1,116.9,161.6,115.2,161.6,113z"/>
</svg>
