<?xml version="1.0" encoding="utf-8"?>
<!-- Generator: Adobe Illustrator 22.0.0, SVG Export Plug-In . SVG Version: 6.00 Build 0)  -->
<svg version="1.1" id="layer_1" xmlns="http://www.w3.org/2000/svg" xmlns:xlink="http://www.w3.org/1999/xlink" x="0px" y="0px"
	 viewBox="0 0 712.6 113.3" style="enable-background:new 0 0 712.6 113.3;" xml:space="preserve">
<style type="text/css">
	.st0{fill:#FFFFFF;}
	.st1{fill:#B8E066;}
</style>
<path class="st0" d="M64.4,102.8v-7.2c-0.9,1.9-2.2,3.6-3.8,4.7c-1.5,1.2-3.2,2.1-5.1,2.8c-1.9,0.7-3.8,1.2-5.9,1.4
	c-2,0.2-4,0.4-6,0.4c-5.2,0-9.9-0.9-14.2-2.7s-7.8-4.3-10.7-7.5c-3-3.2-5.2-7-6.7-11.4s-2.4-9.1-2.4-14.2S10.4,59.4,12,55
	c1.7-4.4,3.9-8.2,7-11.4c3.1-3.2,6.6-5.7,10.9-7.6c4.1-1.8,8.9-2.7,14.2-2.7c4.1,0,7.9,0.6,11.6,1.9s6.5,3.8,8.8,7.6v-7.1h18.7v66.9
	H64.4V102.8z M63.2,69.3c0-2.4-0.5-4.6-1.3-6.7c-0.8-2-2-3.8-3.6-5.3c-1.5-1.5-3.3-2.7-5.3-3.6c-2-0.8-4.3-1.3-6.7-1.3
	c-2.5,0-4.6,0.5-6.6,1.3c-2,0.9-3.8,2.1-5.2,3.7c-1.5,1.5-2.6,3.4-3.6,5.4c-0.8,2-1.3,4.3-1.3,6.5c0,2.4,0.5,4.6,1.3,6.7
	c0.8,2,2,3.8,3.6,5.3c1.5,1.5,3.3,2.7,5.3,3.7c2,0.9,4.3,1.3,6.6,1.3c5,0,9.1-1.7,12.2-4.9C61.7,78.3,63.2,74.2,63.2,69.3L63.2,69.3
	z M168.7,69c0,5-0.8,9.7-2.4,14.1c-1.5,4.4-3.8,8.3-6.7,11.5c-3,3.2-6.5,5.8-10.7,7.7c-4.1,1.9-8.9,2.8-14,2.8
	c-2.2,0-4.3-0.2-5.9-0.6c-1.8-0.4-3.3-0.9-4.9-1.8c-1.5-0.8-3-1.8-4.4-3c-1.4-1.2-2.8-2.5-4.3-4.1v7.2H96.6V13.7h20v27.6
	c2.6-2.7,5.4-4.7,8.8-5.8c3.2-1.2,6.7-1.8,10.5-1.8c5,0,9.5,0.9,13.6,2.8c4,1.9,7.6,4.4,10.4,7.6c2.8,3.2,5.1,7,6.6,11.2
	C167.8,59.6,168.7,64.1,168.7,69L168.7,69z M148.8,69.3c0-2.4-0.4-4.5-1.2-6.6c-0.8-2-1.9-3.9-3.4-5.4c-1.4-1.5-3.2-2.8-5.2-3.7
	c-2-0.9-4.3-1.3-6.6-1.3c-2.4,0-4.6,0.5-6.7,1.3c-2,0.9-3.8,2.1-5.3,3.7c-1.4,1.5-2.6,3.3-3.4,5.3c-0.8,2-1.2,4.3-1.2,6.7
	c0,2.4,0.4,4.6,1.2,6.7c0.8,2,1.9,3.9,3.3,5.3c1.4,1.5,3.2,2.7,5.2,3.7s4.3,1.3,6.6,1.3c2.4,0,4.6-0.5,6.7-1.3
	c2-0.9,3.8-2.1,5.3-3.7c1.4-1.5,2.6-3.3,3.4-5.3C148.3,74,148.8,71.8,148.8,69.3L148.8,69.3z M241.8,88.7c-2.1,3.3-4.9,6.3-7.9,8.6
	c-3.1,2.5-6.5,4.3-10.3,5.7c-3.8,1.3-7.8,2-12.1,2c-5,0-9.7-0.9-14-2.8c-4.4-1.9-8.2-4.4-11.4-7.6c-3.2-3.2-5.7-7-7.6-11.4
	s-2.8-9-2.8-14s0.9-9.6,2.7-14c1.8-4.3,4.3-8,7.5-11.2c3.2-3.2,6.9-5.7,11.1-7.6c4.3-1.8,8.9-2.7,13.8-2.7c4.3,0,8.4,0.7,12.2,2
	c3.9,1.3,7.3,3.2,10.5,5.7c3.2,2.5,5.8,5.3,8,8.8c2.1,3.4,3.7,7.2,4.6,11.5h-20.1c-1.3-3-3.2-5.2-5.8-6.9c-2.6-1.7-5.6-2.5-8.8-2.5
	c-2.4,0-4.6,0.5-6.5,1.4c-2,0.9-3.7,2.2-5,3.8c-1.4,1.5-2.5,3.4-3.2,5.6c-0.7,2.1-1.2,4.4-1.2,6.6c0,2.4,0.4,4.5,1.2,6.6
	c0.7,2,1.8,3.9,3.2,5.3c1.4,1.5,3.1,2.7,5,3.6c2,0.8,4.1,1.3,6.5,1.3c3.4,0,6.3-0.8,8.5-2.4c2.4-1.5,4.4-3.8,6.2-6.6h20.1
	C245.6,81.6,243.9,85.3,241.8,88.7L241.8,88.7z M306.6,102.8v-7.1c-2.7,3.3-5.8,5.8-9,7.2c-3.3,1.4-7.1,2.1-11.5,2.1
	c-5.1,0-9.7-0.9-13.8-2.8c-4.1-1.9-7.7-4.4-10.7-7.7c-3-3.2-5.2-7-6.7-11.4c-1.5-4.3-2.4-9-2.4-14c0-4.9,0.8-9.3,2.4-13.7
	c1.5-4.3,3.8-8,6.7-11.2c3-3.2,6.4-5.8,10.5-7.7c4.1-1.9,8.6-2.8,13.6-2.8c4,0,7.6,0.6,10.8,1.8c3.2,1.2,6.2,3.2,9,6V13.7h19.9v89.1
	H306.6L306.6,102.8z M306.3,69.1c0-2.4-0.5-4.6-1.3-6.7c-0.8-2-2-3.8-3.6-5.3c-1.5-1.5-3.3-2.6-5.3-3.6c-2-0.8-4.3-1.3-6.6-1.3
	c-2.4,0-4.6,0.5-6.7,1.3s-3.9,2-5.4,3.6c-1.5,1.5-2.7,3.2-3.6,5.3c-0.8,2.1-1.3,4.4-1.3,6.9c0,2.4,0.5,4.7,1.3,6.7
	c0.8,2.1,2,3.9,3.4,5.6c1.4,1.7,3.2,2.7,5.3,3.7c2,0.8,4.3,1.3,6.9,1.3c5.1,0,9.2-1.7,12.3-5C304.7,78.3,306.3,74.2,306.3,69.1
	L306.3,69.1z M567.2,98.3c0-1.2,0.5-2.3,1.5-3c1-0.8,2-1.2,3.3-1.2c1.3,0,2.5,0.3,3.3,1.2c0.8,0.8,1.3,1.8,1.3,3
	c0,1.3-0.5,2.3-1.3,3.1s-2,1.2-3.5,1.2c-1.3,0-2.3-0.3-3.3-1.2C567.6,100.6,567.2,99.4,567.2,98.3z M610.7,100.4
	c-2.8,1.3-6.4,2-10.9,2c-5.8,0-10.2-1.6-13.7-5.1c-3.5-3.5-5.1-8.1-5.1-13.7c0-6.1,1.8-10.9,5.6-14.8c3.8-3.8,8.6-5.8,14.5-5.8
	c3.8,0,6.8,0.5,9.4,1.5v7.9c-2.6-1.5-5.4-2.3-8.7-2.3c-3.8,0-6.8,1.2-8.9,3.6c-2.3,2.3-3.3,5.4-3.3,9.4c0,3.8,1,6.8,3.1,9.1
	c2.1,2.3,4.9,3.5,8.6,3.5c3.5,0,6.4-0.8,9.2-2.5v7.3H610.7z M615,83.3c0-5.9,1.8-10.9,5.3-14.5c3.5-3.8,8.1-5.6,13.8-5.6
	c5.4,0,9.9,1.8,13.2,5.4c3.3,3.6,4.9,8.2,4.9,14c0,5.9-1.6,10.7-5.1,14.5c-3.5,3.8-7.9,5.6-13.5,5.6c-5.4,0-9.9-1.8-13.3-5.4
	C616.7,93.5,615,88.9,615,83.3z M623.6,82.8c0,3.6,0.8,6.8,2.6,9.1c1.8,2.3,4.3,3.5,7.4,3.5s5.6-1.2,7.4-3.5
	c1.8-2.3,2.6-5.3,2.6-9.1c0-4-0.8-7.1-2.6-9.4c-1.6-2.3-4.1-3.5-7.3-3.5c-3.1,0-5.6,1.2-7.6,3.5C624.4,76,623.6,79,623.6,82.8
	L623.6,82.8z M693.5,101.7V78.7c0-2.1,0.2-4.8,0.3-8.1h-0.2c-0.5,2.5-0.8,4.1-1.2,4.9l-9.4,26.2h-6.4l-9.6-26
	c-0.2-0.7-0.7-2.3-1.2-5.1h-0.2c0.2,3.1,0.3,6.4,0.3,9.6v21.6h-7.3V63.7h11.9l8.2,23.1c0.7,2,1.2,3.6,1.5,5.4h0.2
	c0.5-2.1,1-4,1.6-5.4l8.2-22.9H702v38.1h-8.6V101.7z"/>
<path class="st1" d="M255.3,41.5L231.7,38l7.2-5.8l-0.1-0.1c-30.9-29.1-59.8,0.8-66,11.4c0.9-8.5,7-19.6,15.5-26.6
	c18.7-15.3,46.3-12.4,61.5,6.4c0,0.1,0.1,0.1,0.1,0.1l6.9-5.6L255.3,41.5L255.3,41.5z"/>
<path class="st0" d="M123.9,64.6c0,2.7,2.2,4.9,4.8,4.9c2.7,0,4.9-2.2,4.9-4.8c0,0,0,0,0,0c0-2.7-2.2-4.9-4.8-4.9
	C126.1,59.7,123.9,61.9,123.9,64.6C123.9,64.6,123.9,64.6,123.9,64.6z"/>
<path class="st0" d="M45.8,64.6c0,2.7,2.2,4.9,4.9,4.9c2.7,0,4.9-2.2,4.9-4.9c0-2.7-2.2-4.9-4.9-4.9C48,59.7,45.8,61.9,45.8,64.6z"
	/>
<g>
	<path class="st0" d="M408.6,43.5c0,4.3-0.8,8.6-2.4,12.8c-1.6,4.2-4,7.7-7.1,10.6c-2.4,2.3-5.1,4.1-8.1,5.1c-2.9,1.1-6,1.8-9.1,2.2
		c-3.2,0.4-6.4,0.6-9.6,0.5c-3.3,0-6.4-0.1-9.5-0.1V103h-22.1V12.7h29.5c2.3,0,4.8,0,7.2,0.1c2.5,0.1,4.9,0.4,7.3,0.8
		c2.4,0.5,4.7,1.1,7,2c2.3,0.9,4.3,2.2,6.2,3.8c3.6,3,6.3,6.6,8,10.8C407.7,34.5,408.6,38.9,408.6,43.5z M386.5,43.7
		c0-2.3-0.4-4.2-1.3-5.6c-0.9-1.4-2-2.5-3.5-3.2c-1.4-0.8-3.1-1.3-4.9-1.5c-1.9-0.2-3.7-0.3-5.6-0.3h-8.4v21.3h9.3
		c1.9,0,3.7-0.1,5.4-0.4c1.7-0.3,3.2-0.8,4.5-1.6c1.3-0.8,2.4-1.9,3.2-3.2C386.1,47.7,386.5,45.9,386.5,43.7z"/>
	<path class="st0" d="M497,57.6c0,6.5-0.9,12.5-2.8,18.1c-1.9,5.6-4.7,10.4-8.3,14.4c-3.7,4.1-8.1,7.2-13.3,9.5
		c-5.2,2.3-11.2,3.5-18,3.5H419V12.7h30.3c5.3,0,10.2,0.4,14.8,1.1c4.5,0.7,9.1,2.5,13.7,5.4c6.8,4.3,11.7,9.9,14.7,16.6
		C495.5,42.5,497,49.8,497,57.6z M474,58.2c0-3.6-0.4-6.9-1.2-10c-0.8-3.1-2.1-5.7-3.9-8c-1.8-2.3-4-4-6.8-5.3
		c-2.8-1.3-6.1-1.9-10-1.9h-10v49.7h9.9c7.7,0,13.3-2.3,16.8-6.8C472.2,71.5,474,65.5,474,58.2z"/>
	<path class="st0" d="M530.7,33v15.3H557v20.3h-26.3V103h-22.1V12.7h49.3V33H530.7z"/>
</g>
</svg>
