<?xml version="1.0" encoding="utf-8"?>
<!-- Generator: Adobe Illustrator 22.0.0, SVG Export Plug-In . SVG Version: 6.00 Build 0)  -->
<svg version="1.1" id="isolation_mode" xmlns="http://www.w3.org/2000/svg" xmlns:xlink="http://www.w3.org/1999/xlink" x="0px"
	 y="0px" viewBox="0 0 200 200" style="enable-background:new 0 0 200 200;" xml:space="preserve">
<style type="text/css">
	.st0{fill:#415267;}
</style>
<path class="st0" d="M104.8,45.9h90.4c2.4,0,4.8,3.6,4.8,7.1s-2.4,7.1-4.8,7.1h-90.4c-2.4-1.2-4.8-4.7-4.8-8.3
	C100,48.2,100.8,45.9,104.8,45.9z M104.8,89.8h90.4c2.4,0,4.8,3.6,4.8,7.1c0,3.6-2.4,7.1-4.8,7.1h-90.4c-2.4,0-4.8-3.6-4.8-7.1
	S100.8,89.8,104.8,89.8z M104.8,136.8h90.4c2.4,0,4.8,3.6,4.8,7.1c0,3.6-2.4,7.1-4.8,7.1h-90.4c-2.4,0-4.8-3.6-4.8-7.1
	C100,138,100.8,136.8,104.8,136.8z M9.6,5.5h180.8c4.8,0,9.6,3.6,9.6,7.1s-4.8,7.1-9.6,7.1H9.6C4.8,18.6,0,15,0,11.4
	S1.6,5.5,9.6,5.5z M9.6,180.3h180.8c4.8,0,9.6,3.6,9.6,7.1c0,3.6-4.8,7.1-9.6,7.1H9.6c-4.8-1.2-9.6-4.7-9.6-8.3S1.6,180.3,9.6,180.3
	z M33,61.4L1.9,92.5c-2.4,2.4-2.4,6.4,0,8.8L33,132.4c2.4,2.4,6.4,2.4,8.8,0c2.4-2.4,2.4-6.4,0-8.8l-20.5-20.5h59.6
	c3.4,0,6.2-2.8,6.2-6.2c0-3.4-2.8-6.2-6.2-6.2H21.3l20.5-20.5c1.2-1.2,1.8-2.8,1.8-4.4s-0.6-3.2-1.8-4.4C39.3,59,35.4,59,33,61.4
	L33,61.4z"/>
</svg>
