<?xml version="1.0" standalone="no"?><!DOCTYPE svg PUBLIC "-//W3C//DTD SVG 1.1//EN" "http://www.w3.org/Graphics/SVG/1.1/DTD/svg11.dtd"><svg t="1660041320133" class="icon" viewBox="0 0 1024 1024" version="1.1" xmlns="http://www.w3.org/2000/svg" p-id="3424" xmlns:xlink="http://www.w3.org/1999/xlink" width="15" height="15"><defs><style type="text/css">@font-face { font-family: feedback-iconfont;   }
</style></defs><path d="M438.272 396.8h415.744l-201.728-199.168c-17.92-17.92-17.92-43.008 0-60.928s41.472-18.432 59.392-1.024l272.896 266.752c17.92 17.92 17.92 41.472 0 59.392L711.68 729.088c-17.92 17.92-41.472 17.92-59.392 0s-17.92-40.96 0-58.88l201.728-195.584H438.272c-166.4 0-311.296 129.536-311.296 289.792v41.472c0 23.552-14.848 41.472-38.912 41.472s-38.912-17.92-38.912-41.472v-41.472c0.512-207.872 175.616-367.616 389.12-367.616z" p-id="3425" fill="#bfbfbf"></path></svg>