<?xml version="1.0" encoding="utf-8"?>
<!-- Generator: Adobe Illustrator 22.0.0, SVG Export Plug-In . SVG Version: 6.00 Build 0)  -->
<svg version="1.1" id="layer_1" xmlns="http://www.w3.org/2000/svg" xmlns:xlink="http://www.w3.org/1999/xlink" x="0px" y="0px"
	 viewBox="0 0 200 200" style="enable-background:new 0 0 200 200;" xml:space="preserve">
<style type="text/css">
	.st0{fill:#415267;}
	.st1{fill:#008694;}
</style>
<g>
	<path class="st0" d="M190.7,127.4v45.2c0,9.9-8.1,18-18,18h-45.2v9.3h47c14.1,0,25.6-11.5,25.6-25.6v-47H190.7z"/>
	<path class="st0" d="M9.3,27.3c0-9.9,8.1-18,18-18h44.7V0H25.6C11.5,0,0,11.5,0,25.6v46.5h9.3V27.3z"/>
	<path class="st0" d="M127.4,9.3h45.2c9.9,0,18,8.1,18,18v44.7h9.3V25.6C200,11.5,188.5,0,174.4,0h-47V9.3z"/>
	<path class="st0" d="M27.3,190.7c-9.9,0-18-8.1-18-18v-45.2H0v47C0,188.5,11.5,200,25.6,200h46.5v-9.3H27.3z"/>
</g>
<path class="st1" d="M51,126.5c-16.3-0.8-24.9-9.8-25.9-27.1c1.2-17.1,9.8-26.3,25.9-27.7C66.9,73.1,75.6,82.3,77,99.4
	C75.8,116.7,67.1,125.7,51,126.5z M51,116.8c9-0.4,13.8-6.2,14.4-17.4C64.7,88.4,59.9,82.6,51,82c-9,0.6-13.7,6.4-14.1,17.4
	C37.3,110.6,42,116.4,51,116.8z M83.1,99.4c1.2-17.1,9.8-26.3,25.9-27.7c10.4,0.6,15.8,3.3,16.2,8.2c-0.2,3.3-1.7,5-4.4,5
	c-1,0-2.3-0.2-3.8-0.6c-1.8-1-4.4-1.6-8-1.8c-9,0.6-13.7,6.3-14.1,17.1c0.6,10.6,5.3,16.1,14.1,16.5c2.5,0.2,5.3-0.5,8.2-2.1
	c1.6-0.8,2.8-1.2,3.8-1.2c2.7,0.2,4.4,2,5,5.3c-0.4,5.3-6.1,8.1-17.1,8.2C92.7,125.7,84.1,116.7,83.1,99.4z M135.2,120.9V78.5
	c-0.2-3.7,1.7-5.7,5.6-5.9H154c12.4,0.2,18.7,5.9,18.8,17.1c-0.4,7.9-5,12.6-13.8,14.1l12.7,13.8c1,1,1.5,2.1,1.5,3.2
	c-0.4,3.5-2.3,5.3-5.6,5.3c-2.2,0-3.6-0.5-4.4-1.5l-16.8-20.3v16.5c-0.2,3.5-2.1,5.3-5.6,5.3C137,126.2,135.2,124.5,135.2,120.9
	L135.2,120.9z M146.3,82.9v13.3h7.7c4.5,0,6.9-2.2,7.1-6.5c-0.2-4.3-2.6-6.6-7.1-6.8H146.3z"/>
</svg>
