<?xml version="1.0" encoding="utf-8"?>
<!-- Generator: Adobe Illustrator 22.0.0, SVG Export Plug-In . SVG Version: 6.00 Build 0)  -->
<svg version="1.1" id="layer_1" xmlns="http://www.w3.org/2000/svg" xmlns:xlink="http://www.w3.org/1999/xlink" x="0px" y="0px"
	 viewBox="0 0 200 200" style="enable-background:new 0 0 200 200;" xml:space="preserve">
<style type="text/css">
	.st0{fill:#415267;}
	.st1{fill:#00944B;}
</style>
<path class="st0" d="M196.9,78.9c-2-3.3-5-5.2-8.3-5.2H176V44.7c0-7.3-4.7-13.1-10.4-13.2H91.1c-0.6,0-1.1-0.3-1.5-0.8l-21.3-27
	C66.3,1.4,63.6,0,60.9,0H11.4C5.6,0,1,5.9,1,13.2v173.7c0,7.3,4.7,13.1,10.4,13.2H167c4.7,0,8.8-4,10-9.7l21.6-100
	C199.5,86.3,198.9,82.1,196.9,78.9z M11.4,10.5h49.5c0.6,0,1.1,0.3,1.5,0.8l21.3,27c1.9,2.5,4.6,3.9,7.4,3.9h74.5
	c1.2,0,2.1,1.2,2.1,2.6l0,0v28.9H34.9c-4.7,0-8.8,4-10,9.7l-15.6,72V13.2C9.3,11.7,10.2,10.5,11.4,10.5L11.4,10.5z M190.6,87.5
	l-21.6,100c-0.2,1.1-1.1,1.9-2,1.9H13.3c-1.2,0-2.1-1.2-2.1-2.6c0-0.2,0-0.5,0.1-0.7l21.6-100c0.2-1.1,1.1-1.9,2-1.9h153.7
	c1.2,0,2.1,1.2,2.1,2.6C190.7,87.1,190.7,87.3,190.6,87.5z"/>
<path class="st1" d="M70.3,132.1l26.5-26.5v47.8c0,1.2,1,2.2,2.2,2.2s2.2-1,2.2-2.2v-47.8l26.5,26.5c0.4,0.4,1,0.6,1.6,0.6
	s1.1-0.2,1.6-0.6c0.9-0.9,0.9-2.3,0-3.1l-30.3-30.3c-0.9-0.9-2.3-0.9-3.1,0L67.1,129c-0.9,0.9-0.9,2.3,0,3.1
	C68,133,69.4,133,70.3,132.1z M138.2,168H59.8c-1.2,0-2.2,1-2.2,2.2c0,1.2,1,2.2,2.2,2.2h78.4c1.2,0,2.2-1,2.2-2.2
	C140.4,169,139.4,168,138.2,168L138.2,168z"/>
</svg>
