<?xml version="1.0" standalone="no"?><!DOCTYPE svg PUBLIC "-//W3C//DTD SVG 1.1//EN" "http://www.w3.org/Graphics/SVG/1.1/DTD/svg11.dtd"><svg t="1660041758721" class="icon" viewBox="0 0 1118 1024" version="1.1" xmlns="http://www.w3.org/2000/svg" p-id="4254" xmlns:xlink="http://www.w3.org/1999/xlink" width="16.376953125" height="15"><defs><style type="text/css">@font-face { font-family: feedback-iconfont;   }
</style></defs><path d="M963.072 528.896c1.024-51.712-6.656-103.936-22.016-154.112C862.208 116.224 594.944-30.72 344.064 46.08S-46.08 394.24 32.768 652.288 378.88 1057.28 629.76 980.48c74.24-22.528 140.8-63.488 194.56-117.76 12.8-12.8 12.8-33.792 0-46.592s-33.28-13.312-46.08-0.512c-46.592 47.104-103.424 81.92-167.936 101.376-216.064 66.56-446.976-60.928-515.584-284.16S146.944 175.616 363.52 109.056s447.488 60.928 515.584 284.16c13.824 45.056 19.968 91.648 18.944 137.728l-80.896-80.896c-12.288-12.288-32.768-12.288-45.568 0.512s-12.8 32.768-0.512 45.568l126.464 126.464c1.536 3.584 3.584 6.656 6.656 9.728 12.288 12.288 32.768 12.288 45.568-0.512l138.24-138.24c12.8-12.8 12.8-32.768 0.512-45.568-12.288-12.288-32.768-12.288-45.568 0.512l-79.872 80.384z" p-id="4255"></path></svg>