<?xml version="1.0" standalone="no"?><!DOCTYPE svg PUBLIC "-//W3C//DTD SVG 1.1//EN" "http://www.w3.org/Graphics/SVG/1.1/DTD/svg11.dtd"><svg t="1660041848019" class="icon" viewBox="0 0 1024 1024" version="1.1" xmlns="http://www.w3.org/2000/svg" p-id="4554" xmlns:xlink="http://www.w3.org/1999/xlink" width="15" height="15"><defs><style type="text/css">@font-face { font-family: feedback-iconfont;   }
</style></defs><path d="M1003.008 943.616l-226.816-219.136 2.048-2.56c60.928-75.776 94.72-171.008 94.72-268.288C872.96 217.6 680.96 25.6 444.928 25.6 208.896 25.6 16.896 217.6 16.896 453.632c0 236.032 192 428.032 428.032 428.032 103.424 0 203.264-37.376 281.6-105.984l2.56-2.048 226.304 216.576h2.048v2.048c5.632 4.096 12.288 6.144 19.456 6.144 18.944 0 33.792-15.36 33.792-33.792 0.512-7.168-2.048-14.336-7.68-20.992z m-558.08-130.048c-198.656 0-359.936-161.28-359.936-359.936s161.28-359.936 359.936-359.936 359.936 161.28 359.936 359.936-161.28 359.936-359.936 359.936z" p-id="4555"></path></svg>