<?xml version="1.0" standalone="no"?><!DOCTYPE svg PUBLIC "-//W3C//DTD SVG 1.1//EN" "http://www.w3.org/Graphics/SVG/1.1/DTD/svg11.dtd"><svg t="1660041584623" class="icon" viewBox="0 0 1024 1024" version="1.1" xmlns="http://www.w3.org/2000/svg" p-id="3862" xmlns:xlink="http://www.w3.org/1999/xlink" width="15" height="15"><defs><style type="text/css">@font-face { font-family: feedback-iconfont;   }
</style></defs><path d="M607.744 1013.76c-23.04 0-44.544-12.288-56.32-32.256l-158.208-273.92-187.392 180.224c-10.24 9.728-26.624 9.728-36.352-0.512-4.608-4.608-7.168-11.264-7.168-17.92V41.472c0-7.168 3.072-13.824 8.192-18.944 6.656-6.144 18.432-10.752 31.232-3.072l111.616 64.512 604.672 349.184c12.288 7.168 16.384 23.04 9.216 35.328-3.584 5.632-8.704 10.24-15.36 11.776l-249.856 72.192 158.208 273.92c17.92 30.72 7.168 70.656-23.552 88.576L640 1005.056c-9.728 5.632-20.992 8.704-32.256 8.704zM399.36 640c1.024 0 2.56 0 3.584 0.512 7.68 1.024 14.848 5.632 18.944 12.8l174.592 302.592c3.584 6.144 11.264 8.192 17.92 4.608l156.672-90.624c6.144-3.584 8.192-11.264 4.608-17.92l-174.592-302.592c-7.168-12.288-3.072-28.16 9.216-35.328 2.048-1.024 3.584-2.048 5.632-2.56l223.232-64.512L214.016 86.016v722.432l167.424-160.768c4.608-5.12 11.264-7.68 17.92-7.68z" fill="#333333" p-id="3863"></path></svg>