<?xml version="1.0" encoding="utf-8"?>
<!-- Generator: Adobe Illustrator 22.0.0, SVG Export Plug-In . SVG Version: 6.00 Build 0)  -->
<svg version="1.1" id="layer_1" xmlns="http://www.w3.org/2000/svg" xmlns:xlink="http://www.w3.org/1999/xlink" x="0px" y="0px"
	 viewBox="0 0 200 200" style="enable-background:new 0 0 200 200;" xml:space="preserve">
<style type="text/css">
	.st0{fill:#74B3FF;}
	.st1{fill:#415267;}
</style>
<circle class="st0" cx="123" cy="122.8" r="71.7"/>
<g>
	<path class="st1" d="M18.1,125.4c-4.6,0-8.3-3.7-8.3-8.3V16.7c0-4.6,3.7-8.3,8.3-8.3h100.4c4.6,0,8.3,3.7,8.3,8.3v21.7
		c2.8,0.4,5.6,0.9,8.4,1.6V16.7c0-9.2-7.5-16.7-16.7-16.7H18.1C8.9,0,1.4,7.5,1.4,16.7v100.4c0,9.2,7.5,16.7,16.7,16.7h17.4
		c-0.5-2.7-0.9-5.5-1.1-8.4H18.1z"/>
	<path class="st1" d="M121.5,45.7c-42.5,0-77.1,34.6-77.1,77.2c0,42.6,34.6,77.2,77.1,77.2c42.5,0,77.1-34.6,77.1-77.2
		S164,45.7,121.5,45.7z M121.5,191.8c-38,0-69-31-69-69c0-38.1,30.9-69,69-69c38,0,69,31,69,69C190.4,160.9,159.5,191.8,121.5,191.8
		z"/>
</g>
</svg>
