<?xml version="1.0" encoding="utf-8"?>
<!-- Generator: Adobe Illustrator 22.0.0, SVG Export Plug-In . SVG Version: 6.00 Build 0)  -->
<svg version="1.1" id="layer_1" xmlns="http://www.w3.org/2000/svg" xmlns:xlink="http://www.w3.org/1999/xlink" x="0px" y="0px"
	 viewBox="0 0 200 200" style="enable-background:new 0 0 200 200;" xml:space="preserve">
<style type="text/css">
	.st0{fill:#415267;}
	.st1{fill:#C49F74;}
</style>
<path class="st0" d="M69.2,7.7H7.7v184.6h61.5V7.7z M76.9,7.7v184.6h115.4V7.7H76.9z M7.7,0h184.6c4.2,0,7.7,3.4,7.7,7.7v184.6
	c0,4.2-3.4,7.7-7.7,7.7H7.7c-4.2,0-7.7-3.4-7.7-7.7V7.7C0,3.4,3.4,0,7.7,0z"/>
<path class="st1" d="M23.1,30.8h30.8v7.7H23.1V30.8z M23.1,53.8h30.8v7.7H23.1V53.8z M23.1,76.9h30.8v7.7H23.1V76.9z M23.1,100h30.8
	v7.7H23.1V100z"/>
</svg>
