<?xml version="1.0" encoding="utf-8"?>
<!-- Generator: Adobe Illustrator 22.0.0, SVG Export Plug-In . SVG Version: 6.00 Build 0)  -->
<svg version="1.1" id="isolation_mode" xmlns="http://www.w3.org/2000/svg" xmlns:xlink="http://www.w3.org/1999/xlink" x="0px"
	 y="0px" viewBox="0 0 200 200" style="enable-background:new 0 0 200 200;" xml:space="preserve">
<style type="text/css">
	.st0{fill:#415267;}
	.st1{fill:#D63C3C;}
	.st2{fill:#108DDC;}
</style>
<path class="st0" d="M43.6,167.9L43.6,167.9L43.6,167.9z M43.5,167.9L43.5,167.9C43.3,167.4,43.4,167.6,43.5,167.9z M81.1,82.6
	C81.2,82.7,81.1,82.6,81.1,82.6L81.1,82.6C81.2,82.7,81.1,82.6,81.1,82.6z M82.2,187c0.1,0,0.3,0,0.3,0
	C82.4,187.1,82.3,187,82.2,187z M185,160.1H82.2v-9.6H185V160.1z M185,197.8H15.8v-9.6H185V197.8z"/>
<path class="st1" d="M100.8,125.6c0.3-0.1,0.5,0,0.7,0c0.1,0,0.5,0.1,0.6,0.1c2.6,0.6,4.5,1.6,6.8,3c3.5,2.4,6.7-4.1,3.2-6.5
	c-4.5-2.9-9.9-5.5-15-3.5c-3.7,1.5-6.3,4.7-8.8,8.1l-1.8,2.1c-0.3,0.3-0.6,0.7-0.9,1c-0.1,0.1-0.3,0.3-0.5,0.4l-0.2,0.1h-0.1
	c-0.6,0.6-1.4,1-2,1.6c-0.2,0.1-0.5,0.2-0.6,0.2c-0.5,0.2-0.9,0.3-1.5,0.4c0.8-0.2-0.5,0.1-0.7,0.1c-0.2,0-0.3-0.1-0.5-0.1h-0.2
	l-0.3-0.1l0,0c0,0,0.1,0.1,0-0.1l-0.1-0.1v-0.1c0-0.1-0.1-0.2-0.1-0.3c-0.1-0.1-0.1-0.3-0.1-0.4v-0.1c-0.2-0.4,0-1.7,0-2.1
	c0.1-0.4,0.1-0.8,0.1-1.3c0-0.2,0.1-1,0,0.1c0-0.3,0.1-0.7,0.1-1c0.3-2,0.6-4.1,1.1-6.2c0.9-4.3,2-8.5,2.7-12.9
	c0.6-3.8,1.2-8.4-0.5-11.9c-2-4.1-6.3-4.7-9.8-3.2c-4.6,2-8.5,6.3-12.2,10.2c-0.9,1-1.9,1.9-2.8,2.9c-1.1,1.1-1.9,1.9-2.7,2.6
	c-0.8,0.9-1.8,1.6-2.8,2.4c-0.5,0.3-0.9,0.6-1.3,0.9c-0.3,0.1-0.5,0.2-0.6,0.3c-0.3,0.2-0.3,0.2,0.1-0.1c-0.1,0.1-0.3,0.2-0.5,0.2
	c-0.5,0.1-0.8,0.3-1.3,0.4c-0.2,0.1-0.9,0.1,0,0c-0.2,0.1-0.5,0.1-0.6,0.1h-0.6c-0.2-0.1-0.5-0.1-0.6-0.2h-0.1v-0.1
	c-0.1-0.2-0.1-0.4-0.1-0.7l0,0v-0.2c0-0.3-0.1-0.7-0.1-1.1c0.1-0.3,0.1-0.8,0.1-1.1c0-0.2,0.1-1-0.1,0.2c0.1-0.3,0.1-0.6,0.1-0.9
	c0.3-2,0.7-4,1.2-6c2.3-9.2,5.8-18.3,6.5-27.9c0.3-3.9-0.2-8.3-2.7-11.2c-3-3.5-7.4-3.4-11.2-2.2c-5.1,1.6-9.8,5-14,9
	c-5.4,4.9-10.1,10.8-14,17.5c-7.1,12.5-11.6,27-11.9,42c-0.1,2.4,0,4.7,0,6.9c0,4.8,6.2,4.9,6.2,0c0-2.5-0.1-4.9,0-7.3l0.2-3.8
	l0.2-2c0-0.3,0.1-0.7,0.1-1c0-0.2,0.1-0.6,0.1-0.7c0.9-7.2,3-13.9,5.8-20.3c5.6-13,14.1-24.6,25.2-30.9c0.3-0.1,0.6-0.2,0.8-0.4
	c-0.6,0.3,0.3-0.1,0.3-0.1c0.5-0.2,1-0.4,1.5-0.7c0.9-0.3,1.9-0.6,2.8-0.8c0.1,0,0.7-0.1,0.9-0.1c0.3-0.1,0.6,0,0.9,0
	c0.1,0.1,0.3,0.1,0.5,0.1c0.2,0.1,0.4,0.1,0.6,0.2c0.3,0.1,0.7,0.6,0-0.1c0.3,0.2,0.5,0.4,0.7,0.6l0.2,0.2c0.1,0.1,0.1,0,0.1,0.1
	v0.1c0,0.1,0.1,0.2,0.2,0.3l0,0c0.1,0.3,0.2,0.7,0.3,1c0.1,0.3,0.1,1.6,0.1,0.3c0,0.9,0.1,1.8,0.1,2.6c-0.1,0.4-0.1,0.9-0.1,1.3
	c0,0.1,0,0.2,0,0.3v0.4c-0.2,1.1-0.3,2.2-0.6,3.4c-0.5,2.4-1,4.6-1.6,6.8c-1.2,4.6-2.6,9.1-3.8,13.8c-1.7,6.5-4.4,18.4,3.6,20.4
	c4.6,1.1,9-1.9,12.6-5c2.1-1.9,4.2-4,6.3-6.2l2.8-2.9c1.2-1.1,1.7-1.6,2.6-2.5c0.8-0.7,1.7-1.5,2.5-2c0.5-0.2,0.9-0.6,1.3-0.8
	l0.4-0.2l0.6-0.2c0.4-0.2,0.8-0.2,1.2-0.3h0.6c0.1,0,0.2,0,0.3,0l0,0l0.4,0.1l0.1,0.1v0.1c0.1,0.2,0.1,0.6,0.2,0.7v0.1
	c0,0,0,0,0,0.1c0,0.3,0.1,0.8,0.1,1.1c0,0.8-0.1,1.6-0.1,2.2l-0.1,1c-0.1,0.4-0.2,0.9-0.2,1.5c-0.2,1-0.4,2-0.6,3
	c-0.5,2.1-0.9,4.4-1.4,6.5c-0.9,4.1-1.9,8.3-2.1,12.8c-0.2,3.7,0.6,7.8,3.4,9.9c3.4,2.4,8.3,0.9,11.4-1.5c3.1-2.4,5.2-5.7,7.8-8.7
	c0.3-0.3,0.6-0.7,0.8-1c0.3-0.2,0.5-0.4,0.7-0.7c0.6-0.4,1.1-0.9,1.8-1.2c0.2-0.1,0.4-0.2,0.6-0.2c0.5-0.1,0.8-0.2,1.2-0.3
	C99.2,126,100.5,125.6,100.8,125.6L100.8,125.6z"/>
<path class="st2" d="M194,2.4c-2.1-0.3-4.3-0.2-6.3,0.2c-7.4,0.6-16.5,4.8-23.2,10.6c0.9-5.8-7-1.4-10.1,0.2
	c-9.8,5.2-18.1,12.3-24.8,20.8c-0.4-4.7-5.6-0.6-9,3.8c-6.7,8.7-11.3,18.2-13,28.8c-1.5,9.4,0.7,18,5.9,25.2
	c8-14.3,15.7-27.9,26.2-42.3c11.8-16.1,27.3-30.2,37.5-33.6c-34.4,28.6-52.4,66.2-69.7,104.3l4.2-2.7c0.7-0.5,1.3-1.1,1.7-1.9
	c2.1-3.8,3.6-7.9,6-11.5c3-4.6,3.3-4.4,6.6-5.3c6.4-1.8,12.9-3.9,18.9-6.6c12.9-5.7,23-14.5,29.3-26.9c1.6-3.1,2.6-8-3-6.4
	c1.8-1.4,3.1-2.3,4.2-3.4c9-8.1,17-16.8,20.6-28.4c1-3.1,1.6-8.8-3.7-6.4c2.3-3.6,4.8-6.7,6.5-10.2C201.4,5.8,199.7,3.2,194,2.4
	L194,2.4z"/>
</svg>
