<?xml version="1.0" encoding="utf-8"?>
<!-- Generator: Adobe Illustrator 22.0.0, SVG Export Plug-In . SVG Version: 6.00 Build 0)  -->
<svg version="1.1" id="layer_1" xmlns="http://www.w3.org/2000/svg" xmlns:xlink="http://www.w3.org/1999/xlink" x="0px" y="0px"
	 viewBox="0 0 200 200" style="enable-background:new 0 0 200 200;" xml:space="preserve">
<style type="text/css">
	.st0{fill:#415267;}
	.st1{fill:#E9000D;}
</style>
<path class="st0" d="M14.5,46.3c0.9-0.4,1.5-1.1,1.9-2.1c2.1-4.5,4.3-9,6.7-13.3c2.2-3.8,4.7-7,7.6-9.4c2.9-2.4,6.4-4.2,10.4-5.4
	c4-1.2,8.9-1.8,14.8-1.8h30.2v161.6c0,4.6-2,7.9-5.9,9.7c-3.9,1.8-10.3,3.3-19.1,4.5c-2,0.4-2.9,2-2.9,4.8c0,1.4,0.2,3.1,0.6,5.1
	c6.3-0.4,12.9-0.8,20.1-1.1c14-0.6,28-0.6,41.9,0c6.9,0.3,13.5,0.7,19.8,1.1c0.4-2,0.6-3.7,0.6-5.1c0-3.2-1.1-4.8-3.2-4.8
	c-8.8-1-15.1-2.5-18.8-4.4c-3.7-1.9-5.6-5.2-5.6-9.8V14.2H144c5.9,0,10.8,0.6,14.8,1.8c4,1.2,7.4,3,10.3,5.4
	c2.8,2.4,5.3,5.6,7.5,9.4c2.2,3.8,4.3,8.3,6.5,13.3c0.4,1,1.1,1.7,2,2.1c1,0.4,1.9,0.6,2.6,0.6c1.2,0,2.2-0.2,3.1-0.6
	c0.9-0.4,1.8-0.8,2.8-1.2c-2.2-6.9-3.7-13.1-4.6-18.8c-0.7-4.8-1.6-9.5-2.5-14.2c-0.8-3.8-1.6-6.8-2.5-8.9c-0.9-2.1-2.3-3.2-4.3-3.2
	c-1.6,0-3.6,0.1-6,0.3c-2.5,0.2-5.1,0.4-8.1,0.6l-8.8,0.6c-2.9,0.2-5.6,0.3-7.9,0.3H51c-2.5,0-5.3-0.1-8.2-0.3l-8.7-0.6
	c-2.8-0.2-5.5-0.4-8.1-0.6c-2-0.2-3.9-0.3-5.9-0.3c-2,0-3.4,1-4.3,3c-0.9,2-1.7,4.9-2.5,8.6c-0.8,3.7-1.7,8.4-2.6,14.1
	c-1,5.6-2.5,12.1-4.4,19.4c1.6,1.2,3.4,1.8,5.6,1.8C12.8,46.9,13.6,46.7,14.5,46.3z"/>
<path class="st1" d="M175.3,91.9H24.7c-3.7,0-6.6,3.6-6.6,8.1s3,8.1,6.6,8.1h150.6c3.7,0,6.6-3.6,6.6-8.1S179,91.9,175.3,91.9z"/>
</svg>
