<?xml version="1.0" encoding="utf-8"?>
<!-- Generator: Adobe Illustrator 22.0.0, SVG Export Plug-In . SVG Version: 6.00 Build 0)  -->
<svg version="1.1" id="layer_1" xmlns="http://www.w3.org/2000/svg" xmlns:xlink="http://www.w3.org/1999/xlink" x="0px" y="0px"
	 viewBox="0 0 200 200" style="enable-background:new 0 0 200 200;" xml:space="preserve">
<style type="text/css">
	.st0{fill:#415267;}
	.st1{fill:#B4F1FF;}
</style>
<path class="st0" d="M192.1,61.2c-21.5-50.9-80.1-74.7-131-53.3S-13.6,88,7.9,138.8s80.1,74.7,131,53.3c7-3,13.7-6.7,19.9-11.2
	c2-1.5,2.5-4.3,1-6.3c-1.5-2-4.3-2.5-6.3-1l0,0c-15.6,11.3-34,17.3-53.3,17.3C50,190.8,9.3,150.1,9.3,100S50,9.2,100.1,9.2
	S190.9,50,190.9,100v13.6c0,12.5-10.2,22.7-22.7,22.7c-12.5,0-22.7-10.2-22.7-22.7V59.2c0-2.5-2-4.5-4.5-4.5s-4.5,2-4.5,4.5v13.6
	c-1.3-1.7-2.7-3.3-4.2-4.9c-17.7-17.7-46.5-17.7-64.2,0s-17.7,46.5,0,64.2s46.5,17.7,64.2,0c0,0,0,0,0,0c2.3-2.3,4.4-4.8,6.1-7.6
	c6,16.5,24.3,25,40.8,19c12.5-4.6,20.9-16.5,20.9-29.9V100C200,86.7,197.4,73.5,192.1,61.2z M100.1,136.4c-20,0-36.3-16.3-36.3-36.3
	s16.3-36.3,36.3-36.3S136.4,80,136.4,100S120.1,136.4,100.1,136.4z"/>
<circle class="st1" cx="101" cy="101" r="38.7"/>
</svg>
