<?xml version="1.0" encoding="utf-8"?>
<!-- Generator: Adobe Illustrator 22.0.0, SVG Export Plug-In . SVG Version: 6.00 Build 0)  -->
<svg version="1.1" id="" xmlns="http://www.w3.org/2000/svg" xmlns:xlink="http://www.w3.org/1999/xlink" x="0px" y="0px"
	 viewBox="0 0 200 200" style="enable-background:new 0 0 200 200;" xml:space="preserve">
<style type="text/css">
	.st0{fill:none;stroke:#4E4A6B;stroke-width:7;stroke-miterlimit:10;}
	.st1{font-family:'Arial-BoldMT';}
	.st2{font-size:164.4227px;}
	.st3{fill:#4E4A6B;}
</style>
<text transform="matrix(1 0 0 1 9.9077 121.1006)" class="st0 st1 st2">Ta</text>
<path class="st3" d="M174.5,196.6c0,1.6-1.4,3.1-3.5,3.6c-2.5,0.6-5.2-0.6-5.9-2.6c-8.3-22.7-35.4-38.6-65.8-38.6
	s-57.5,15.9-65.8,38.6c-0.7,2-3.4,3.1-5.9,2.5l0,0c-2.5-0.6-4-2.6-3.3-4.6l0,0c9.5-25.9,40.3-43.9,75-43.9s65.5,18.1,75,44
	C174.4,195.9,174.5,196.3,174.5,196.6L174.5,196.6z"/>
</svg>
