<?xml version="1.0" encoding="utf-8"?>
<!-- Generator: Adobe Illustrator 22.0.0, SVG Export Plug-In . SVG Version: 6.00 Build 0)  -->
<svg version="1.1" id="isolation_mode" xmlns="http://www.w3.org/2000/svg" xmlns:xlink="http://www.w3.org/1999/xlink" x="0px"
	 y="0px" viewBox="0 0 200 200" style="enable-background:new 0 0 200 200;" xml:space="preserve">
<style type="text/css">
	.st0{fill:#415267;}
	.st1{fill:#B868C9;}
</style>
<path class="st0" d="M189,63.3h-66V36.2L87.3,0H10.9C4.9,0,0,5,0,11v102.7c0,6,4.9,11,10.9,11h54.4v64c0,6.1,4.9,11.2,11,11.2H189
	c6.1,0,11-5,11-11.2V74.5C200,68.3,195.1,63.3,189,63.3z M84.8,6.4l32,32.4v0.2H92.6c-4.3,0-7.8-3.6-7.8-7.9V6.4z M6.2,113.8V11
	c0-2.5,2.2-4.8,4.7-4.8h67.7v25c0,7.7,6.2,14.1,13.9,14.1h24.4v68.4c0,2.7-2.2,4.8-4.7,4.8H10.9C8.2,118.6,6.2,116.3,6.2,113.8z
	 M194.7,183.9c0,5.6-4.5,10.2-10.1,10.2H81.4c-5.5,0-10.1-4.6-10.1-10.2v-59.1h40.8c6,0,10.9-5,10.9-11V69.1h61.5
	c5.5,0,10.1,4.6,10.1,10.2V183.9z"/>
<path class="st1" d="M33,50.6h35.6c1.4,0,2.6-1.2,2.6-2.7c0-1.4-1.2-2.7-2.6-2.7H33c-1.4,0-2.6,1.2-2.6,2.7
	C30.4,49.4,31.6,50.6,33,50.6z"/>
<path class="st1" d="M33,69.8h59.8c1.4,0,2.6-1.1,2.5-2.7c0-1.4-1.2-2.7-2.6-2.7H33c-1.4,0-2.6,1.2-2.6,2.7
	C30.4,68.5,31.6,69.8,33,69.8z"/>
<path class="st1" d="M92.8,89.1c1.4,0,2.6-1.2,2.5-2.7c0-1.4-1.2-2.7-2.6-2.7H33c-1.4,0-2.6,1.2-2.6,2.7s1.2,2.7,2.6,2.7H92.8z"/>
<path class="st0" d="M137.4,6.1h11.3c4,0,7.3,1.6,10.1,4.6c2.8,2.9,3.8,6.9,3.8,11v23.7l-7.7-7.9c-0.8-0.8-1.9-1-2.9-0.6
	c-1.4,0.6-2.1,2.3-1.5,3.7c0.1,0.3,0.3,0.6,0.6,0.9l12.2,12.5c1,1.1,2.8,1.1,3.8,0l0,0l12.6-12.9c1.1-1.1,1-2.9,0-4
	c-0.3-0.3-0.7-0.6-1.2-0.7c-0.9-0.3-1.9,0-2.6,0.7l-7.8,7.9V21.8c0-5.6-1.5-10.9-5.4-14.9c-3.8-4-8.5-6.2-14-6.2l0,0h-11.3
	c-1,0-1.9,0.5-2.3,1.4c-0.5,0.8-0.5,1.9,0,2.8C135.5,5.6,136.4,6.1,137.4,6.1z"/>
<g>
	<path class="st1" d="M86,166.9l4.4-0.6c0.1,2.9,0.6,4.8,1.6,5.8c0.9,1,2.2,1.5,3.9,1.5c1.2,0,2.3-0.3,3.1-0.8
		c0.9-0.6,1.5-1.3,1.8-2.4c0.3-1,0.5-2.6,0.5-4.7v-25.7h4.8v25.5c0,3.2-0.4,5.5-1.1,7.3s-1.9,3.1-3.5,3.9c-1.6,0.9-3.5,1.3-5.6,1.3
		c-3.2,0-5.7-0.9-7.5-2.9C86.8,173.5,86,170.7,86,166.9z"/>
	<path class="st1" d="M114.3,177.6v-37.3h13.9c2.4,0,4.3,0.1,5.5,0.3c1.8,0.3,3.3,0.9,4.5,1.7s2.2,2,2.9,3.6
		c0.7,1.5,1.1,3.3,1.1,5.1c0,3.2-1,5.8-3,8.1c-2,2.1-5.5,3.3-10.8,3.3H119v15.2H114.3z M119.1,158h9.5c3.1,0,5.3-0.6,6.7-1.7
		c1.3-1.1,2-2.9,2-5c0-1.5-0.4-2.9-1.2-4c-0.8-1.1-1.8-1.8-3-2.3c-0.8-0.2-2.3-0.3-4.5-0.3h-9.4C119.1,144.7,119.1,158,119.1,158z"
		/>
	<path class="st1" d="M165.7,162.9v-4.4h15.6v13.8c-2.4,1.9-4.8,3.4-7.4,4.4c-2.5,1-5.1,1.4-7.9,1.4c-3.6,0-6.9-0.8-9.9-2.4
		c-2.9-1.5-5.1-3.9-6.7-6.9s-2.2-6.2-2.2-9.9s0.7-7.1,2.2-10.1c1.5-3.2,3.6-5.5,6.5-7.1c2.8-1.5,6.1-2.3,9.7-2.3
		c2.6,0,5,0.4,7.3,1.3c2.1,0.9,3.8,2,5,3.7c1.2,1.5,2.1,3.6,2.8,6.1l-4.4,1.2c-0.5-1.9-1.2-3.4-2-4.5s-2-1.9-3.5-2.7s-3.2-1-5-1
		c-2.2,0-4.1,0.3-5.7,1s-2.9,1.6-3.9,2.8c-1,1.1-1.8,2.4-2.3,3.7c-0.9,2.4-1.4,4.8-1.4,7.5c0,3.4,0.6,6.1,1.7,8.4
		c1.1,2.3,2.8,3.9,4.9,5c2.1,1.1,4.4,1.6,6.9,1.6c2.1,0,4.1-0.4,6.2-1.2c2-0.8,3.5-1.7,4.5-2.7v-7L165.7,162.9L165.7,162.9z"/>
</g>
</svg>
