<?xml version="1.0" encoding="utf-8"?>
<!-- Generator: Adobe Illustrator 22.0.0, SVG Export Plug-In . SVG Version: 6.00 Build 0)  -->
<svg version="1.1" id="layer_1" xmlns="http://www.w3.org/2000/svg" xmlns:xlink="http://www.w3.org/1999/xlink" x="0px" y="0px"
	 viewBox="0 0 200 200" style="enable-background:new 0 0 200 200;" xml:space="preserve">
<style type="text/css">
	.st0{fill:#415267;}
	.st1{fill:#E95C00;}
</style>
<path class="st0" d="M100.2,1.2c-9,0-71.9,76.4-71.9,125.8c0,39.5,32.3,71.9,71.9,71.9s71.9-32.3,71.9-71.9
	C172.1,77.5,109.2,1.2,100.2,1.2z M100.2,189.8c-34.6,0-62.9-29.2-62.9-65.1C37.3,82,95.7,12,100.2,12c4.5,0,62.9,70.1,62.9,112.7
	C163.1,160.6,134.8,189.8,100.2,189.8z"/>
<path class="st1" d="M14.7,79.2c0-2.2,3.5-4,7.8-4h155.3c4.3,0,7.8,1.8,7.8,4s-3.5,4-7.8,4H22.5C18.2,83.2,14.7,81.4,14.7,79.2z"/>
<path class="st1" d="M14,115.5c0-2.2,3.5-4,7.8-4h155.3c4.3,0,7.8,1.8,7.8,4c0,2.2-3.5,4-7.8,4H21.8C17.5,119.4,14,117.7,14,115.5z"
	/>
<path class="st1" d="M15.1,153.7c0-2.2,3.5-4,7.8-4h155.3c4.3,0,7.8,1.8,7.8,4c0,2.2-3.5,4-7.8,4H22.9
	C18.6,157.6,15.1,155.9,15.1,153.7z"/>
</svg>
