<?xml version="1.0" encoding="utf-8"?>
<!-- Generator: Adobe Illustrator 22.0.0, SVG Export Plug-In . SVG Version: 6.00 Build 0)  -->
<svg version="1.1" id="layer_1" xmlns="http://www.w3.org/2000/svg" xmlns:xlink="http://www.w3.org/1999/xlink" x="0px" y="0px"
	 viewBox="0 0 200 200" style="enable-background:new 0 0 200 200;" xml:space="preserve">
<style type="text/css">
	.st0{fill:#415267;}
</style>
<g>
	<path class="st0" d="M137.5,95H105V62.5c0-2.8-2.3-5-5-5s-5,2.3-5,5V95H62.5c-2.8,0-5,2.3-5,5s2.3,5,5,5H95v32.5c0,2.8,2.3,5,5,5
		s5-2.3,5-5V105h32.5c2.8,0,5-2.3,5-5S140.3,95,137.5,95z"/>
	<path class="st0" d="M100,0C44.9,0,0,44.9,0,100s44.9,100,100,100s100-44.9,100-100S155.1,0,100,0z M100,190c-49.6,0-90-40.4-90-90
		s40.4-90,90-90s90,40.4,90,90S149.6,190,100,190z"/>
</g>
</svg>
