<?xml version="1.0" encoding="utf-8"?>
<!-- Generator: Adobe Illustrator 22.0.0, SVG Export Plug-In . SVG Version: 6.00 Build 0)  -->
<svg version="1.1" id="图层_1" xmlns="http://www.w3.org/2000/svg" xmlns:xlink="http://www.w3.org/1999/xlink" x="0px" y="0px"
	 viewBox="0 0 200 200" style="enable-background:new 0 0 200 200;" xml:space="preserve">
<style type="text/css">
	.st0{fill:#46596F;}
</style>
<path class="st0" d="M179.4,200H20.6c-6.6,0-11.9-5.3-11.9-11.9v-62.5c0-6.6,5.3-11.9,11.9-11.9h158.7c6.6,0,11.9,5.3,11.9,11.9
	v62.5C191.3,194.7,185.9,200,179.4,200L179.4,200z M20.6,123c-1.4,0-2.7,1.2-2.7,2.7v62.5c0,1.4,1.2,2.7,2.7,2.7h158.7
	c1.4,0,2.7-1.2,2.7-2.7v-62.5c0-1.4-1.2-2.7-2.7-2.7H20.6z"/>
<path class="st0" d="M146.8,123H53.2c-6.6,0-11.9-5.3-11.9-11.9V64.8c0-6.5,5.3-11.9,11.9-11.9h93.5c6.6,0,11.9,5.3,11.9,11.9v46.3
	C158.6,117.7,153.3,123,146.8,123z M53.2,62.2c-1.4,0-2.7,1.2-2.7,2.7v46.3c0,1.4,1.2,2.7,2.7,2.7h93.5c1.4,0,2.7-1.2,2.7-2.7V64.8
	c0-1.4-1.2-2.7-2.7-2.7H53.2z"/>
<path class="st0" d="M100.7,58.7c-2.5,0-4.6-2.1-4.6-4.6V32.7c0-2.5,2.1-4.6,4.6-4.6s4.6,2.1,4.6,4.6v21.4
	C105.3,56.6,103.2,58.7,100.7,58.7z"/>
<path class="st0" d="M100.2,34.5l-2.4-1.6c-6.3-4.3-8.8-11-7-18.9c1.2-5.3,3.8-9.5,4.2-9.9c0.3-0.6,0.8-1,1.4-1.4
	c0.8-1.7,2.8-2.9,4.8-2.5c2.4,0.3,4,2.4,3.9,4.7c0.3,1.4,2.8,4.6,4,6.5c1,1.5,2.1,2.9,2.8,4.2c1.3,2.2,1.6,4.5,0.9,6.9
	c-1,3.8-4.4,7.4-10.2,10.6L100.2,34.5z M100.1,14.5c-0.8,2.8-1.2,6,0.8,8.7c2.1-1.6,2.9-2.8,3-3.1c-0.6-0.9-1.4-2.1-2.3-3.3
	C101.2,15.9,100.6,15.2,100.1,14.5z M186.7,156.8c-10,0-15.2-3.5-19.9-6.6c-4.2-2.8-7.5-5-14.8-5c-7.3,0-10.6,2.2-14.8,5
	c-4.6,3.1-9.8,6.6-19.9,6.6s-15.2-3.5-19.9-6.6c-4.2-2.8-7.5-5-14.8-5s-10.6,2.2-14.8,5c-4.6,3.1-9.8,6.6-19.9,6.6
	s-15.2-3.5-19.9-6.6c-4.2-2.8-7.5-5-14.8-5c-2.5,0-4.6-2.1-4.6-4.6s2.1-4.6,4.6-4.6c10,0,15.2,3.5,19.9,6.6c4.2,2.8,7.5,5,14.8,5
	s10.6-2.2,14.8-5c4.6-3.1,9.8-6.6,19.9-6.6s15.2,3.5,19.9,6.6c4.2,2.8,7.5,5,14.8,5s10.6-2.2,14.8-5c4.6-3.1,9.8-6.6,19.9-6.6
	c10,0,15.2,3.5,19.9,6.6c4.2,2.8,7.5,5,14.8,5c2.5,0,4.6,2.1,4.6,4.6C191.3,154.7,189.2,156.8,186.7,156.8z M154,88.1
	c-7.2,0-10.9-3.2-13.9-5.8c-2.4-2.1-4.2-3.5-7.8-3.5s-5.3,1.4-7.8,3.5c-3,2.5-6.7,5.8-13.9,5.8s-10.9-3.2-13.9-5.8
	c-2.4-2.1-4.2-3.5-7.8-3.5c-3.7,0-5.3,1.4-7.8,3.5c-3,2.5-6.7,5.8-13.9,5.8s-10.9-3.2-13.9-5.8c-2.4-2.1-4.2-3.5-7.8-3.5
	c-2.5,0-4.6-2.1-4.6-4.6c0-2.5,2.1-4.6,4.6-4.6c7.2,0,10.9,3.2,13.9,5.8c2.4,2.1,4.2,3.5,7.8,3.5c3.7,0,5.3-1.4,7.8-3.5
	c3-2.5,6.7-5.8,13.9-5.8s10.9,3.2,13.9,5.8c2.4,2.1,4.2,3.5,7.8,3.5s5.3-1.4,7.8-3.5c3-2.5,6.7-5.8,13.9-5.8
	c7.2,0,10.9,3.2,13.9,5.8c2.4,2.1,4.2,3.5,7.8,3.5c2.5,0,4.6,2.1,4.6,4.6S156.6,88.1,154,88.1z"/>
</svg>
