<?xml version="1.0" encoding="utf-8"?>
<!-- Generator: Adobe Illustrator 22.0.0, SVG Export Plug-In . SVG Version: 6.00 Build 0)  -->
<svg version="1.1" id="图层_1" xmlns="http://www.w3.org/2000/svg" xmlns:xlink="http://www.w3.org/1999/xlink" x="0px" y="0px"
	 viewBox="0 0 200 200" style="enable-background:new 0 0 200 200;" xml:space="preserve">
<style type="text/css">
	.st0{fill:#46596F;}
</style>
<path class="st0" d="M95.7,61.5H44.4c-2.9,0-5.3,2.4-5.3,5.3c0,2.9,2.4,5.3,5.3,5.3h51.3c2.9,0,5.3-2.4,5.3-5.3
	C101,63.9,98.6,61.5,95.7,61.5z M95.7,100.3H44.4c-2.9,0-5.3,2.4-5.3,5.3c0,2.9,2.4,5.3,5.3,5.3h51.3c2.9,0,5.3-2.4,5.3-5.3
	C101,102.7,98.6,100.3,95.7,100.3z M95.7,139.2H44.4c-2.9,0-5.3,2.4-5.3,5.3s2.4,5.3,5.3,5.3h51.3c2.9,0,5.3-2.4,5.3-5.3
	S98.6,139.2,95.7,139.2z M159.8,139.2h-12.9c-2.9,0-5.3,2.4-5.3,5.3s2.4,5.3,5.3,5.3h12.9c2.9,0,5.3-2.4,5.3-5.3
	S162.7,139.2,159.8,139.2z"/>
<path class="st0" d="M194.7,182.4h-7.5v-55.9c0-9.1-4.8-17.8-12.6-22.5l-44.3-27.1V33.4c0-8.3-3.8-16-10.4-21c-6.6-5-15-6.6-23-4.4
	L32.1,27.7c-11.3,3.2-19.3,13.6-19.3,25.4v129.3H5.3c-2.9,0-5.3,2.4-5.3,5.3c0,2.9,2.4,5.3,5.3,5.3h189.4c2.9,0,5.3-2.4,5.3-5.3
	C200,184.7,197.6,182.4,194.7,182.4z M119.7,182.4H23.4V53.1c0-7.1,4.8-13.3,11.6-15.2l64.9-19.7c4.8-1.3,9.7-0.3,13.7,2.7
	c3.9,3,6.2,7.6,6.2,12.5V182.4L119.7,182.4z M176.6,182.4h-46.3V89.3l38.8,23.7c4.7,2.8,7.5,8,7.5,13.4L176.6,182.4L176.6,182.4z"/>
</svg>
