<?xml version="1.0" encoding="utf-8"?>
<!-- Generator: Adobe Illustrator 22.0.0, SVG Export Plug-In . SVG Version: 6.00 Build 0)  -->
<svg version="1.1" id="图层_1" xmlns="http://www.w3.org/2000/svg" xmlns:xlink="http://www.w3.org/1999/xlink" x="0px" y="0px"
	 viewBox="0 0 200 200" style="enable-background:new 0 0 200 200;" xml:space="preserve">
<style type="text/css">
	.st0{fill:#46596F;}
</style>
<path class="st0" d="M188.6,0H11.4C5.1,0,0,6.6,0,14.7v170.6c0,8.1,5.1,14.7,11.4,14.7h177.3c6.3,0,11.4-6.6,11.4-14.7V14.7
	C200,6.6,194.9,0,188.6,0z M190.9,185.3c0,1.6-1,2.9-2.3,2.9c0,0,0,0,0,0H11.4c-1.3,0-2.3-1.3-2.3-2.9l0,0V70.6h181.8L190.9,185.3z
	 M190.9,58.8H9.1V35.3h181.8L190.9,58.8z M190.9,23.5H9.1v-8.8c0-1.6,1-2.9,2.3-2.9l0,0h177.3c1.3,0,2.3,1.3,2.3,2.9c0,0,0,0,0,0
	V23.5z"/>
<path class="st0" d="M120.7,136.3c0-2.3,1.9-4.2,4.2-4.2h25c2.3,0,4.2,1.9,4.2,4.2c0,2.3-1.9,4.2-4.2,4.2h-25
	C122.5,140.5,120.7,138.6,120.7,136.3L120.7,136.3z"/>
<path class="st0" d="M88.4,107.2H44.6c-4,0-7.3,3.3-7.3,7.3v27.1c0,4,3.3,7.3,7.3,7.3h43.8c4,0,7.3-3.3,7.3-7.3v-27.1
	C95.7,110.4,92.4,107.2,88.4,107.2z M87.3,140.5H45.7v-25h41.7V140.5z"/>
<path class="st0" d="M162.3,136.3c0-2.3,1.9-4.2,4.2-4.2c2.3,0,4.2,1.9,4.2,4.2c0,2.3-1.9,4.2-4.2,4.2c0,0,0,0,0,0
	C164.2,140.5,162.3,138.6,162.3,136.3z"/>
</svg>
