<?xml version="1.0" encoding="utf-8"?>
<!-- Generator: Adobe Illustrator 22.0.0, SVG Export Plug-In . SVG Version: 6.00 Build 0)  -->
<svg version="1.1" id="图层_1" xmlns="http://www.w3.org/2000/svg" xmlns:xlink="http://www.w3.org/1999/xlink" x="0px" y="0px"
	 viewBox="0 0 200 200" style="enable-background:new 0 0 200 200;" xml:space="preserve">
<style type="text/css">
	.st0{fill:#46596F;}
</style>
<path class="st0" d="M195.1,82.9V24.4c0-5.4-4.4-9.8-9.7-9.8l0,0h-29.3v9.8h29.3v48.8H9.8V24.4h29.3v-9.8H9.7C4.4,14.6,0,19,0,24.4
	l0,0v161c0,5.4,4.4,9.8,9.7,9.8h82.9v-9.8H9.7V82.9H195.1z M48.8,0h9.8v39h-9.8V0z M136.6,0h9.8v39h-9.8V0z M68.3,14.6h58.5v9.8
	H68.3V14.6z"/>
<path class="st0" d="M151.2,190.2c21.6,0,39-17.5,39-39s-17.5-39-39-39l0,0c-21.6,0-39,17.5-39,39S129.7,190.2,151.2,190.2
	L151.2,190.2z M151.2,200c-26.9,0-48.8-21.8-48.8-48.8s21.8-48.8,48.8-48.8s48.8,21.8,48.8,48.8S178.2,200,151.2,200z"/>
<path class="st0" d="M156.1,154.1v-27.3c0-2.7-2.2-4.9-4.9-4.9s-4.9,2.2-4.9,4.9v29.3c0,1.3,0.5,2.5,1.4,3.4l13.9,13.9
	c1.9,1.9,5,1.9,6.9,0l0,0c1.9-1.9,1.9-5,0-6.9L156.1,154.1z"/>
<path class="st0" d="M66.1,94.9h22v7.3h-22V94.9z M66.1,124.1h22v7.3h-22V124.1z M33.2,124.1h22v7.3h-22V124.1z"/>
<path class="st0" d="M33.2,153.4h22v7.3h-22V153.4z M33.2,94.9h22v7.3h-22V94.9z M66.1,153.4h22v7.3h-22V153.4z"/>
</svg>
