<?xml version="1.0" encoding="utf-8"?>
<!-- Generator: Adobe Illustrator 22.0.0, SVG Export Plug-In . SVG Version: 6.00 Build 0)  -->
<svg version="1.1" id="图层_1" xmlns="http://www.w3.org/2000/svg" xmlns:xlink="http://www.w3.org/1999/xlink" x="0px" y="0px"
	 viewBox="0 0 200 200" style="enable-background:new 0 0 200 200;" xml:space="preserve">
<style type="text/css">
	.st0{fill:#46596F;}
</style>
<path class="st0" d="M191.7,18.8c-3.4-1.4-6.9-2.2-10.6-2.4H181c-12-2.1-28.1,0.9-41.2,7.5c-0.4,0.2-0.8,0.1-1-0.3
	c-0.1-0.2-0.1-0.3-0.1-0.5c1.6-7.5-12-3.7-17.4-2.3C103.6,25.4,87.1,33.7,72.8,45c-0.3,0.3-0.8,0.2-1.1-0.1
	c-0.1-0.1-0.2-0.3-0.2-0.4c-0.3-5.9-9.7-1.4-16.6,4.3c-14.7,11.7-26.2,27-33.5,44.3c-6,14.4-6.4,30.5-1.1,45.1
	c0.2,0.4,0.6,0.6,1,0.5c0.1,0,0.2-0.1,0.3-0.2C40.7,117.6,58.8,97.6,82,77.4c24.3-21.1,52.9-37.7,71.6-41.4c0.4-0.1,0.8,0.2,0.9,0.6
	c0.1,0.3-0.1,0.6-0.4,0.8C87.9,72.1,43.4,127.9,0.2,185c-0.3,0.3-0.2,0.8,0.1,1.1c0.1,0.1,0.3,0.2,0.5,0.2h73.9
	c0.8,0,1.5-0.7,1.5-1.5s-0.7-1.5-1.5-1.5H10.1c-0.4,0-0.8-0.4-0.8-0.8c0-0.2,0.1-0.5,0.3-0.6c0.4-0.4,0.9-0.7,1.2-1.2
	c5.1-5.6,9.3-12,14.7-17.4c6.8-6.7,7.2-6.2,13.1-6.3c11.5-0.2,22.9-1.2,34.2-3.2c23.4-3.7,44.7-15.9,59.8-34.1
	c3.5-4.2,6.8-10.9,0.5-12.2c-0.4,0.2-0.8,0-1-0.4c-0.2-0.4,0-0.8,0.4-1c0.2-0.1,0.3-0.1,0.5-0.1c2.2-1,4-1.8,5.7-2.7
	C157,93.1,174,81.4,184.7,63c2.7-4.5,5.7-13-1.4-12.9c-0.4,0-0.8-0.3-0.8-0.7c0-0.2,0.1-0.4,0.2-0.6c4.7-4.1,9.2-8.6,13.4-13.3
	C202.5,28,200.9,22.7,191.7,18.8L191.7,18.8L191.7,18.8z"/>
</svg>
