<?xml version="1.0" encoding="utf-8"?>
<!-- Generator: Adobe Illustrator 22.0.0, SVG Export Plug-In . SVG Version: 6.00 Build 0)  -->
<svg version="1.1" id="图层_1" xmlns="http://www.w3.org/2000/svg" xmlns:xlink="http://www.w3.org/1999/xlink" x="0px" y="0px"
	 viewBox="0 0 200 200" style="enable-background:new 0 0 200 200;" xml:space="preserve">
<style type="text/css">
	.st0{fill:#46596F;}
</style>
<path class="st0" d="M184.4,201H15.6C7,201,0,194,0,185.4V16.6C0,8,7,1,15.6,1h168.8C193,1,200,8,200,16.6v168.8
	C200,194,193,201,184.4,201L184.4,201z M15.6,10.9c-3.2,0-5.7,2.6-5.7,5.7v168.8c0,3.2,2.6,5.7,5.7,5.7h168.8c3.2,0,5.7-2.6,5.7-5.7
	V16.6c0-3.2-2.6-5.7-5.7-5.7L15.6,10.9L15.6,10.9z"/>
<path class="st0" d="M67.3,149.7V82.1c0-2.7-2.1-4.8-4.6-4.8l-13.7,0c-2.5,0-4.6,2.3-4.6,4.8v67.6H67.3L67.3,149.7z M98.4,149.7
	V53.1c0-2.7-2.1-5-4.6-5H80.1c-2.5,0-4.6,2.3-4.6,5v96.6H98.4L98.4,149.7z M129.4,149.7V107c0-2.7-2.1-5-4.6-5h-13.7
	c-2.5,0-4.6,2.3-4.6,5l0,42.7H129.4L129.4,149.7z M160.4,149.7V82.1c0-2.7-2.1-4.8-4.6-4.8h-13.7c-2.5,0-4.6,2.3-4.6,4.8v67.6H160.4
	L160.4,149.7z"/>
</svg>
