<svg xmlns="http://www.w3.org/2000/svg" width="64" height="64" fill="none" viewBox="0 0 64 64"><g clip-path="url(#annotate-pdf-tool_svg__a)"><path fill="#DBDBDB" d="M50.857 18.071h5.357L40.143 2v5.357c0 5.917 4.797 10.714 10.714 10.714"></path><path stroke="#DBDBDB" stroke-linecap="round" stroke-linejoin="round" stroke-width="2" d="M40.143 2v5.357c0 5.917 4.797 10.714 10.714 10.714h5.357M40.143 2H18.714C12.797 2 8 6.797 8 12.714v38.572C8 57.203 12.797 62 18.714 62h13.393m8.036-60 16.071 16.071m0 0V35"></path><path fill="#DA2D26" d="M36 15.64V9a2 2 0 0 0-2-2H16a2 2 0 0 0-2 2v6.64a2 2 0 0 0 2 2h18a2 2 0 0 0 2-2"></path><path fill="#fff" stroke="#fff" stroke-linejoin="round" stroke-width="0.2" d="M21.014 9.999q.588.49.588 1.513t-.6 1.497q-.6.475-1.84.475h-.998v1.65h-.95V9.508h1.932q1.28 0 1.868.49Zm-.672 2.322q.285-.301.286-.886 0-.583-.363-.825-.363-.24-1.135-.24h-.966v2.253h1.103q.789 0 1.075-.302ZM26.984 10.244q.813.736.813 2.049 0 1.311-.79 2.077-.788.765-2.414.764h-1.867V9.508h1.931q1.514 0 2.327.736Zm-.145 2.073q0-1.932-2.213-1.932h-.95v3.856h1.054q1.022 0 1.565-.487.544-.487.544-1.437ZM29.958 10.393v1.545h2.495v.878h-2.495v2.318h-.95V9.508h3.752l-.01.885z"></path><path fill="#396CE8" d="m40.004 43.662.89 18.107c.025.483.2.946.501 1.327.302.38.714.661 1.182.802s.968.138 1.434-.011a2.4 2.4 0 0 0 1.168-.822l3.071-4.015a4.8 4.8 0 0 1 1.685-1.378 4.8 4.8 0 0 1 2.13-.493h5.097c.489.001.967-.146 1.368-.423.4-.276.706-.669.872-1.123s.188-.948.06-1.415a2.34 2.34 0 0 0-.777-1.19L44.5 41.456a2.767 2.767 0 0 0-2.98-.354 2.73 2.73 0 0 0-1.145 1.056c-.27.455-.399.977-.371 1.503"></path><path stroke="#B0C4F6" stroke-linecap="round" stroke-width="2" d="m45.819 35.494 1.875-3.248M34.823 43.934l-3.623.97M40.127 34.746l-.971-3.623M35.572 38.242l-3.248-1.875"></path></g><defs><clipPath id="annotate-pdf-tool_svg__a"><path fill="#fff" d="M0 0h64v64H0z"></path></clipPath></defs></svg>