<svg xmlns="http://www.w3.org/2000/svg" width="64" height="64" fill="none" viewBox="0 0 64 64"><g clip-path="url(#convert-doucment-tool_svg__a)"><path fill="#DBDBDB" d="M35.143 12.179h3.393L28.357 2v3.393a6.786 6.786 0 0 0 6.786 6.786"></path><path stroke="#DBDBDB" stroke-linecap="round" stroke-linejoin="round" stroke-width="2" d="M28.357 2v3.393a6.786 6.786 0 0 0 6.786 6.786h3.393M28.357 2H14.786A6.786 6.786 0 0 0 8 8.786v24.428A6.786 6.786 0 0 0 14.786 40h6.482m7.09-38 10.178 10.179m0 0V22.9"></path><path fill="#DA2D26" d="M25.733 10.639V6.433c0-.7-.567-1.267-1.267-1.267h-11.4c-.7 0-1.266.567-1.266 1.267v4.206c0 .699.567 1.266 1.266 1.266h11.4c.7 0 1.267-.567 1.267-1.266"></path><path fill="#fff" stroke="#fff" stroke-linejoin="round" stroke-width="0.127" d="M16.242 7.065q.372.311.372.958 0 .648-.38.948-.38.301-1.165.301h-.632v1.045h-.601V6.754h1.223q.81 0 1.183.31Zm-.426 1.47q.18-.19.181-.56 0-.37-.23-.523-.228-.153-.718-.153h-.612v1.428h.699q.5 0 .68-.192ZM20.023 7.22q.515.467.515 1.298 0 .83-.5 1.315-.5.484-1.53.484h-1.182V6.754h1.223q.959 0 1.474.466Zm-.092 1.313q0-1.224-1.402-1.224h-.602v2.442h.668q.648 0 .992-.308.345-.309.344-.91ZM21.907 7.315v.978h1.58v.556h-1.58v1.468h-.601V6.754h2.375l-.005.56z"></path><path fill="#DBDBDB" d="M49.143 33.179h3.393L42.357 23v3.393a6.786 6.786 0 0 0 6.786 6.786"></path><path stroke="#DBDBDB" stroke-linecap="round" stroke-linejoin="round" stroke-width="2" d="M42.357 23v3.393a6.786 6.786 0 0 0 6.786 6.786h3.393M42.357 23H28.786A6.786 6.786 0 0 0 22 29.786v24.428A6.786 6.786 0 0 0 28.786 61h8.482m5.09-38 10.178 10.179m0 0V43.9"></path><path fill="#2A6CA2" d="M39.733 31.639v-4.206c0-.7-.567-1.267-1.266-1.267h-11.4c-.7 0-1.267.567-1.267 1.267v4.206c0 .699.567 1.266 1.267 1.266h11.4c.699 0 1.266-.567 1.266-1.267"></path><path fill="#000" d="M46.616 15.305H43.83a.64.64 0 0 0-.492.244.93.93 0 0 0-.204.59c0 .222.073.434.204.59.13.157.307.245.492.245h2.786c.554 0 1.085.264 1.477.734s.612 1.107.612 1.77v1.325l-.204-.245a.64.64 0 0 0-.49-.234.65.65 0 0 0-.486.244.92.92 0 0 0-.204.583.93.93 0 0 0 .195.587l1.393 1.67c.13.157.307.244.492.244a.64.64 0 0 0 .492-.244l1.393-1.67a.93.93 0 0 0 .196-.587.92.92 0 0 0-.204-.583.65.65 0 0 0-.487-.244.64.64 0 0 0-.49.234l-.204.245v-1.324c0-1.107-.368-2.168-1.02-2.95-.653-.783-1.538-1.223-2.461-1.224M15.96 48.504a.93.93 0 0 0-.588-.195.93.93 0 0 0-.583.204.64.64 0 0 0-.245.485.64.64 0 0 0 .235.489l.244.203H13.7c-.664 0-1.3-.22-1.77-.61-.47-.391-.734-.922-.734-1.474v-2.78a.64.64 0 0 0-.245-.492.93.93 0 0 0-.59-.203.93.93 0 0 0-.59.203.64.64 0 0 0-.245.492v2.78c.002.92.442 1.804 1.224 2.455.783.652 1.844 1.018 2.95 1.02h1.324l-.244.203a.7.7 0 0 0-.187.226.6.6 0 0 0-.006.537.7.7 0 0 0 .182.228.9.9 0 0 0 .275.152.98.98 0 0 0 .645-.005.9.9 0 0 0 .271-.155l1.67-1.39a.64.64 0 0 0 .244-.492.64.64 0 0 0-.244-.491z"></path><path stroke="#BFCEDD" stroke-linecap="round" stroke-width="2" d="M39.875 48.1h14.25M39.875 51.266h3.563m10.687 0H47M39.875 54.434h14.25M39.875 57.6h11.083"></path></g><defs><clipPath id="convert-doucment-tool_svg__a"><path fill="#fff" d="M0 0h64v64H0z"></path></clipPath></defs></svg>