<svg xmlns="http://www.w3.org/2000/svg" width="64" height="64" fill="none" viewBox="0 0 64 64"><path fill="#BDDBFF" d="M47.951 34.639h-17.25c-.304 0-.597.122-.812.341a1.17 1.17 0 0 0-.337.824v17.483c0 .619.242 1.212.673 1.649a2.29 2.29 0 0 0 1.627.682H49.1c.305 0 .598-.122.813-.34.216-.22.337-.516.337-.825V36.97c0-.618-.242-1.211-.674-1.649a2.29 2.29 0 0 0-1.626-.682m-2.3 15.152c0 .309-.121.605-.337.824a1.14 1.14 0 0 1-.813.341h-9.2c-.305 0-.597-.123-.813-.341a1.17 1.17 0 0 1-.336-.824v-9.325c0-.309.12-.605.336-.824s.508-.341.813-.341h9.2c.305 0 .598.123.813.341.216.219.337.515.337.824z"></path><path fill="#3D9AE2" d="M54.85 54.453H51.4V36.969a3.52 3.52 0 0 0-1.01-2.471 3.43 3.43 0 0 0-2.44-1.025H30.702v-3.497c0-.309-.12-.605-.336-.824a1.14 1.14 0 0 0-1.627 0 1.17 1.17 0 0 0-.336.824v3.497h-3.45c-.305 0-.598.123-.813.341a1.174 1.174 0 0 0 0 1.648c.215.219.508.342.813.342h3.45v17.483a3.53 3.53 0 0 0 1.011 2.471 3.43 3.43 0 0 0 2.438 1.026h17.25v3.496c0 .31.12.606.337.825a1.14 1.14 0 0 0 1.626 0c.215-.22.337-.516.337-.825v-3.496h3.45c.305 0 .597-.123.813-.342a1.174 1.174 0 0 0 0-1.648 1.14 1.14 0 0 0-.814-.341m-22.999 0c-.304 0-.597-.124-.812-.342a1.18 1.18 0 0 1-.338-.824V35.804h17.25c.305 0 .597.123.813.341s.336.515.337.824v17.484zm12.65-16.318h-9.2c-.61 0-1.194.247-1.625.684A2.35 2.35 0 0 0 33 40.466v9.324c.001.618.244 1.21.675 1.648a2.29 2.29 0 0 0 1.625.683h9.2c.61 0 1.194-.246 1.626-.683a2.35 2.35 0 0 0 .674-1.648v-9.324a2.35 2.35 0 0 0-.675-1.648 2.29 2.29 0 0 0-1.625-.683m0 11.655h-9.2v-9.324h9.2z"></path><path fill="#DBDBDB" d="M50.857 18.071h5.357L40.143 2v5.357c0 5.917 4.797 10.714 10.714 10.714"></path><path stroke="#DBDBDB" stroke-linecap="round" stroke-linejoin="round" stroke-width="2" d="M40.143 2v5.357c0 5.917 4.797 10.714 10.714 10.714h5.357M40.143 2H18.714C12.797 2 8 6.797 8 12.714v38.572C8 57.203 12.797 62 18.714 62h13.393m8.036-60 16.071 16.071m0 0V35"></path><path fill="#DA2D26" d="M36 15.64V9a2 2 0 0 0-2-2H16a2 2 0 0 0-2 2v6.64a2 2 0 0 0 2 2h18a2 2 0 0 0 2-2"></path><path fill="#fff" stroke="#fff" stroke-linejoin="round" stroke-width="0.2" d="M21.014 9.997q.588.49.588 1.513t-.6 1.497q-.6.475-1.84.475h-.998v1.65h-.95V9.506h1.932q1.28 0 1.868.49Zm-.672 2.322q.285-.301.286-.886 0-.583-.363-.825-.363-.24-1.135-.24h-.966v2.253h1.103q.789 0 1.075-.302ZM26.984 10.242q.812.736.812 2.049t-.789 2.077q-.788.764-2.414.764h-1.867V9.506h1.93q1.514 0 2.328.736Zm-.146 2.073q0-1.932-2.213-1.932h-.95v3.856h1.054q1.023 0 1.566-.488.543-.486.543-1.436ZM29.958 10.391v1.546h2.495v.877h-2.495v2.318h-.95V9.506h3.752l-.01.885z"></path></svg>