<svg xmlns="http://www.w3.org/2000/svg" width="64" height="64" fill="none" viewBox="0 0 64 64"><g clip-path="url(#delete-pages-tool_svg__a)"><path fill="#F07118" fill-rule="evenodd" d="M43.29 39.846v.51h-3.97a2.535 2.535 0 1 0 0 5.07h13.015a2.536 2.536 0 0 0 0-5.07h-3.974v-.51a2.536 2.536 0 0 0-5.071 0m-2.281 24.156h9.637a2.536 2.536 0 0 0 2.52-2.249l1.423-12.504a2.536 2.536 0 0 0-2.52-2.822H39.586a2.535 2.535 0 0 0-2.52 2.822l1.423 12.504a2.536 2.536 0 0 0 2.52 2.249" clip-rule="evenodd"></path><path fill="#DBDBDB" d="M50.857 18.071h5.357L40.143 2v5.357c0 5.917 4.797 10.714 10.714 10.714"></path><path stroke="#DBDBDB" stroke-linecap="round" stroke-linejoin="round" stroke-width="2" d="M40.143 2v5.357c0 5.917 4.797 10.714 10.714 10.714h5.357M40.143 2H18.714C12.797 2 8 6.797 8 12.714v38.572C8 57.203 12.797 62 18.714 62h13.393m8.036-60 16.071 16.071m0 0V35"></path></g><defs><clipPath id="delete-pages-tool_svg__a"><path fill="#fff" d="M0 0h64v64H0z"></path></clipPath></defs></svg>