<svg xmlns="http://www.w3.org/2000/svg" width="64" height="64" fill="none" viewBox="0 0 64 64"><path fill="#DBDBDB" d="M50.857 18.071h5.357L40.143 2v5.357c0 5.917 4.797 10.714 10.714 10.714"></path><path stroke="#DBDBDB" stroke-linecap="round" stroke-linejoin="round" stroke-width="2" d="M40.143 2v5.357c0 5.917 4.797 10.714 10.714 10.714h5.357M40.143 2H18.714C12.797 2 8 6.797 8 12.714v38.572C8 57.203 12.797 62 18.714 62h13.393m8.036-60 16.071 16.071m0 0V35"></path><path fill="#DA2D26" d="M36 15.64V9a2 2 0 0 0-2-2H16a2 2 0 0 0-2 2v6.64a2 2 0 0 0 2 2h18a2 2 0 0 0 2-2"></path><path fill="#fff" stroke="#fff" stroke-linejoin="round" stroke-width="0.2" d="M21.014 9.997q.588.49.588 1.513t-.6 1.497q-.6.475-1.84.475h-.998v1.65h-.95V9.506h1.932q1.28 0 1.868.49Zm-.672 2.322q.285-.301.286-.886 0-.583-.363-.825-.363-.24-1.135-.24h-.966v2.253h1.103q.789 0 1.075-.302ZM26.985 10.242q.812.736.812 2.049t-.789 2.077-2.414.764h-1.867V9.506h1.93q1.514 0 2.328.736Zm-.146 2.073q0-1.932-2.213-1.932h-.95v3.856h1.054q1.023 0 1.566-.488.543-.486.543-1.436ZM29.957 10.391v1.546h2.495v.877h-2.495v2.318h-.95V9.506h3.752l-.009.885z"></path><path fill="#DA2D26" stroke="#DA2D26" stroke-linejoin="round" stroke-width="2" d="m57.876 43.284-2.854-2.854a.807.807 0 0 0-1.141 0l-1.427 1.427-.999.999 3.995 3.995 1-.999 1.426-1.427a.807.807 0 0 0 0-1.142ZM44.338 49.972l-3.995 3.996-1.998 1.997v3.996h3.996l1.997-1.998 3.996-3.995 3.995-3.996.999-.999-3.996-3.995-.998.999z"></path><path stroke="#DA2D26" stroke-linecap="round" stroke-width="2" d="M56 60h-7.103"></path></svg>