<svg xmlns="http://www.w3.org/2000/svg" width="64" height="64" fill="none" viewBox="0 0 64 64"><path stroke="#3095BA" stroke-linecap="round" stroke-linejoin="round" stroke-width="2" d="M8 38h48.214"></path><path fill="#DBDBDB" d="M50.857 18.071h5.357L40.143 2v5.357c0 5.917 4.797 10.714 10.714 10.714"></path><path stroke="#DBDBDB" stroke-linejoin="round" stroke-width="2" d="M40.143 2v5.357c0 5.917 4.797 10.714 10.714 10.714h5.357M40.143 2H18.714C12.797 2 8 6.797 8 12.714v38.572C8 57.203 12.797 62 18.714 62H45.5c5.917 0 10.714-4.797 10.714-10.714V18.07M40.143 2l16.071 16.071"></path><path fill="#DA2D26" d="M36 15.64V9a2 2 0 0 0-2-2H16a2 2 0 0 0-2 2v6.64a2 2 0 0 0 2 2h18a2 2 0 0 0 2-2"></path><path fill="#fff" stroke="#fff" stroke-linejoin="round" stroke-width="0.2" d="M21.014 9.999q.588.49.588 1.513t-.6 1.497q-.6.475-1.84.475h-.998v1.65h-.95V9.508h1.932q1.28 0 1.868.49Zm-.672 2.322q.285-.301.286-.886 0-.583-.363-.825-.363-.24-1.135-.24h-.966v2.253h1.103q.789 0 1.075-.302ZM26.984 10.244q.813.736.813 2.049 0 1.311-.79 2.077-.788.765-2.414.764h-1.867V9.508h1.931q1.514 0 2.327.736Zm-.145 2.073q0-1.932-2.213-1.932h-.95v3.856h1.054q1.022 0 1.565-.487.544-.487.544-1.437ZM29.958 10.393v1.545h2.495v.878h-2.495v2.318h-.95V9.508h3.752l-.01.885z"></path><path stroke="#3095BA" stroke-linecap="round" stroke-linejoin="round" stroke-width="2" d="M36.846 48.999 32 44.152l-4.846 4.846M27.154 27 32 31.846 36.846 27"></path></svg>