<svg xmlns="http://www.w3.org/2000/svg" width="64" height="64" fill="none" viewBox="0 0 64 64"><g clip-path="url(#rearrange-pdf-tool_svg__a)"><path fill="#73B3E0" d="M47.12 53.092c-.437 0-.867-.11-1.25-.319l-7.677-4.194a2.607 2.607 0 0 1-.014-4.568l7.819-4.336a2.61 2.61 0 0 1 2.497-.018l7.961 4.265a2.607 2.607 0 0 1-.017 4.605l-8.103 4.265a2.6 2.6 0 0 1-1.216.3"></path><path fill="#73B3E0" d="M47.118 60.379c-.437 0-.867-.11-1.25-.32l-7.677-4.193a2.606 2.606 0 1 1 2.498-4.576l5.038 2.752a3 3 0 0 0 2.836.022l5.442-2.864a2.608 2.608 0 1 1 2.428 4.614l-8.102 4.264c-.374.197-.79.3-1.213.3"></path><path fill="#DBDBDB" d="M50.857 18.071h5.357L40.143 2v5.357c0 5.917 4.797 10.714 10.714 10.714"></path><path stroke="#DBDBDB" stroke-linecap="round" stroke-linejoin="round" stroke-width="2" d="M40.143 2v5.357c0 5.917 4.797 10.714 10.714 10.714h5.357M40.143 2H18.714C12.797 2 8 6.797 8 12.714v38.572C8 57.203 12.797 62 18.714 62h13.393m8.036-60 16.071 16.071m0 0V35"></path></g><defs><clipPath id="rearrange-pdf-tool_svg__a"><path fill="#fff" d="M0 0h64v64H0z"></path></clipPath></defs></svg>