<svg xmlns="http://www.w3.org/2000/svg" width="64" height="64" fill="none" viewBox="0 0 64 64"><path fill="#DBDBDB" d="M50.857 18.071h5.357L40.143 2v5.357c0 5.917 4.797 10.714 10.714 10.714"></path><path stroke="#DBDBDB" stroke-linecap="round" stroke-linejoin="round" stroke-width="2" d="M40.143 2v5.357c0 5.917 4.797 10.714 10.714 10.714h5.357M40.143 2H18.714C12.797 2 8 6.797 8 12.714v38.572C8 57.203 12.797 62 18.714 62h13.393m8.036-60 16.071 16.071m0 0V35"></path><path fill="#DA2D26" d="M36 15.64V9a2 2 0 0 0-2-2H16a2 2 0 0 0-2 2v6.64a2 2 0 0 0 2 2h18a2 2 0 0 0 2-2"></path><path fill="#fff" stroke="#fff" stroke-linejoin="round" stroke-width="0.2" d="M21.014 9.997q.588.49.588 1.513t-.6 1.497q-.6.475-1.84.475h-.998v1.65h-.95V9.506h1.932q1.28 0 1.868.49Zm-.672 2.322q.285-.301.286-.886 0-.583-.363-.825-.363-.24-1.135-.24h-.966v2.253h1.103q.789 0 1.075-.302ZM26.984 10.242q.812.736.812 2.049t-.789 2.077q-.788.764-2.414.764h-1.867V9.506h1.93q1.514 0 2.328.736Zm-.146 2.073q0-1.932-2.213-1.932h-.95v3.856h1.054q1.023 0 1.566-.488.543-.486.543-1.436ZM29.958 10.391v1.546h2.495v.877h-2.495v2.318h-.95V9.506h3.752l-.01.885z"></path><path fill="#FFCB11" fill-rule="evenodd" d="M44.221 40.16c0-2.503 2.156-4.531 4.815-4.531s4.815 2.028 4.815 4.53v.621h.578c.445 0 .805.34.805.757v3.648c0 2.443-2.106 4.424-4.703 4.424h-2.99c-2.597 0-4.703-1.98-4.703-4.424v-3.648c0-.418.36-.757.805-.757h.578zm8.021.62v-.62c0-1.667-1.435-3.017-3.206-3.017s-3.206 1.35-3.206 3.016v.621zm-7.795 1.514v2.89c0 1.608 1.385 2.911 3.094 2.911h2.99c1.709 0 3.094-1.303 3.094-2.91v-2.89zm3.785 3.09v.377c0 .418.36.757.804.757s.805-.339.805-.757v-.376h.071c.444 0 .805-.339.805-.757s-.36-.757-.805-.757h-1.751c-.445 0-.805.339-.805.757s.36.757.804.757zm6.758 8.994c.385-.21.877-.085 1.1.277l.25.408.25-.408c.223-.362.715-.486 1.1-.277.384.21.516.672.294 1.034l-.25.408h.5c.445 0 .805.339.805.757s-.36.757-.804.757h-.501l.25.407c.222.362.09.825-.294 1.034-.385.21-.877.086-1.1-.276l-.25-.409-.25.408c-.223.363-.715.486-1.1.277s-.516-.672-.294-1.034l.25-.407h-.5c-.445 0-.805-.34-.805-.757 0-.418.36-.757.804-.757h.501l-.25-.408c-.222-.362-.09-.825.294-1.034m-14.607.004c.384-.209.877-.085 1.099.277l.25.409.251-.409c.222-.362.714-.486 1.1-.277.384.21.516.672.294 1.034l-.25.408h.5c.444 0 .805.339.805.757s-.36.757-.805.757h-.5l.25.408c.222.362.09.825-.295 1.034s-.877.085-1.099-.277l-.25-.409-.251.409c-.222.362-.715.486-1.1.277-.384-.21-.516-.672-.294-1.034l.25-.408h-.5c-.445 0-.805-.339-.805-.757s.36-.757.805-.757h.5l-.25-.408c-.222-.362-.09-.825.295-1.034m7.278 0c.385-.209.877-.085 1.1.277l.25.409.25-.409c.223-.362.715-.486 1.1-.277.385.21.517.672.294 1.034l-.25.408h.501c.444 0 .805.339.805.757s-.36.757-.805.757h-.501l.25.408c.222.362.09.825-.294 1.034-.385.209-.877.085-1.1-.277l-.25-.409-.25.409c-.223.362-.715.486-1.1.277-.384-.21-.516-.672-.294-1.034l.25-.408h-.5c-.445 0-.805-.339-.805-.757s.36-.757.805-.757h.5l-.25-.408c-.222-.362-.09-.825.294-1.034" clip-rule="evenodd"></path><path stroke="#FFCB11" stroke-linecap="round" stroke-linejoin="round" stroke-miterlimit="10" stroke-width="1.352" d="M35.715 53.35c0-.97.82-1.795 1.879-1.795h22.89c1.06 0 1.88.825 1.88 1.795v6.15c0 .97-.82 1.795-1.88 1.795h-22.89c-1.06 0-1.879-.825-1.879-1.796z"></path></svg>