<svg xmlns="http://www.w3.org/2000/svg" width="64" height="64" fill="none" viewBox="0 0 64 64"><g clip-path="url(#redact-pdf-tool_svg__a)"><path fill="#DBDBDB" d="M50.857 18.071h5.357L40.143 2v5.357c0 5.917 4.797 10.714 10.714 10.714"></path><path stroke="#DBDBDB" stroke-linecap="round" stroke-linejoin="round" stroke-width="2" d="M40.143 2v5.357c0 5.917 4.797 10.714 10.714 10.714h5.357M40.143 2H18.714C12.797 2 8 6.797 8 12.714v38.572C8 57.203 12.797 62 18.714 62h13.393m8.036-60 16.071 16.071m0 0V35"></path><path fill="#DA2D26" d="M36 15.64V9a2 2 0 0 0-2-2H16a2 2 0 0 0-2 2v6.64a2 2 0 0 0 2 2h18a2 2 0 0 0 2-2"></path><path fill="#fff" stroke="#fff" stroke-linejoin="round" stroke-width="0.2" d="M21.014 9.999q.588.49.588 1.513t-.6 1.497q-.6.475-1.84.475h-.998v1.65h-.95V9.508h1.932q1.28 0 1.868.49Zm-.672 2.322q.285-.301.286-.886 0-.583-.363-.825-.363-.24-1.135-.24h-.966v2.253h1.103q.789 0 1.075-.302ZM26.984 10.244q.813.736.813 2.049 0 1.311-.79 2.077-.788.765-2.414.764h-1.867V9.508h1.931q1.514 0 2.327.736Zm-.145 2.073q0-1.932-2.213-1.932h-.95v3.856h1.054q1.022 0 1.565-.487.544-.487.544-1.437ZM29.958 10.393v1.545h2.495v.878h-2.495v2.318h-.95V9.508h3.752l-.01.885z"></path><g clip-path="url(#redact-pdf-tool_svg__b)"><path fill="#000" d="M47.01 61.21a.8.8 0 0 1-.512-.15c-.474-.352-.552-1.194-.541-1.461v-2.547a.12.12 0 0 0-.12-.12h-1.722a.12.12 0 0 1-.12-.12V51.87a.12.12 0 0 0-.19-.098l-4.584 3.276a.12.12 0 0 0-.05.098v1.665a.12.12 0 0 1-.12.12h-1.724a.12.12 0 0 0-.12.12v2.53l.002.017c.011.267-.067 1.11-.54 1.463-.139.102-.297.15-.513.15h-.637a.12.12 0 0 0-.12.12v2.553c0 .066.054.12.12.12h1.274a.12.12 0 0 0 .12-.12v-1.578c0-.055.038-.103.09-.118.28-.081.535-.205.756-.369.984-.733.97-2.052.963-2.247v-1.428a.12.12 0 0 1 .12-.12h5.481a.12.12 0 0 1 .12.12v1.43c-.007.192-.02 1.512.967 2.246.219.163.473.287.753.368.052.016.09.063.09.118v1.577c0 .067.053.12.12.12h1.274a.12.12 0 0 0 .12-.12v-2.552a.12.12 0 0 0-.12-.12z"></path><path stroke="#DBDBDB" stroke-linecap="round" stroke-width="2" d="M56 45.5H25.5M56 39.5H43.5"></path><path stroke="#000" stroke-linecap="round" stroke-width="2" d="m38.623 39.5-.032-.068a1 1 0 0 0-1.81 0l-.065.136a1 1 0 0 1-1.81 0l-.065-.136a1 1 0 0 0-1.81 0l-.065.136a1 1 0 0 1-1.81 0l-.065-.136a1 1 0 0 0-1.81 0l-.065.136a1 1 0 0 1-1.81 0l-.065-.136a1 1 0 0 0-1.81 0l-.033.068"></path><path stroke="#DBDBDB" stroke-linecap="round" stroke-width="2" d="M36 51.5H25.5"></path><path stroke="#000" stroke-linecap="round" stroke-width="2" d="m46 51.5.032-.068a1 1 0 0 1 1.811 0l.064.136a1 1 0 0 0 1.811 0l.064-.136a1 1 0 0 1 1.811 0l.064.136a1 1 0 0 0 1.811 0l.064-.136a1 1 0 0 1 1.811 0l.032.068"></path></g></g><defs><clipPath id="redact-pdf-tool_svg__a"><path fill="#fff" d="M0 0h64v64H0z"></path></clipPath><clipPath id="redact-pdf-tool_svg__b"><path fill="#fff" d="M4.174 0h55.652v64H4.174z"></path></clipPath></defs></svg>