<svg xmlns="http://www.w3.org/2000/svg" width="64" height="64" fill="none" viewBox="0 0 64 64"><path fill="#DBDBDB" d="M50.857 18.071h5.357L40.143 2v5.357c0 5.917 4.797 10.714 10.714 10.714"></path><path stroke="#DBDBDB" stroke-linecap="round" stroke-linejoin="round" stroke-width="2" d="M40.143 2v5.357c0 5.917 4.797 10.714 10.714 10.714h5.357M40.143 2H18.714C12.797 2 8 6.797 8 12.714v38.572C8 57.203 12.797 62 18.714 62h13.393m8.036-60 16.071 16.071m0 0V35"></path><path stroke="#3095BA" stroke-linecap="round" stroke-linejoin="round" stroke-width="2" d="M54.915 45.889a10 10 0 1 0 1.335 9.91"></path><path stroke="#3095BA" stroke-linecap="round" stroke-linejoin="round" stroke-width="2" d="M51 46.781h4.781v-4.78"></path></svg>