<svg xmlns="http://www.w3.org/2000/svg" width="64" height="64" fill="none" viewBox="0 0 64 64"><path fill="#DBDBDB" d="M50.857 18.071h5.357L40.143 2v5.357c0 5.917 4.797 10.714 10.714 10.714"></path><path stroke="#DBDBDB" stroke-linecap="round" stroke-linejoin="round" stroke-width="2" d="M40.143 2v5.357c0 5.917 4.797 10.714 10.714 10.714h5.357M40.143 2H18.714C12.797 2 8 6.797 8 12.714v38.572C8 57.203 12.797 62 18.714 62h13.393m8.036-60 16.071 16.071m0 0V35"></path><path fill="#DA2D26" d="M36 15.64V9a2 2 0 0 0-2-2H16a2 2 0 0 0-2 2v6.64a2 2 0 0 0 2 2h18a2 2 0 0 0 2-2"></path><path fill="#fff" stroke="#fff" stroke-linejoin="round" stroke-width="0.2" d="M21.014 9.999q.588.49.588 1.513t-.6 1.497q-.6.475-1.84.475h-.998v1.65h-.95V9.508h1.932q1.28 0 1.868.49Zm-.672 2.322q.285-.301.286-.886 0-.583-.363-.825-.363-.24-1.135-.24h-.966v2.253h1.103q.789 0 1.075-.302ZM26.984 10.244q.813.736.813 2.049 0 1.311-.79 2.077-.788.765-2.414.764h-1.867V9.508h1.931q1.514 0 2.327.736Zm-.145 2.073q0-1.932-2.213-1.932h-.95v3.856h1.054q1.022 0 1.565-.487.544-.487.544-1.437ZM29.958 10.393v1.545h2.495v.878h-2.495v2.318h-.95V9.508h3.752l-.01.885z"></path><path fill="#248AF6" d="M58.928 41.637c-7.11 0-11.065 5.53-12.634 5.53-.632 0-.292-1.487-.131-1.959.23-.668-.286-1.359-1.018-1.359-.97 0-1.717.843-2.752 2.01-.852.962-2.14 2.414-2.99 2.414-1.383 0 .559-4.366.959-5.142a1 1 0 0 0-.047-1.005 1.08 1.08 0 0 0-.912-.49c-1.049 0-1.726 1.047-4.147 5.046-.958 1.582-2.044 3.375-3.03 4.78-1.084 1.542-1.678 2.078-1.94 2.261-.29-.785-.247-3.295 1.198-8.026 1.233-4.04 2.988-7.88 4.082-8.934a1.006 1.006 0 0 0 0-1.46 1.1 1.1 0 0 0-1.516 0c-1.606 1.546-3.402 5.954-4.452 9.258-2.238 7.046-2.208 11.309.616 11.309 1.72 0 3.445-2.47 6.625-7.703.21 1.461 1.262 2.172 2.564 2.172 1.766 0 3.258-1.604 4.471-2.97.114.493.582 1.864 2.42 1.864 2.99 0 5.984-5.531 12.634-5.531.592 0 1.072-.462 1.072-1.033 0-.57-.48-1.032-1.072-1.032"></path></svg>