<svg xmlns="http://www.w3.org/2000/svg" width="64" height="64" fill="none" viewBox="0 0 64 64"><g clip-path="url(#split-pdf-pages-tool_svg__a)"><g clip-path="url(#split-pdf-pages-tool_svg__b)"><path stroke="#DBDBDB" stroke-linecap="round" stroke-linejoin="round" stroke-width="2" d="M5 31.754h6.75M20.75 31.754h6.75M36.5 31.754h6.75M52.25 31.754H59"></path><path stroke="#DBDBDB" stroke-linejoin="round" stroke-width="2" d="M17 21.954h30c6.627 0 12-5.373 12-12v-43.2c0-6.627-5.373-12-12-12H17c-6.627 0-12 5.373-12 12v43.2c0 6.627 5.373 12 12 12Z"></path><path fill="#DA2D26" d="M23.066 12.504c-.738 0-1.405-.392-1.874-1.13-.698-1.097-.515-2.34.501-3.409 1.025-1.078 3.121-2.093 5.643-2.922a51 51 0 0 0 2.337-5.24 49 49 0 0 0 1.085-3.13c-1.26-2.357-2.01-4.551-1.811-5.976.203-1.446 1.262-2.26 2.835-2.17.468.025 1.583.274 1.852 2.024.205 1.339-.14 3.502-.834 5.96 1.312 2.258 3.111 4.675 4.871 6.53 2.66-.165 4.914.033 6.048.73.888.547 1.236 1.437.932 2.382-.497 1.544-1.698 2.252-3.215 1.891-1.278-.304-2.861-1.441-4.467-3.02-2.582.231-5.621.767-8.288 1.567-1.591 2.913-3.312 5.18-4.757 5.743-.291.114-.58.17-.858.17m-.269-2.191c.16.25.248.245.289.24.61-.063 1.624-1.135 2.783-2.948-.766.335-1.453.698-2.03 1.087-1.45.979-1.142 1.462-1.042 1.62m16.86-5.418c.818.652 1.578 1.097 2.213 1.249.497.118.752.058.963-.599-.282-.436-1.483-.646-3.176-.65m-7.6-6.017a54 54 0 0 1-2.22 5.44 46 46 0 0 1 5.49-1.05 38.6 38.6 0 0 1-3.27-4.39m-.462-8.44c-.68 0-.715.26-.754.534-.1.72.149 1.746.64 2.928.432-2.106.344-3.22.134-3.462z"></path><path stroke="#DBDBDB" stroke-linejoin="round" stroke-width="2" d="M17 107.954h30c6.627 0 12-5.373 12-12v-43.2c0-6.627-5.373-12-12-12H17c-6.627 0-12 5.373-12 12v43.2c0 6.627 5.373 12 12 12Z"></path><path fill="#DA2D26" d="M23.066 72.465c-.738 0-1.405-.392-1.874-1.13-.698-1.097-.515-2.34.501-3.409 1.025-1.079 3.121-2.094 5.643-2.922a51 51 0 0 0 2.337-5.24 49 49 0 0 0 1.085-3.13c-1.26-2.357-2.01-4.551-1.811-5.976.203-1.446 1.262-2.26 2.835-2.171.468.026 1.583.274 1.852 2.025.205 1.338-.14 3.502-.834 5.96 1.312 2.258 3.111 4.675 4.871 6.53 2.66-.165 4.914.033 6.048.73.888.547 1.236 1.437.932 2.382-.497 1.544-1.698 2.252-3.215 1.891-1.278-.304-2.861-1.441-4.467-3.02-2.582.231-5.621.767-8.288 1.567-1.591 2.912-3.312 5.18-4.757 5.743-.291.114-.58.17-.858.17m-.269-2.191c.16.25.248.245.289.24.61-.063 1.624-1.135 2.783-2.948-.766.334-1.453.697-2.03 1.087-1.45.978-1.142 1.462-1.042 1.62m16.86-5.418c.818.652 1.578 1.097 2.213 1.249.497.117.752.057.963-.599-.282-.436-1.483-.646-3.176-.65m-7.6-6.017a54 54 0 0 1-2.22 5.44 46 46 0 0 1 5.49-1.05 39 39 0 0 1-3.27-4.39m-.462-8.44c-.68 0-.715.26-.754.534-.1.72.149 1.746.64 2.928.432-2.106.344-3.22.134-3.462z"></path></g></g><defs><clipPath id="split-pdf-pages-tool_svg__a"><path fill="#fff" d="M0 0h64v64H0z"></path></clipPath><clipPath id="split-pdf-pages-tool_svg__b"><path fill="#fff" d="M0 0h64v64H0z"></path></clipPath></defs></svg>