<svg xmlns="http://www.w3.org/2000/svg" width="64" height="64" fill="none" viewBox="0 0 64 64"><path fill="#DBDBDB" d="M50.857 18.071h5.357L40.143 2v5.357c0 5.917 4.797 10.714 10.714 10.714"></path><path stroke="#DBDBDB" stroke-linecap="round" stroke-linejoin="round" stroke-width="2" d="M40.143 2v5.357c0 5.917 4.797 10.714 10.714 10.714h5.357M40.143 2H18.714C12.797 2 8 6.797 8 12.714v38.572C8 57.203 12.797 62 18.714 62h13.393m8.036-60 16.071 16.071m0 0V35"></path><path fill="#DA2D26" d="M36 15.64V9a2 2 0 0 0-2-2H16a2 2 0 0 0-2 2v6.64a2 2 0 0 0 2 2h18a2 2 0 0 0 2-2"></path><path fill="#fff" stroke="#fff" stroke-linejoin="round" stroke-width="0.2" d="M21.014 9.997q.588.49.588 1.513t-.6 1.497q-.6.475-1.84.475h-.998v1.65h-.95V9.506h1.932q1.28 0 1.868.49Zm-.672 2.322q.285-.301.286-.886 0-.583-.363-.825-.363-.24-1.135-.24h-.966v2.253h1.103q.789 0 1.075-.302ZM26.984 10.242q.812.736.812 2.049t-.789 2.077q-.788.764-2.414.764h-1.867V9.506h1.93q1.514 0 2.328.736Zm-.146 2.073q0-1.932-2.213-1.932h-.95v3.856h1.054q1.023 0 1.566-.488.543-.486.543-1.436ZM29.958 10.391v1.546h2.495v.877h-2.495v2.318h-.95V9.506h3.752l-.01.885z"></path><path fill="#00BB61" d="M52.015 46.276H41.338v-4.91c0-1.173.46-2.297 1.28-3.126a4.34 4.34 0 0 1 3.088-1.294c1.159 0 2.27.466 3.089 1.294a4.45 4.45 0 0 1 1.279 3.125h2.912a7.4 7.4 0 0 0-2.132-5.208A7.24 7.24 0 0 0 45.706 34c-1.93 0-3.782.776-5.147 2.157a7.4 7.4 0 0 0-2.132 5.208v5.055c-.7.212-1.315.647-1.752 1.24A3.47 3.47 0 0 0 36 49.713v8.838c.001.911.36 1.785.996 2.43a3.38 3.38 0 0 0 2.401 1.007h12.618a3.38 3.38 0 0 0 2.401-1.008 3.46 3.46 0 0 0 .996-2.429v-8.838a3.46 3.46 0 0 0-.996-2.43 3.38 3.38 0 0 0-2.4-1.007m.486 12.275c0 .13-.052.255-.143.347a.48.48 0 0 1-.343.144H39.397a.48.48 0 0 1-.343-.144.5.5 0 0 1-.142-.347v-8.838c0-.13.051-.255.142-.347a.48.48 0 0 1 .343-.144h12.618c.129 0 .252.052.343.144a.5.5 0 0 1 .143.347z"></path><path fill="#000" d="M47.146 53.966c.026.23.017 1.898.017 2.13 0 1.946-2.912 1.949-2.912 0 0-.232-.01-1.9.017-2.13a1.985 1.985 0 0 1-.335-2.114c.152-.348.4-.644.716-.85a1.93 1.93 0 0 1 2.116 0c.315.206.564.502.716.85a1.99 1.99 0 0 1-.335 2.114M58.318 42.195l2.214-1.021c1.75-.809 2.96 1.873 1.207 2.68l-2.214 1.022c-1.746.804-2.973-1.867-1.207-2.681M54.75 39.998l1.045-2.22c.825-1.758 3.457-.494 2.63 1.266l-1.045 2.22c-.826 1.758-3.463.507-2.63-1.266M61.164 49.662l-2.35-.656c-1.853-.518-1.081-3.356.776-2.84l2.349.657c1.834.512 1.105 3.364-.775 2.84"></path></svg>