<svg xmlns="http://www.w3.org/2000/svg" width="64" height="64" fill="none" viewBox="0 0 64 64"><path fill="#DBDBDB" d="M50.857 18.071h5.357L40.143 2v5.357c0 5.917 4.797 10.714 10.714 10.714"></path><path stroke="#DBDBDB" stroke-linecap="round" stroke-linejoin="round" stroke-width="2" d="M40.143 2v5.357c0 5.917 4.797 10.714 10.714 10.714h5.357M40.143 2H18.714C12.797 2 8 6.797 8 12.714v38.572C8 57.203 12.797 62 18.714 62h13.393m8.036-60 16.071 16.071m0 0V35"></path><path fill="#DA2D26" d="M36 15.64V9a2 2 0 0 0-2-2H16a2 2 0 0 0-2 2v6.64a2 2 0 0 0 2 2h18a2 2 0 0 0 2-2"></path><path fill="#fff" stroke="#fff" stroke-linejoin="round" stroke-width="0.2" d="M21.014 9.997q.588.49.588 1.513t-.6 1.497q-.6.475-1.84.475h-.998v1.65h-.95V9.506h1.932q1.28 0 1.868.49Zm-.672 2.322q.285-.301.286-.886 0-.583-.363-.825-.363-.24-1.135-.24h-.966v2.253h1.103q.789 0 1.075-.302ZM26.984 10.242q.812.736.812 2.049t-.789 2.077q-.788.764-2.414.764h-1.867V9.506h1.93q1.514 0 2.328.736Zm-.146 2.073q0-1.932-2.213-1.932h-.95v3.856h1.054q1.023 0 1.566-.488.543-.486.543-1.436ZM29.958 10.391v1.546h2.495v.877h-2.495v2.318h-.95V9.506h3.752l-.01.885z"></path><rect width="27" height="14.294" x="31.035" y="51.711" fill="#D9ECFF" rx="1.76" transform="rotate(-32 31.035 51.71)"></rect><path fill="#248AF6" d="M38.252 56.616q-.431-.69-.469-1.409-.03-.724.302-1.33.339-.612.975-1.009.555-.346 1.095-.399.55-.057.995.098l-.405-.649 1.262-.789 2.843 4.55-1.263.788-.415-.665q-.041.471-.338.953a2.6 2.6 0 0 1-.848.816 2.7 2.7 0 0 1-1.33.42 2.6 2.6 0 0 1-1.334-.32q-.634-.357-1.07-1.056m3.914-2.423q-.261-.42-.625-.603a1.4 1.4 0 0 0-.771-.158 1.6 1.6 0 0 0-.757.245 1.6 1.6 0 0 0-.547.559 1.5 1.5 0 0 0-.196.762q.006.407.262.818.258.41.631.61.377.187.776.166.407-.026.747-.238.35-.219.556-.565.202-.354.196-.762a1.65 1.65 0 0 0-.272-.834M44.9 50.246q.037-.48.33-.947.3-.474.847-.816a2.7 2.7 0 0 1 1.326-.428q.698-.037 1.327.312.633.335 1.07 1.033.435.698.47 1.43a2.5 2.5 0 0 1-.297 1.339q-.325.615-.961 1.011-.554.348-1.1.413-.54.053-.99-.111l.405.648-1.253.783-3.797-6.076 1.253-.783zm3.619-.046a1.5 1.5 0 0 0-.63-.589 1.4 1.4 0 0 0-.77-.157q-.394.028-.742.246-.34.213-.542.567a1.5 1.5 0 0 0-.196.762q.01.416.267.827.257.41.625.602.378.187.776.166.403-.034.742-.247a1.54 1.54 0 0 0 .543-.567q.202-.354.19-.77-.001-.42-.263-.84M50.398 49.049q-.441-.706-.456-1.428a2.5 2.5 0 0 1 .355-1.364q.371-.642 1.087-1.09.92-.575 1.789-.524.87.038 1.553.674l-1.352.844a1.05 1.05 0 0 0-.654-.23q-.36-.015-.735.22-.537.334-.624.892-.093.549.317 1.206.405.648.945.814.534.157 1.071-.178.761-.476.604-1.245l1.352-.845q.255.868-.081 1.683-.338.816-1.25 1.386-.717.449-1.451.507a2.6 2.6 0 0 1-1.382-.278q-.647-.338-1.088-1.044"></path></svg>