<?xml version="1.0" encoding="utf-8"?>
<!-- Generator: Adobe Illustrator 22.0.0, SVG Export Plug-In . SVG Version: 6.00 Build 0)  -->
<svg version="1.1" id="layer_1" xmlns="http://www.w3.org/2000/svg" xmlns:xlink="http://www.w3.org/1999/xlink" x="0px" y="0px"
	 viewBox="0 0 200 200" style="enable-background:new 0 0 200 200;" xml:space="preserve">
<style type="text/css">
	.st0{fill:#415267;}
	.st1{fill:#FF0C00;}
</style>
<path class="st0" d="M174.3,0.2H25.6C11.5,0.2,0,11.6,0,25.7v148.7C0,188.5,11.5,200,25.6,200h148.7c14.1,0,25.6-11.5,25.6-25.6
	l0-148.7C199.8,11.6,188.4,0.2,174.3,0.2z M190.5,172.7c0,9.9-8.1,18-18,18H27.3c-9.9,0-18-8.1-18-18V27.5c0-9.9,8.1-18,18-18h145.2
	c9.9,0,18,8.1,18,18V172.7z"/>
<g>
	<path class="st1" d="M64.7,139.9H55V77.7c-2.3,2.2-5.4,4.5-9.1,6.7c-3.8,2.2-7.1,3.9-10.1,5v-9.4c5.4-2.6,10.1-5.7,14.1-9.3
		c4-3.6,6.9-7.2,8.6-10.6h6.2V139.9z"/>
	<path class="st1" d="M94.7,93.4V82.3h11v11.1H94.7z M94.7,139.9v-11.1h11v11.1H94.7z"/>
	<path class="st1" d="M156.1,139.9h-9.6V77.7c-2.3,2.2-5.4,4.5-9.1,6.7c-3.8,2.2-7.1,3.9-10.1,5v-9.4c5.4-2.6,10.1-5.7,14.1-9.3
		c4-3.6,6.9-7.2,8.6-10.6h6.2V139.9z"/>
</g>
</svg>
