<?xml version="1.0" encoding="utf-8"?>
<!-- Generator: Adobe Illustrator 22.0.0, SVG Export Plug-In . SVG Version: 6.00 Build 0)  -->
<svg version="1.1" id="" xmlns="http://www.w3.org/2000/svg" xmlns:xlink="http://www.w3.org/1999/xlink" x="0px" y="0px"
	 viewBox="0 0 200 200" style="enable-background:new 0 0 200 200;" xml:space="preserve">
<style type="text/css">
	.st0{fill:#C0C0C0;}
</style>
<g>
	<path class="st0" d="M17.9,192.3l-2.4,5.7c2.9,1.2,6.1,1.9,9.6,1.9h9.3v-6.3h-9.3C22.4,193.7,20,193.1,17.9,192.3z"/>
	<rect x="53.1" y="193.7" class="st0" width="18.8" height="6.3"/>
	<path class="st0" d="M6.3,165.6H0.1v9.3c0,3.3,0.7,6.5,1.9,9.6l5.7-2.4c-0.9-2.3-1.5-4.7-1.5-7.2v-9.3H6.3z"/>
	<path class="st0" d="M15.5,1.9l2.4,5.7c2.3-0.9,4.7-1.5,7.2-1.5h9.3V0.1h-9.3C21.6,0.1,18.4,0.7,15.5,1.9z"/>
	<path class="st0" d="M0.1,25.1v9.3h6.3v-9.3c0-2.5,0.5-4.9,1.5-7.2L2,15.5C0.7,18.5,0.1,21.7,0.1,25.1z"/>
	<rect x="53.1" y="0.1" class="st0" width="18.8" height="6.3"/>
	<rect x="90.7" y="0.1" class="st0" width="18.8" height="6.3"/>
	<polygon class="st0" points="6.3,128.1 0.1,128.1 0.1,146.9 0.1,146.9 6.3,146.9 	"/>
	<rect x="0.1" y="53.1" class="st0" width="6.3" height="18.8"/>
	<rect x="0.1" y="90.7" class="st0" width="6.3" height="18.8"/>
	<rect x="90.7" y="193.7" class="st0" width="18.8" height="6.3"/>
	<rect x="193.7" y="53.1" class="st0" width="6.3" height="18.8"/>
	<rect x="193.7" y="90.7" class="st0" width="6.3" height="18.8"/>
	<rect x="193.7" y="128.1" class="st0" width="6.3" height="18.8"/>
	<path class="st0" d="M198.1,15.5l-5.7,2.4c0.9,2.3,1.5,4.7,1.5,7.2v9.3h6.3v-9.3C199.9,21.7,199.3,18.5,198.1,15.5z"/>
	<path class="st0" d="M193.7,175c0,2.5-0.5,4.9-1.5,7.2l5.7,2.4c1.2-2.9,1.9-6.1,1.9-9.6v-9.3h-6.3v9.3H193.7z"/>
	<polygon class="st0" points="128.1,199.9 146.9,199.9 146.9,199.9 146.9,193.7 128.1,193.7 	"/>
	<path class="st0" d="M175,193.7h-9.3v6.3h9.3c3.3,0,6.7-0.7,9.6-1.9l-2.4-5.7C179.9,193.1,177.5,193.7,175,193.7z"/>
	<rect x="128.1" y="0.1" class="st0" width="18.8" height="6.3"/>
	<path class="st0" d="M165.5,0.1v6.3h9.3c2.5,0,4.9,0.5,7.2,1.5l2.4-5.7c-3.1-1.2-6.3-1.9-9.6-1.9h-9.3V0.1z"/>
	<path class="st0" d="M131.2,100c0-3.5-2.8-6.3-6.3-6.3h-18.8V75.1c0-3.5-2.8-6.3-6.3-6.3l0,0c-3.5,0-6.3,2.8-6.3,6.3v18.8H75.1
		c-3.5,0-6.3,2.8-6.3,6.3l0,0l0,0c0,3.5,2.8,6.3,6.3,6.3h18.8v18.8c0,3.5,2.8,6.3,6.3,6.3c3.5,0,6.3-2.8,6.3-6.3v-18.8h18.8
		C128.4,106.3,131.2,103.5,131.2,100z"/>
</g>
</svg>
