<?xml version="1.0" encoding="utf-8"?>
<!-- Generator: Adobe Illustrator 22.0.0, SVG Export Plug-In . SVG Version: 6.00 Build 0)  -->
<svg version="1.1" id="layer_1" xmlns="http://www.w3.org/2000/svg" xmlns:xlink="http://www.w3.org/1999/xlink" x="0px" y="0px"
	 viewBox="0 0 200 200" style="enable-background:new 0 0 200 200;" xml:space="preserve">
<style type="text/css">
	.st0{fill:#16C4AF;}
	.st1{fill:#E5404F;}
	.st2{fill:#415267;}
</style>
<path class="st0" d="M195.1,145.5l-9.6-11.6l-58.4-58.3c-4.6-4.6-12.2-4.6-16.8,0l-32.9,32.8c-0.6,0.6-1.3,0.8-1.6,0.8
	c-0.4,0-1.1-0.1-1.6-0.8l-9-8.9c-4.6-4.6-12.2-4.6-16.8,0l-34.6,34.6L4,145.6V173c0,10.6,8.5,19.1,19.1,19.1h152.8
	c10.6,0,19.1-8.5,19.1-19.1V145.5"/>
<path class="st1" d="M36.7,50c0,10.8,8.8,19.6,19.6,19.6S75.8,60.8,75.8,50S67,30.4,56.2,30.4C45.4,30.4,36.7,39.2,36.7,50z"/>
<path class="st2" d="M174.3,0.1H25.5C11.4,0.1-0.1,11.6-0.1,25.7v148.8c0,14.1,11.5,25.6,25.6,25.6h148.8
	c14.1,0,25.6-11.5,25.6-25.6l0-148.8C199.9,11.6,188.4,0.1,174.3,0.1z M190.6,172.8c0,9.9-8.1,18-18,18H27.2c-9.9,0-18-8.1-18-18
	V27.4c0-9.9,8.1-18,18-18h145.4c9.9,0,18,8.1,18,18V172.8z"/>
</svg>
