<?xml version="1.0" encoding="utf-8"?>
<!-- Generator: Adobe Illustrator 22.0.0, SVG Export Plug-In . SVG Version: 6.00 Build 0)  -->
<svg version="1.1" id="layer_1" xmlns="http://www.w3.org/2000/svg" xmlns:xlink="http://www.w3.org/1999/xlink" x="0px" y="0px"
	 viewBox="0 0 200 200" style="enable-background:new 0 0 200 200;" xml:space="preserve">
<style type="text/css">
	.st0{fill:#415267;}
</style>
<path class="st0" d="M194.3,180c3.4,0,5.7,2.3,5.7,5.7s-2.3,5.7-5.7,5.7H5.7c-3.4,0-5.7-2.3-5.7-5.7s2.3-5.7,5.7-5.7
	C5.7,180,194.3,180,194.3,180z M194.3,140c3.4,0,5.7,2.3,5.7,5.7s-2.3,5.7-5.7,5.7H80c-3.4,0-5.7-2.3-5.7-5.7s2.3-5.7,5.7-5.7H194.3
	z M194.3,100c3.4,0,5.7,2.3,5.7,5.7s-2.3,5.7-5.7,5.7H5.7c-3.4,0-5.7-2.3-5.7-5.7s2.3-5.7,5.7-5.7C5.7,100,194.3,100,194.3,100z
	 M194.3,54.3c3.4,0,5.7,2.3,5.7,5.7s-2.3,5.7-5.7,5.7H80c-3.4,0-5.7-2.3-5.7-5.7s2.3-5.7,5.7-5.7H194.3z M194.3,8.6
	c3.4,0,5.7,2.3,5.7,5.7s-2.3,5.7-5.7,5.7H5.7C2.3,20,0,17.7,0,14.3s2.3-5.7,5.7-5.7C5.7,8.6,194.3,8.6,194.3,8.6z"/>
</svg>
