<?xml version="1.0" encoding="utf-8"?>
<!-- Generator: Adobe Illustrator 22.0.0, SVG Export Plug-In . SVG Version: 6.00 Build 0)  -->
<svg version="1.1" id="layer_1" xmlns="http://www.w3.org/2000/svg" xmlns:xlink="http://www.w3.org/1999/xlink" x="0px" y="0px"
	 viewBox="0 0 200 200" style="enable-background:new 0 0 200 200;" xml:space="preserve">
<style type="text/css">
	.st0{fill:#5FEFFF;}
	.st1{fill:#415267;}
</style>
<rect x="20.3" y="141" class="st0" width="33" height="52"/>
<rect x="78.9" y="112.3" class="st0" width="39" height="80.7"/>
<rect x="149" y="80.8" class="st0" width="31.8" height="114.7"/>
<path class="st1" d="M51.1,136.4H21.6c-4.4,0-7.9,3.6-8,8V192c0,4.4,3.6,7.9,8,8h29.5c4.4,0,7.9-3.6,8-8v-47.7
	C59.1,139.9,55.5,136.4,51.1,136.4z M50,190.9H22.7v-45.5H50L50,190.9z M114.8,109.1H85.2c-4.4,0-7.9,3.6-8,8v75c0,4.4,3.6,7.9,8,8
	h29.5c4.4,0,7.9-3.6,8-8v-75C122.7,112.7,119.2,109.1,114.8,109.1L114.8,109.1z M113.6,190.9H86.4v-72.7h27.3L113.6,190.9z
	 M178.4,72.7h-29.5c-4.4,0-7.9,3.6-8,8V192c0,4.4,3.6,7.9,8,8h29.5c4.4,0,7.9-3.6,8-8V80.7C186.4,76.3,182.8,72.7,178.4,72.7z
	 M177.3,190.9H150V81.8h27.3V190.9z M186.4,4.5v27.3c0,2.5-2,4.5-4.5,4.5c-2.5,0-4.5-2-4.5-4.5V15.5l-55.9,55.9
	c-1.8,1.8-4.7,1.8-6.4,0c0,0,0,0,0,0L90.9,47.3l-69.5,69.5c-1.8,1.8-4.7,1.8-6.4,0c-1.8-1.8-1.8-4.7,0-6.4l0,0l72.7-72.7
	c1.8-1.8,4.7-1.8,6.4,0c0,0,0,0,0,0l24.1,24.1l52.7-52.7h-16.3c-2.5,0-4.5-2-4.5-4.5s2-4.5,4.5-4.5h27.3c1.2,0,2.3,0.5,3.2,1.3l0,0
	C185.9,2.2,186.4,3.3,186.4,4.5z"/>
</svg>
