<?xml version="1.0" encoding="utf-8"?>
<!-- Generator: Adobe Illustrator 22.0.0, SVG Export Plug-In . SVG Version: 6.00 Build 0)  -->
<svg version="1.1" id="layer_1" xmlns="http://www.w3.org/2000/svg" xmlns:xlink="http://www.w3.org/1999/xlink" x="0px" y="0px"
	 viewBox="0 0 200 200" style="enable-background:new 0 0 200 200;" xml:space="preserve">
<style type="text/css">
	.st0{fill:#415267;}
	.st1{fill:#FF7E15;}
</style>
<path class="st0" d="M100,200c-1.2,0-2.4-0.6-3.2-1.5l-25.9-30H18.2C8.1,168.4,0,159,0,147.4V21.1C0,9.4,8.1,0,18.2,0h163.6
	c10,0,18.2,9.4,18.2,21.1v126.3c0,11.6-8.1,21-18.2,21.1h-52.7l-25.9,30C102.4,199.4,101.2,200,100,200z M18.2,10.5
	c-5,0-9.1,4.7-9.1,10.5v126.3c0,5.8,4.1,10.5,9.1,10.5h54.5c1.2,0,2.4,0.6,3.2,1.5l24.1,27.9l24.1-27.9c0.9-1,2-1.5,3.2-1.5h54.5
	c5,0,9.1-4.7,9.1-10.5V21.1c0-5.8-4.1-10.5-9.1-10.5L18.2,10.5z"/>
<path class="st1" d="M172.7,48.3c0,2.2-2.8,4-6.3,4H40.3c-3.5,0-6.3-1.8-6.3-4c0-2.2,2.8-4,6.3-4h126.1
	C169.9,44.3,172.7,46.1,172.7,48.3z"/>
<path class="st1" d="M172.7,84.4c0,2.2-2.8,4-6.3,4H40.3c-3.5,0-6.3-1.8-6.3-4s2.8-4,6.3-4h126.1C169.9,80.4,172.7,82.2,172.7,84.4z
	"/>
<path class="st1" d="M103.1,120.5c0,2.2-2.8,4-6.3,4H40.3c-3.5,0-6.3-1.8-6.3-4c0-2.2,2.8-4,6.3-4h56.5
	C100.3,116.5,103.1,118.3,103.1,120.5z"/>
</svg>
