<?xml version="1.0" standalone="no"?><!DOCTYPE svg PUBLIC "-//W3C//DTD SVG 1.1//EN" "http://www.w3.org/Graphics/SVG/1.1/DTD/svg11.dtd"><svg t="1660111867850" class="icon" viewBox="0 0 1024 1024" version="1.1" xmlns="http://www.w3.org/2000/svg" p-id="14883" xmlns:xlink="http://www.w3.org/1999/xlink" width="15" height="15"><defs><style type="text/css">@font-face { font-family: feedback-iconfont;   }
</style></defs><path d="M755.330958 336.707648l-20.329001 0 0 510.511089-67.077721 0L667.924235 336.707648 556.122917 336.707648l0 510.511089-67.081815 0L489.041102 336.707648 377.248993 336.707648l0 510.511089-67.077721 0L310.171272 336.707648l-42.688241 0c-50.514487 0-91.471294-0.728594-91.471294 0L176.011736 870.099864c0 49.105395 40.957831 88.914052 91.471294 88.914052l487.838717 0c50.52779 0 91.467201-39.808658 91.467201-88.914052L846.788949 336.707648C846.793042 332.960301 805.862841 336.707648 755.330958 336.707648L755.330958 336.707648zM890.73381 176.440501 690.283476 176.440501l0-54.552453c0-31.620162-56.511062-57.243749-89.446171-57.243749l-178.873923 0c-32.917714 0-89.432869 25.623587-89.432869 57.243749l0 54.552453-200.414519 0c-25.15389 0-45.537126 20.025079-45.537126 44.722574 0 24.684192 20.37812 44.709271 45.537126 44.709271l758.617817 0c25.127284 0 45.50131-20.025079 45.50131-44.709271C936.225911 196.46558 915.851884 176.440501 890.73381 176.440501L890.73381 176.440501zM600.841398 176.440501 421.972591 176.440501l0-22.35924 178.86983 0L600.842421 176.440501 600.841398 176.440501zM600.841398 176.440501" p-id="14884"></path></svg>