<?xml version="1.0" encoding="utf-8"?>
<!-- Generator: Adobe Illustrator 22.0.0, SVG Export Plug-In . SVG Version: 6.00 Build 0)  -->
<svg version="1.1" id="" xmlns="http://www.w3.org/2000/svg" xmlns:xlink="http://www.w3.org/1999/xlink" x="0px" y="0px"
	 viewBox="0 0 200 200" style="enable-background:new 0 0 200 200;" xml:space="preserve">
<style type="text/css">
	.st0{fill:#D1D5EA;}
	.st1{fill:#7E819D;}
</style>
<path class="st0" d="M168,200H32c-17.6,0-32-14.4-32-32V32C0,14.4,14.4,0,32,0h136c17.6,0,32,14.4,32,32v136
	C200,185.6,185.6,200,168,200z"/>
<path class="st1" d="M121.8,67.7c4,0.6,8.2-0.2,11.5,0.4c5.3,0.9,8,5.5,7.5,12.1h-6.5c-0.2,11.9-0.1,23.6-0.1,35.5
	c0,6,0.5,12.3-0.1,17.7c-0.6,5.1-4.3,8.2-8.9,9c-4.5,0.8-10.5,0.2-15.4,0.2c-10.4,0-21,0.2-31.1,0c-5-0.1-8.6-1.7-10.8-4.7
	c-2.2-3-2-7.5-2-12.9V80.2h-6.2c-1-6.2,1.7-10.6,6.2-12c3.3-1.1,7.7-0.2,12.4-0.5C77.9,61,78.3,56,84,55.3c2.5-0.3,5.9,0,9.1,0h18.1
	c3.5,0,7-0.3,8.8,1.2C122.3,58.6,121.7,63.5,121.8,67.7z M84.5,61.9v6h31.1v-6.3h-31C84.5,61.6,84.5,61.7,84.5,61.9z M78.4,80.9
	v37.9c0,3.2-0.7,10.1,1.2,11.5c0.8,0.6,2.8,0.6,3.7,0c2-1.4,1.3-8.1,1.3-11.4V80.6h-6.1C78.4,80.6,78.4,80.8,78.4,80.9z M96.9,80.9
	v36.7c0,2.9-0.7,9.8,0.5,11.7c0.8,1.3,3.4,1.9,4.7,0.9c1.8-1.4,1-8.6,1-11.6v-38H97C96.9,80.6,96.9,80.8,96.9,80.9z M115.6,80.9
	v38.4c0,3.9-0.8,10,1.8,11c1.1,0.5,3.1,0.1,3.6-0.3c1.7-1.4,0.9-8.7,0.9-11.6V80.6h-6.2C115.6,80.6,115.6,80.8,115.6,80.9z"/>
</svg>
