<?xml version="1.0" encoding="utf-8"?>
<!-- Generator: Adobe Illustrator 22.0.0, SVG Export Plug-In . SVG Version: 6.00 Build 0)  -->
<svg version="1.1" id="layer_1" xmlns="http://www.w3.org/2000/svg" xmlns:xlink="http://www.w3.org/1999/xlink" x="0px" y="0px"
	 viewBox="0 0 200 200" style="enable-background:new 0 0 200 200;" xml:space="preserve">
<style type="text/css">
	.st0{fill:#C26AFF;}
	.st1{fill:#4E4A6B;}
	.st2{fill:#FFCF1F;}
</style>
<rect x="44.2" y="62.3" transform="matrix(0.7073 0.707 -0.707 0.7073 94.8041 -55.9827)" class="st0" width="141.6" height="48.4"/>
<polygon class="st1" points="191.8,106.5 149.7,148.9 51,50.9 93.4,8.2 85.2,0.1 42.8,42.8 34.9,50.7 34.7,50.9 141.5,157.1 
	149.7,165.2 157.8,157 200,114.6 "/>
<path class="st1" d="M42,44.7l-1.7,1.7L0,199.9l152.4-39.7l2.5-0.8L42,44.7z M75.7,163l-39.3-38.2l14.8-57.6l82,80.6
	C133.2,147.8,75.7,163,75.7,163z"/>
<path class="st2" d="M153.2,199.2"/>
<rect x="88.7" y="122.2" transform="matrix(0.262 0.9651 -0.9651 0.262 208.1985 15.4126)" class="st0" width="10.7" height="43.2"/>
<path class="st0" d="M27.1,185.4c-4.5-4.4-8.9-8.7-13.4-13.1c2.3-6.9,4.6-13.9,6.9-20.8l27.1,27.1C40.8,180.8,33.9,183.1,27.1,185.4
	z"/>
</svg>
