<?xml version="1.0" encoding="utf-8"?>
<!-- Generator: Adobe Illustrator 22.0.0, SVG Export Plug-In . SVG Version: 6.00 Build 0)  -->
<svg version="1.1" id="layer_1" xmlns="http://www.w3.org/2000/svg" xmlns:xlink="http://www.w3.org/1999/xlink" x="0px" y="0px"
	 viewBox="0 0 200 200" style="enable-background:new 0 0 200 200;" xml:space="preserve">
<style type="text/css">
	.st0{fill:#415267;}
	.st1{fill:#6400AA;}
</style>
<g>
	<path class="st0" d="M190.7,127.4v45.2c0,9.9-8.1,18-18,18h-45.2v9.3h47c14.1,0,25.6-11.5,25.6-25.6v-47H190.7z"/>
	<path class="st0" d="M9.3,27.3c0-9.9,8.1-18,18-18h44.7V0H25.6C11.5,0,0,11.5,0,25.6v46.5h9.3V27.3z"/>
	<path class="st0" d="M127.4,9.3h45.2c9.9,0,18,8.1,18,18v44.7h9.3V25.6C200,11.5,188.5,0,174.4,0h-47V9.3z"/>
	<path class="st0" d="M27.3,190.7c-9.9,0-18-8.1-18-18v-45.2H0v47C0,188.5,11.5,200,25.6,200h46.5v-9.3H27.3z"/>
</g>
<path class="st1" d="M135.8,62.1c-3.3,0.5-6.5-1.6-7.3-4.8c0-0.4-1.1-8.9-8.1-8.9c-7.6,0-12.5,13-14.6,18.6l-0.6,1.5
	c-0.5,1.3-1.8,5.3-3.6,10.8h16.5c2.9-0.7,5.9,1,6.6,3.9c0.7,2.9-1,5.9-3.9,6.6c-0.9,0.2-1.8,0.2-2.7,0H98.2c-6,19-12,38-17.9,56.9
	c-3.6,8.8-12.3,14.5-21.8,14.3c-11.2,0.1-21.3-6.7-25.5-17.1c-0.7-2.8,1-5.7,3.8-6.4c0.3-0.1,0.6-0.1,0.9-0.1
	c3.3-0.9,6.8,0.6,8.4,3.6c2,5.3,6.8,9,12.5,9.5c3.9-0.4,7.3-3,8.8-6.7c1-3.2,10-32.1,16.9-54H64c-2.9,0.7-5.9-1-6.6-3.9
	c-0.7-2.9,1-5.9,3.9-6.6c0.9-0.2,1.8-0.2,2.7,0h23.7c2.2-6.9,3.9-12.1,4.6-13.8l0.5-1.4c3.2-8.5,9.9-26.2,27.6-26.2
	c11-0.6,20.5,7.6,21.6,18.5c-0.1,3.3-2.8,5.8-6.1,5.7C135.9,62.1,135.8,62.1,135.8,62.1z M114.4,142.1c0-1.7,0.9-3.2,2.2-4.3
	l14.4-13.2l-13.1-11.8c-2.7-1.8-3.4-5.4-1.7-8.1c1.4-2.1,4-3.1,6.4-2.4c2.8,0,5.5,1.1,7.4,3.2l10.4,10.8l10.6-10.8
	c1.8-1.9,4.3-3.1,6.9-3.2c3.5-0.5,6.9,1.9,7.4,5.4c-0.1,1.7-0.9,3.2-2.2,4.3l-13.7,12.4l14.1,12.6c2.7,1.8,3.4,5.4,1.7,8
	c-1.4,2.1-4,3.1-6.4,2.4c-2.8,0-5.5-1.1-7.4-3.2l-11.3-11.6l-11.3,11.6c-1.8,1.9-4.3,3.1-6.9,3.1C118.3,148,115,145.7,114.4,142.1
	L114.4,142.1z"/>
</svg>
