<?xml version="1.0" encoding="utf-8"?>
<!-- Generator: Adobe Illustrator 22.0.0, SVG Export Plug-In . SVG Version: 6.00 Build 0)  -->
<svg version="1.1" id="layer_1" xmlns="http://www.w3.org/2000/svg" xmlns:xlink="http://www.w3.org/1999/xlink" x="0px" y="0px"
	 viewBox="0 0 200 200" style="enable-background:new 0 0 200 200;" xml:space="preserve">
<style type="text/css">
	.st0{fill:#B4FFC7;}
	.st1{fill:#415267;}
</style>
<rect x="60.9" y="25.4" transform="matrix(0.7071 0.7071 -0.7071 0.7071 91.0202 -59.2568)" class="st0" width="112.3" height="109.7"/>
<path class="st1" d="M113,163l1,1c0.8,0.8,1.9,1.3,3.1,1.3c1.1,0,2.2-0.4,3.1-1.3l71.1-71.1c7.3-7.3,7.3-19.1,0-26.4l-61-61
	c-3.5-3.5-8.2-5.5-13.2-5.5s-9.7,1.9-13.2,5.5L32.8,76.6c-0.8,0.8-1.3,1.9-1.3,3.1c0,1.2,0.5,2.2,1.3,3.1l1,1l-23.4,23.4
	c-3.5,3.5-5.5,8.2-5.5,13.2s1.9,9.7,5.5,13.2l52.9,52.9c2.5,2.5,5.7,4.3,9.1,5H8.3c-2.4,0-4.3,1.9-4.3,4.3s1.9,4.3,4.3,4.3h175.4
	c2.4,0,4.3-1.9,4.3-4.3s-1.9-4.3-4.3-4.3H80.5c3.4-0.8,6.6-2.5,9.1-5L113,163L113,163z M110,11.6c3.9-3.9,10.3-3.9,14.2,0l61,61
	c1.9,1.9,3,4.4,3,7.1c0,2.7-1.1,5.2-3,7.1l-68.1,68.1l-1-1L42.9,80.7l-1-1C41.9,79.7,110,11.6,110,11.6z M76.5,183.2
	c-2.7,0-5.2-1.1-7.1-3l-52.9-52.9c-1.9-1.9-3-4.4-3-7.1c0-2.7,1.1-5.2,3-7.1l23.4-23.4l67.1,67.1l-23.4,23.4
	C81.7,182.2,79.1,183.2,76.5,183.2L76.5,183.2z"/>
</svg>
