<?xml version="1.0" encoding="utf-8"?>
<!-- Generator: Adobe Illustrator 22.0.0, SVG Export Plug-In . SVG Version: 6.00 Build 0)  -->
<svg version="1.1" id="isolation_mode" xmlns="http://www.w3.org/2000/svg" xmlns:xlink="http://www.w3.org/1999/xlink" x="0px"
	 y="0px" viewBox="0 0 200 200" style="enable-background:new 0 0 200 200;" xml:space="preserve">
<style type="text/css">
	.st0{fill:#415267;}
	.st1{fill:#E90006;}
</style>
<path class="st0" d="M200,100.4h-65.8c-7.5-4-18.4-8.6-32.7-13.8c-15.1-5.4-24.7-9.4-28.6-12.1C64,68.5,59.6,60.6,59.6,50.9
	c0-11.1,3.7-19.1,11.1-24.5c6.5-4.9,15.5-7,27.1-7c12.7,0,22.5,3.2,29.5,10.2c6.8,6.7,11.1,17,13.1,31H158
	c-1.5-20.2-7.4-35.6-17.9-45.8c-10-10-24-14.8-41.5-14.8C82.5,0,69.2,4.3,58.9,12.9C47.4,22.1,41.7,35.3,41.7,52
	c0,16.2,5.9,28.6,17.9,37.2c3.9,2.5,12,6.3,24.1,11.1H0v22.5h133.1c7,6.3,10.7,14.4,10.7,24.4c0,10.2-3.9,18.3-11.8,24.3
	c-7.9,5.9-18.3,8.9-31,8.9c-14,0-24.4-3.8-31.6-10.8c-7.9-7.8-12.7-20.2-14.2-36.9H37.6c1.3,23.7,8.1,41.2,20.3,52.8
	c10.5,9.7,24.9,14.6,43.2,14.6c18.6,0,33.2-4.9,44.1-14.3c10.9-9.7,16.4-23.2,16.4-39.9c0-8.6-1.6-16.3-4.8-23H200V100.4L200,100.4z
	"/>
<rect y="100" class="st1" width="200" height="23.1"/>
</svg>
