<?xml version="1.0" encoding="utf-8"?>
<!-- Generator: Adobe Illustrator 22.0.0, SVG Export Plug-In . SVG Version: 6.00 Build 0)  -->
<svg version="1.1" id="图层_1" xmlns="http://www.w3.org/2000/svg" xmlns:xlink="http://www.w3.org/1999/xlink" x="0px" y="0px"
	 viewBox="0 0 200 200" style="enable-background:new 0 0 200 200;" xml:space="preserve">
<style type="text/css">
	.st0{fill:#415267;}
</style>
<path class="st0" d="M187.3,124.9L134.9,21l14.4-7.7L142.9,0l-27.3,14.1L31.7,56.5C18.8,63,13.5,79,20.1,91.9l47.3,93.6
	c3.2,6.3,8.6,10.9,15.3,13.2c2.7,0.9,5.5,1.3,8.2,1.3c4.1,0,8.1-1,11.9-2.9l73-36.8c6.3-3.2,10.9-8.6,13.2-15.3
	C191.1,138.3,190.5,131.2,187.3,124.9L187.3,124.9z M38.7,70.3l82.6-41.7l52.1,103.3c1,1.8,1.3,3.7,1.1,5.8l-126.1-24L33.9,84.9
	C31.2,79.5,33.3,73,38.7,70.3z M41.9,173.5c0,8.9-7.2,16.1-16.1,16.1s-16.1-7.2-16.1-16.1c0-8.9,16.1-31.4,16.1-31.4
	S41.9,164.6,41.9,173.5z"/>
</svg>
