<?xml version="1.0" standalone="no"?><!DOCTYPE svg PUBLIC "-//W3C//DTD SVG 1.1//EN" "http://www.w3.org/Graphics/SVG/1.1/DTD/svg11.dtd"><svg t="1660041553898" class="icon" viewBox="0 0 1024 1024" version="1.1" xmlns="http://www.w3.org/2000/svg" p-id="3712" xmlns:xlink="http://www.w3.org/1999/xlink" width="15" height="15"><defs><style type="text/css">@font-face { font-family: feedback-iconfont;   }
</style></defs><path d="M845.312 214.016c-17.408 0-34.304 4.608-48.128 12.8v-61.44c0-53.248-43.52-96.768-96.768-96.768-19.968 0-38.4 6.144-53.76 16.384C633.344 47.616 597.504 20.48 555.008 20.48S477.184 47.616 463.872 84.992c-15.36-10.24-33.792-16.384-53.76-16.384-53.248 0-96.768 43.52-96.768 96.768V522.24L248.32 409.6c-12.8-23.04-33.28-39.424-57.856-46.08-24.064-6.656-49.152-3.072-70.656 9.728-44.032 26.112-60.416 86.016-37.376 132.608 1.536 3.072 32.256 66.048 128.512 258.56 45.568 90.624 95.232 155.648 147.968 192.512 41.472 29.184 70.144 30.72 75.264 30.72H675.84c40.96 0 79.36-13.312 113.664-39.936 32.256-24.576 60.416-60.928 82.944-106.496 45.056-90.112 69.12-215.04 69.12-361.472v-168.96c0.512-53.76-43.008-96.768-96.256-96.768z m48.64 265.728c0 138.752-22.016 256-64 339.968-27.136 54.784-76.288 119.808-153.6 119.808H434.688c-2.048 0-22.016-2.56-52.736-25.6-30.72-23.04-77.824-71.168-127.488-171.008-97.792-196.096-128-257.536-128.512-258.56-12.288-24.576-3.584-56.32 18.944-69.632 10.24-6.144 22.016-7.68 33.28-4.608 12.288 3.072 22.016 11.264 28.16 23.04 0 0 0 0.512 0.512 0.512l75.264 130.56c15.36 28.16 32.768 39.936 51.712 35.328 18.944-4.608 28.16-23.552 28.16-55.808V165.376c0-26.624 21.504-48.128 48.128-48.128s48.128 21.504 48.128 48.128v314.368c0 13.312 10.752 24.064 24.064 24.064s24.064-10.752 24.064-24.064V117.248c0-26.624 21.504-48.128 48.128-48.128s48.128 21.504 48.128 48.128v362.496c0 13.312 10.752 24.064 24.064 24.064s24.064-10.752 24.064-24.064V165.376c0-26.624 21.504-48.128 48.128-48.128s48.128 21.504 48.128 48.128v362.496c0 13.312 10.752 24.064 24.064 24.064s24.064-10.752 24.064-24.064V310.784c0-26.624 21.504-48.128 48.128-48.128s48.128 21.504 48.128 48.128l2.56 168.96z" p-id="3713"></path></svg>