<?xml version="1.0" encoding="utf-8"?>
<!-- Generator: Adobe Illustrator 22.0.0, SVG Export Plug-In . SVG Version: 6.00 Build 0)  -->
<svg version="1.1" id="layer_1" xmlns="http://www.w3.org/2000/svg" xmlns:xlink="http://www.w3.org/1999/xlink" x="0px" y="0px"
	 viewBox="0 0 200 200" style="enable-background:new 0 0 200 200;" xml:space="preserve">
<style type="text/css">
	.st0{fill:#415267;}
	.st1{fill:#4E4A6B;}
	.st2{fill:#FFEDAA;}
	.st3{fill:#BFFFC2;}
	.st4{fill:#FFFFFF;}
</style>
<path class="st0" d="M174.4,0H25.6C11.5,0,0,11.5,0,25.6v148.8C0,188.5,11.5,200,25.6,200h148.8c14.1,0,25.6-11.5,25.6-25.6l0-148.8
	C200,11.5,188.5,0,174.4,0z"/>
<path class="st1" d="M190.7,106.7"/>
<path class="st2" d="M190.8,57.9H9.4V27.6c0-9.9,8.1-18,18-18h145.4c9.9,0,18,8.1,18,18V57.9z"/>
<path class="st3" d="M172.8,191.2H27.4c-9.9,0-18-8.1-18-18V147h181.4v26.3C190.8,183.1,182.7,191.2,172.8,191.2z"/>
<rect x="9.4" y="64.9" class="st4" width="181.4" height="74.6"/>
</svg>
