<?xml version="1.0" encoding="utf-8"?>
<!-- Generator: Adobe Illustrator 22.0.0, SVG Export Plug-In . SVG Version: 6.00 Build 0)  -->
<svg version="1.1" id="layer_1" xmlns="http://www.w3.org/2000/svg" xmlns:xlink="http://www.w3.org/1999/xlink" x="0px" y="0px"
	 viewBox="0 0 200 200" style="enable-background:new 0 0 200 200;" xml:space="preserve">
<style type="text/css">
	.st0{fill:#FFCF1F;}
	.st1{fill:#415267;}
</style>
<rect x="60.6" y="54.4" transform="matrix(0.7957 0.6057 -0.6057 0.7957 70.9832 -59.01)" class="st0" width="124.7" height="42.7"/>
<path class="st0" d="M51.7,94.6L5,156.1c-2.4,3.2,0.2,8.6,5,10.4l70.3,22c3.7,1.3,7.3,0.7,9.1-1.7l29.1-38.3
	C118.3,148.4,51.7,94.6,51.7,94.6z"/>
<path class="st1" d="M200.2,89.6l-8.4-6.4l-34,44.7l-4.7-3.5l0,0L63.3,56.1l0,0L61,54.3l32.8-43l-8.4-6.4l-38.1,50l5.8,4.4
	L37.6,79.8l-3.1,4l0,0l0,0l4.2,3.1l8.6,6.5L1.7,153.3c-1.9,2.4-2,5.9-0.3,9.3c1.6,3.3,4.8,6.2,8.5,7.5l0.1,0.1l70.3,22
	c5.3,1.9,10.5,0.9,13.2-2.6c9.3-12.2,19.7-26,29.2-38.6l11,8.4l0,0l0.6,0.4l19.8-26.2l8.1,6.2L200.2,89.6z M88.7,182.1
	c-2.2,2.9-6.5,3.8-10.9,2.2l-57.9-18.1l-0.1,0c-3-1.1-5.6-3.5-7-6.2c-1.4-2.8-1.2-5.6,0.3-7.6l40.3-53l3.1,2.5
	c19.3,15.5,58.9,45,58.9,45C106.9,158,97.2,170.9,88.7,182.1z M133,151L43.2,82.6l16.3-21.6l89.8,68.4L133,151z"/>
</svg>
