<?xml version="1.0" encoding="utf-8"?>
<!-- Generator: Adobe Illustrator 22.0.0, SVG Export Plug-In . SVG Version: 6.00 Build 0)  -->
<svg version="1.1" id="layer_1" xmlns="http://www.w3.org/2000/svg" xmlns:xlink="http://www.w3.org/1999/xlink" x="0px" y="0px"
	 viewBox="0 0 200 200" style="enable-background:new 0 0 200 200;" xml:space="preserve">
<style type="text/css">
	.st0{opacity:0.4;fill:#FF8E55;}
	.st1{fill:none;stroke:#415267;stroke-width:5;stroke-miterlimit:10;}
	.st2{fill:none;stroke:#415267;stroke-width:5;stroke-miterlimit:10;stroke-dasharray:11.6627,11.6627;}
	.st3{fill:none;stroke:#415267;stroke-width:5;stroke-miterlimit:10;stroke-dasharray:10.5007,10.5007;}
	.st4{fill:#FF8E55;}
	.st5{fill:#415267;}
</style>
<rect x="7.3" y="133.6" class="st0" width="186.9" height="62.1"/>
<g>
	<g>
		<polyline class="st1" points="194.2,192.1 194.2,198.1 188.2,198.1 		"/>
		<line class="st2" x1="176.6" y1="198.1" x2="19.1" y2="198.1"/>
		<polyline class="st1" points="13.3,198.1 7.3,198.1 7.3,192.1 		"/>
		<line class="st3" x1="7.3" y1="181.6" x2="7.3" y2="144.8"/>
		<polyline class="st1" points="7.3,139.6 7.3,133.6 13.3,133.6 		"/>
		<line class="st2" x1="24.9" y1="133.6" x2="182.4" y2="133.6"/>
		<polyline class="st1" points="188.2,133.6 194.2,133.6 194.2,139.6 		"/>
		<line class="st3" x1="194.2" y1="150.1" x2="194.2" y2="186.8"/>
	</g>
</g>
<rect x="73.9" y="41.8" transform="matrix(0.7957 0.6057 -0.6057 0.7957 61.7575 -63.9945)" class="st4" width="103.8" height="35.5"/>
<path class="st4" d="M66.5,75.3l-38.9,51.1c-2,2.7,0.2,7.2,4.2,8.7l58.5,18.3c3.1,1.1,6,0.6,7.6-1.5l24.2-31.8
	C121.9,120,66.5,75.3,66.5,75.3z"/>
<path class="st5" d="M190,71.1l-7-5.3L154.7,103l-3.9-2.9l0,0L76.1,43.2l0,0l-1.9-1.4l27.3-35.8l-7-5.3L62.8,42.2l4.8,3.7L54.7,62.9
	l-2.6,3.4l0,0l0,0l3.5,2.6l7.1,5.4l-37.9,49.7c-1.5,2-1.7,4.9-0.3,7.7c1.4,2.8,4,5.1,7,6.3l0.1,0l58.5,18.3c4.4,1.6,8.8,0.7,11-2.2
	c7.8-10.2,16.4-21.7,24.3-32.1l9.2,7l0,0l0.5,0.3l16.5-21.8l6.7,5.1L190,71.1z M97.2,148.1c-1.8,2.4-5.4,3.1-9,1.8l-48.2-15.1
	l-0.1,0c-2.5-0.9-4.7-2.9-5.8-5.2c-1.1-2.3-1-4.7,0.2-6.4l33.6-44.1l2.6,2.1c16.1,12.9,49,37.4,49,37.4
	C112.3,128,104.3,138.7,97.2,148.1z M134.1,122.2L59.4,65.3l13.5-17.9l74.7,56.9L134.1,122.2z"/>
</svg>
