<?xml version="1.0" standalone="no"?><!DOCTYPE svg PUBLIC "-//W3C//DTD SVG 1.1//EN" "http://www.w3.org/Graphics/SVG/1.1/DTD/svg11.dtd"><svg t="1660041700564" class="icon" viewBox="0 0 1118 1024" version="1.1" xmlns="http://www.w3.org/2000/svg" p-id="4012" xmlns:xlink="http://www.w3.org/1999/xlink" width="16.376953125" height="15"><defs><style type="text/css">@font-face { font-family: feedback-iconfont;   }
</style></defs><path d="M144.896 528.896c-1.024-51.712 6.656-103.936 22.016-154.112C245.76 116.224 513.024-30.72 763.904 46.08s390.144 348.16 311.296 606.208c-78.848 258.048-346.112 404.992-596.992 328.704-74.24-22.528-140.8-63.488-194.56-117.76-12.8-12.8-12.8-33.792 0-46.592s33.28-13.312 46.08-0.512c46.592 47.104 103.424 81.92 167.936 101.376 216.576 66.048 447.488-60.928 515.584-284.16s-52.224-457.728-268.8-523.776S296.96 169.984 228.864 393.216c-13.824 45.056-19.968 91.648-18.944 137.728l80.896-80.896c12.288-12.288 32.768-12.288 45.568 0.512s12.8 32.768 0.512 45.568l-126.464 126.464c-1.536 3.584-3.584 6.656-6.656 9.728-12.288 12.288-32.768 12.288-45.568-0.512l-138.24-138.24c-12.8-12.8-12.8-32.768-0.512-45.568 12.288-12.288 32.768-12.288 45.568 0.512l79.872 80.384z" p-id="4013" fill="#2c2c2c"></path></svg>