<?xml version="1.0" encoding="utf-8"?>
<!-- Generator: Adobe Illustrator 22.0.0, SVG Export Plug-In . SVG Version: 6.00 Build 0)  -->
<svg version="1.1" id="layer_1" xmlns="http://www.w3.org/2000/svg" xmlns:xlink="http://www.w3.org/1999/xlink" x="0px" y="0px"
	 viewBox="0 0 200 200" style="enable-background:new 0 0 200 200;" xml:space="preserve">
<style type="text/css">
	.st0{fill:#415267;}
</style>
<path class="st0" d="M126.6,107.1l7.1-7L36.5,2.9C32.6-1,26.3-1,22.4,2.9c-3.9,3.9-3.9,10.2-0.1,14.1c0,0,0,0,0,0l83,83l-83,83
	c-3.9,3.9-3.9,10.1,0,14c0,0,0,0,0,0c3.9,3.9,10.2,3.9,14.1,0l89.7-89.6L126.6,107.1L126.6,107.1z"/>
<path class="st0" d="M180.5,191.9V8.1c0-4.5-3.6-8.1-8.1-8.1s-8.1,3.6-8.1,8.1v183.8c0,4.5,3.6,8.1,8.1,8.1S180.5,196.4,180.5,191.9
	z"/>
</svg>
