<?xml version="1.0" encoding="utf-8"?>
<!-- Generator: Adobe Illustrator 22.0.0, SVG Export Plug-In . SVG Version: 6.00 Build 0)  -->
<svg version="1.1" id="layer_1" xmlns="http://www.w3.org/2000/svg" xmlns:xlink="http://www.w3.org/1999/xlink" x="0px" y="0px"
	 viewBox="0 0 200 200" style="enable-background:new 0 0 200 200;" xml:space="preserve">
<style type="text/css">
	.st0{fill:#415267;}
	.st1{fill:#E96900;}
</style>
<path class="st0" d="M50.3,28.6c0-2.2,3.1-4,6.8-4h136.1c3.8,0,6.8,1.8,6.8,4s-3.1,4-6.8,4H57.1C53.3,32.6,50.3,30.8,50.3,28.6z
	 M50.3,175.5c0-2.2,3.1-4,6.8-4h136.1c3.8,0,6.8,1.8,6.8,4s-3.1,4-6.8,4H57.1C53.3,179.5,50.3,177.7,50.3,175.5z M50.3,99
	c0-2.2,3.1-4,6.8-4h136.1c3.8,0,6.8,1.8,6.8,4s-3.1,4-6.8,4H57.1C53.3,103,50.3,101.2,50.3,99z"/>
<path class="st1" d="M15.3,148.5c5.1,0,9,1.1,11.9,3.4c2.8,2.3,4.3,5.3,4.3,8.9c0,6.5-3.3,10.6-9.9,12.2v0.2
	c3.5,0.4,6.3,1.7,8.3,3.8c2,2.1,3,4.7,3,7.8c0,4.6-1.7,8.3-5.1,11c-3.4,2.7-8.1,4.1-14.1,4.1c-5.1,0-9.3-0.8-12.5-2.5v-9.5
	c3.3,2.4,7.2,3.7,11.7,3.7c2.8,0,5-0.6,6.5-1.8c1.6-1.2,2.4-3.1,2.3-5c0.1-2.1-1.1-4.1-2.9-5.1c-1.9-1.2-4.6-1.8-8-1.8H6.2v-8.4h4.3
	c6.5,0,9.7-2.2,9.7-6.5c0-4-2.5-6.1-7.5-6.1c-3.3,0-6.6,1.1-9.7,3.2v-9C6.5,149.4,10.6,148.5,15.3,148.5L15.3,148.5z"/>
<path class="st1" d="M17,72.3c2.5,0,4.8,0.3,6.8,1c2,0.7,3.7,1.6,5.1,2.8c1.4,1.2,2.5,2.7,3.2,4.5c0.7,1.7,1.1,3.7,1.1,5.8
	c0,2.3-0.3,4.3-1.1,6.1c-0.7,1.8-1.6,3.4-2.8,4.9c-1.2,1.5-2.5,2.8-4,4l-2.3,1.8l-2.4,1.7c-1.1,0.8-2.2,1.6-3.2,2.3
	c-1,0.8-1.9,1.5-2.7,2.3c-0.7,0.7-1.3,1.4-1.9,2.2c-0.4,0.6-0.7,1.3-0.7,2h21.1v9.1H0v-3.8c0-2.5,0.4-4.8,1.3-6.8
	c0.9-2,1.9-3.8,3.2-5.5c1.3-1.6,2.7-3,4.3-4.3c1-0.8,2-1.6,3-2.3l1.4-1c1.5-1,2.7-2,3.8-3c1.1-0.9,2-1.9,2.8-2.8
	c0.8-0.9,1.3-1.9,1.7-2.8c0.4-1,0.6-2,0.6-3.1c0-2.1-0.6-3.7-1.8-4.8c-1.2-1.1-3-1.6-5.5-1.6c-4.3,0-8.4,1.7-12.3,5.1v-9.6
	C6.7,73.7,11.8,72.3,17,72.3z"/>
<path class="st1" d="M24.5,0v50.9H13.5V12.4c-0.7,0.6-1.4,1.1-2.1,1.5c-1.7,1-3.6,1.8-5.5,2.3c-1,0.3-2,0.4-2.9,0.6V7.5
	C8.3,5.9,13.4,3.4,17.8,0L24.5,0L24.5,0z"/>
</svg>
