<?xml version="1.0" encoding="utf-8"?>
<!-- Generator: Adobe Illustrator 22.0.0, SVG Export Plug-In . SVG Version: 6.00 Build 0)  -->
<svg version="1.1" id="layer_1" xmlns="http://www.w3.org/2000/svg" xmlns:xlink="http://www.w3.org/1999/xlink" x="0px" y="0px"
	 viewBox="0 0 200 200" style="enable-background:new 0 0 200 200;" xml:space="preserve">
<style type="text/css">
	.st0{fill:#415267;}
</style>
<path class="st0" d="M174.4,0H25.6C11.5,0,0,11.5,0,25.6v148.8C0,188.5,11.5,200,25.6,200h148.8c14.1,0,25.6-11.5,25.6-25.6l0-148.8
	C200,11.5,188.5,0,174.4,0z M190.7,27.3v7.5H162V9.3h10.7C182.6,9.3,190.7,17.4,190.7,27.3z M50.5,42.9H153v113H50.5V42.9z
	 M41.5,156H9.3v-113h32.2V156z M50.5,34.8V9.3H153v25.5H50.5z M162,42.9h28.7v113H162V42.9z M27.3,9.3h14.2v25.5H9.3v-7.5
	C9.3,17.4,17.4,9.3,27.3,9.3z M9.3,172.7V166h32.2v24.7H27.3C17.4,190.7,9.3,182.6,9.3,172.7z M50.5,190.7V166H153v24.7H50.5z
	 M172.7,190.7H162V166h28.7v6.7C190.7,182.6,182.6,190.7,172.7,190.7z"/>
</svg>
