<?xml version="1.0" encoding="utf-8"?>
<!-- Generator: Adobe Illustrator 22.0.0, SVG Export Plug-In . SVG Version: 6.00 Build 0)  -->
<svg version="1.1" id="layer_1" xmlns="http://www.w3.org/2000/svg" xmlns:xlink="http://www.w3.org/1999/xlink" x="0px" y="0px"
	 viewBox="0 0 200 200" style="enable-background:new 0 0 200 200;" xml:space="preserve">
<style type="text/css">
	.st0{fill:#415267;}
	.st1{fill:#6376DC;}
</style>
<path class="st0" d="M174.3,0.2H25.6C11.5,0.2,0,11.6,0,25.7v148.7C0,188.5,11.5,200,25.6,200h148.7c14.1,0,25.6-11.5,25.6-25.6
	l0-148.7C199.8,11.6,188.4,0.2,174.3,0.2z M190.5,172.7c0,9.9-8.1,18-18,18H27.3c-9.9,0-18-8.1-18-18V27.5c0-9.9,8.1-18,18-18h145.2
	c9.9,0,18,8.1,18,18V172.7z"/>
<path class="st1" d="M48.5,60.9H113v8.7H48.5V60.9z M48.5,95.7H156v8.7H48.5V95.7z M48.5,130.4H156v8.7H48.5V130.4z"/>
</svg>
