<?xml version="1.0" encoding="utf-8"?>
<!-- Generator: Adobe Illustrator 22.0.0, SVG Export Plug-In . SVG Version: 6.00 Build 0)  -->
<svg version="1.1" id="layer_1" xmlns="http://www.w3.org/2000/svg" xmlns:xlink="http://www.w3.org/1999/xlink" x="0px" y="0px"
	 viewBox="0 0 200 200" style="enable-background:new 0 0 200 200;" xml:space="preserve">
<style type="text/css">
	.st0{fill:#415267;}
</style>
<path class="st0" d="M121.3,200H18.2c-7.6,0-13.7-6.1-13.7-13.7V71.6c0-7.6,6.1-13.7,13.7-13.7h85.3c2,0,3.8,1.8,3.8,3.8
	c0,2-1.8,3.8-3.8,3.8H18.2c-3.6,0-6.3,2.8-6.3,6.1V186c0,3.3,2.8,6.1,6.1,6.1h103.3c3.3,0,6.1-2.8,6.1-6.1V87.5c0-2,1.8-3.8,3.8-3.8
	c2,0,3.8,1.8,3.8,3.8v98.7C135.3,193.9,128.9,200,121.3,200L121.3,200z"/>
<path class="st0" d="M131.5,91.4h-18c-7.6,0-13.7-6.1-13.7-13.7v-16c0-1.5,1-2.8,2.3-3.6c1.3-0.5,3-0.3,4.1,0.8L134,84.8
	c1.3,1,1.5,2.8,1,4.1C134.3,90.3,133,91.4,131.5,91.4L131.5,91.4z M107.3,70.3v7.1c0,3.3,2.8,6.1,6.1,6.1h8.1L107.3,70.3z"/>
<path class="st0" d="M171.9,0c-2.1,0-3.7,1.7-3.7,3.7v19.4H12V3.7C12,1.7,10.3,0,8.3,0S4.5,1.7,4.5,3.7v38.9c0,2.1,1.7,3.7,3.7,3.7
	s3.7-1.7,3.7-3.7V30.7h156.2v11.9c0,2.1,1.7,3.7,3.7,3.7s3.7-1.7,3.7-3.7V3.7C175.7,1.7,174,0,171.9,0z"/>
<path class="st0" d="M195.5,196.9c0-1.7-1.7-3.1-3.7-3.1h-19.4V64.1h19.4c2.1,0,3.7-1.4,3.7-3.1s-1.7-3.1-3.7-3.1h-38.9
	c-2.1,0-3.7,1.4-3.7,3.1s1.7,3.1,3.7,3.1h11.9v129.7h-11.9c-2.1,0-3.7,1.4-3.7,3.1s1.7,3.1,3.7,3.1h38.9
	C193.8,200,195.5,198.6,195.5,196.9z"/>
</svg>
