<?xml version="1.0" encoding="utf-8"?>
<!-- Generator: Adobe Illustrator 22.0.0, SVG Export Plug-In . SVG Version: 6.00 Build 0)  -->
<svg version="1.1" id="layer_1" xmlns="http://www.w3.org/2000/svg" xmlns:xlink="http://www.w3.org/1999/xlink" x="0px" y="0px"
	 viewBox="0 0 200 200" style="enable-background:new 0 0 200 200;" xml:space="preserve">
<style type="text/css">
	.st0{fill:#394E65;}
	.st1{fill:#0EAA00;}
	.st2{fill:#293F58;}
</style>
<path class="st0" d="M33.6,148.1H17.1c-4.5,0-8.2-3.7-8.2-8.2V61.2v0V16.5c0-4.5,3.7-8.2,8.2-8.2h119.1c4.5,0,8.2,3.7,8.2,8.2v9.9
	h8.2V15.6C152.6,7,145.6,0,137,0L96.7,0h0H16.2C7.6,0,0.6,7,0.6,15.6v125.1c0,8.6,7,15.6,15.6,15.6h17.4V148.1z"/>
<path class="st0" d="M140.9,195.7c0-2.3-1.8-4.1-4.1-4.1h0h0h0h-73c-4.5,0-8.2-3.7-8.2-8.2v-78.7v0V59.9c0-4.5,3.7-8.2,8.2-8.2
	h119.1c4.5,0,8.2,3.7,8.2,8.2v79.5c0,2.3,1.8,4.1,4.1,4.1c2.3,0,4.1-1.8,4.1-4.1V59.1c0-8.6-7-15.6-15.6-15.6l-40.3,0h0H63
	c-8.6,0-15.6,7-15.6,15.6v125.1c0,8.6,7,15.6,15.6,15.6h73.8C139.1,199.8,140.9,198,140.9,195.7"/>
<g>
	<path class="st1" d="M108.4,160.4v-4.5c13.4-0.9,14.1-1.9,14.1-12.6V98.5c0-7.3-0.4-7.8-6.8-8.1l-7.3-0.2v-3.9
		c9.4-1.6,17.6-4.3,25-7.5v64.5c0,10.8,0.9,11.7,14.6,12.6v4.5H108.4z"/>
</g>
<path class="st2" d="M162.5,195.9c0-2.3,1.5-4.1,3.4-4.1H196c1.9,0,3.4,1.8,3.4,4.1c0,2.3-1.5,4.1-3.4,4.1h-30.1
	C164,200,162.5,198.2,162.5,195.9z"/>
<path class="st2" d="M162.5,168.2c0-2.3,1.5-4.1,3.4-4.1H196c1.9,0,3.4,1.8,3.4,4.1c0,2.3-1.5,4.1-3.4,4.1h-30.1
	C164,172.3,162.5,170.5,162.5,168.2z"/>
</svg>
