<?xml version="1.0" standalone="no"?><!DOCTYPE svg PUBLIC "-//W3C//DTD SVG 1.1//EN" "http://www.w3.org/Graphics/SVG/1.1/DTD/svg11.dtd"><svg t="1660041823963" class="icon" viewBox="0 0 1025 1024" version="1.1" xmlns="http://www.w3.org/2000/svg" p-id="4404" xmlns:xlink="http://www.w3.org/1999/xlink" width="15.0146484375" height="15"><defs><style type="text/css">@font-face { font-family: feedback-iconfont;   }
</style></defs><path d="M512 0C229.376 0 0 229.376 0 512c0 271.872 211.968 494.592 480.256 510.976 10.752 0.512 21.504 1.024 32.256 1.024s21.504-0.512 32.256-1.024c267.776-16.384 480.256-239.104 480.256-510.976C1024 229.376 794.624 0 512 0z m-31.744 941.568c0 9.728-8.192 16.896-17.92 15.872-43.008-4.608-84.48-15.36-124.416-32.256-53.248-22.528-101.376-54.784-142.336-96.256-40.96-40.96-73.728-89.088-96.256-142.336-23.552-55.296-35.328-113.664-35.328-174.592s11.776-119.296 35.328-174.592c22.528-53.248 54.784-101.376 96.256-142.336 40.96-40.96 89.088-73.728 142.336-96.256 39.936-16.896 81.92-27.648 124.416-32.256 9.728-1.024 17.92 6.656 17.92 15.872-0.512 0-0.512 859.136 0 859.136z" p-id="4405"></path></svg>