<?xml version="1.0" encoding="utf-8"?>
<!-- Generator: Adobe Illustrator 22.0.0, SVG Export Plug-In . SVG Version: 6.00 Build 0)  -->
<svg version="1.1" id="layer_1" xmlns="http://www.w3.org/2000/svg" xmlns:xlink="http://www.w3.org/1999/xlink" x="0px" y="0px"
	 viewBox="0 0 200 200" style="enable-background:new 0 0 200 200;" xml:space="preserve">
<style type="text/css">
	.st0{fill:#F47F82;}
	.st1{fill:#94CAFF;}
	.st2{fill:#415267;}
</style>
<path class="st0" d="M82.8,92.9H11.7c-5.5,0-10-4.5-10-10V11.8c0-5.5,4.5-10,10-10h71.2c5.5,0,10,4.5,10,10v71.2
	C92.8,88.4,88.3,92.9,82.8,92.9z"/>
<path class="st1" d="M188.3,198.7h-71.2c-5.5,0-10-4.5-10-10v-71.2c0-5.5,4.5-10,10-10h71.2c5.5,0,10,4.5,10,10v71.2
	C198.3,194.2,193.8,198.7,188.3,198.7z"/>
<path class="st2" d="M65.9,181.1l1.3-7.4C38.7,166.4,18,142,15.4,112.7H28c2.6,23.1,19,42.3,41.4,48.5l1.9-10.6l23.6,19.9
	L65.9,181.1z"/>
<path class="st2" d="M140.4,18.8l-1.3,7.4c28.4,7.2,49.2,31.6,51.8,60.9h-12.6c-2.6-23.1-19-42.3-41.4-48.5l-1.9,10.6l-23.6-19.9
	L140.4,18.8z"/>
<path class="st2" d="M82.4,0.1H12.1C5.4,0.1,0,5.5,0,12.2v70.3c0,6.7,5.4,12.1,12.1,12.1h70.3c6.7,0,12.1-5.4,12.1-12.1l0-70.3
	C94.5,5.5,89.1,0.1,82.4,0.1z M90.1,81.7c0,4.7-3.8,8.5-8.5,8.5H12.9c-4.7,0-8.5-3.8-8.5-8.5V13c0-4.7,3.8-8.5,8.5-8.5h68.7
	c4.7,0,8.5,3.8,8.5,8.5V81.7z"/>
<path class="st2" d="M187.9,105.5h-70.3c-6.7,0-12.1,5.4-12.1,12.1v70.3c0,6.7,5.4,12.1,12.1,12.1h70.3c6.7,0,12.1-5.4,12.1-12.1
	l0-70.3C200,110.9,194.6,105.5,187.9,105.5z M195.6,187.1c0,4.7-3.8,8.5-8.5,8.5h-68.7c-4.7,0-8.5-3.8-8.5-8.5v-68.7
	c0-4.7,3.8-8.5,8.5-8.5h68.7c4.7,0,8.5,3.8,8.5,8.5V187.1z"/>
</svg>
