<?xml version="1.0" standalone="no"?><!DOCTYPE svg PUBLIC "-//W3C//DTD SVG 1.1//EN" "http://www.w3.org/Graphics/SVG/1.1/DTD/svg11.dtd"><svg t="1660040784733" class="icon" viewBox="0 0 1024 1024" version="1.1" xmlns="http://www.w3.org/2000/svg" p-id="3182" xmlns:xlink="http://www.w3.org/1999/xlink" width="15" height="15"><defs><style type="text/css">@font-face { font-family: feedback-iconfont;   }
</style></defs><path d="M609.28 396.8H193.536l201.728-199.168c17.92-17.92 17.92-43.008 0-60.928s-41.472-18.432-59.392-1.024L62.976 402.432c-17.92 17.92-17.92 41.472 0 59.392l273.408 267.264c17.92 17.92 41.472 17.92 59.392 0s17.92-40.96 0-58.88L193.536 474.112H609.28c166.4 0 311.296 129.536 311.296 289.792v41.472c0 23.552 14.848 41.472 38.912 41.472s38.912-17.92 38.912-41.472v-41.472c-0.512-207.36-175.616-367.104-389.12-367.104z" p-id="3183" fill="#bfbfbf"></path></svg>