<?xml version="1.0" encoding="utf-8"?>
<!-- Generator: Adobe Illustrator 22.0.0, SVG Export Plug-In . SVG Version: 6.00 Build 0)  -->
<svg version="1.1" id="isolation_mode" xmlns="http://www.w3.org/2000/svg" xmlns:xlink="http://www.w3.org/1999/xlink" x="0px"
	 y="0px" viewBox="0 0 200 200" style="enable-background:new 0 0 200 200;" xml:space="preserve">
<style type="text/css">
	.st0{fill:#415267;}
	.st1{fill:#83AB01;}
	.st2{fill:#5D6F81;}
</style>
<path class="st0" d="M10,65.9V5.5c0-2.3,2.2-4.2,5-4.2c2.8,0,5,1.9,5,4.2v60.4c0,1.2,1.1,2.1,2.5,2.1h155c1.4,0,2.5-2.1,2.5-2.1V5.5
	c0-2.3,2.2-4.2,5-4.2s5,1.9,5,4.2v60.4c0,5.8-5.6,10.4-12.5,10.4h-155C15.6,76.3,10,71.7,10,65.9z"/>
<path class="st0" d="M177.5,132h-155c-6.9,0-12.5,4.7-12.5,10.4v52.1c0,2.3,2.2,4.2,5,4.2c2.8,0,5-1.9,5-4.2v-52.1
	c0-1.2,1.1-2.1,2.5-2.1h0h155c1.4,0,2.5,0.9,2.5,2.1c0,0,0,0,0,0v52.1c0,2.3,2.2,4.2,5,4.2s5-1.9,5-4.2v-52.1
	C190,136.7,184.4,132,177.5,132L177.5,132z"/>
<path class="st1" d="M95,100c-2.8,0-5,1.9-5,4.2c0,2.3,2.2,4.2,5,4.2h10c2.8,0,5-1.9,5-4.2c0-2.3-2.2-4.2-5-4.2H95z"/>
<path class="st1" d="M125,100c-2.8,0-5,1.9-5,4.2c0,2.3,2.2,4.2,5,4.2h10c2.8,0,5-1.9,5-4.2c0-2.3-2.2-4.2-5-4.2H125z"/>
<path class="st1" d="M155,100c-2.8,0-5,1.9-5,4.2c0,2.3,2.2,4.2,5,4.2h10c2.8,0,5-1.9,5-4.2c0-2.3-2.2-4.2-5-4.2H155z"/>
<path class="st1" d="M20,104.2c0-2.3-2.2-4.2-5-4.2h0H5c-2.8,0-5,1.9-5,4.2c0,2.3,2.2,4.2,5,4.2h10C17.8,108.3,20,106.5,20,104.2z"
	/>
<path class="st1" d="M195,100h-10c-2.8,0-5,1.9-5,4.2c0,2.3,2.2,4.2,5,4.2h10c2.8,0,5-1.9,5-4.2C200,101.9,197.8,100,195,100z"/>
<path class="st1" d="M65,100c-2.8,0-5,1.9-5,4.2c0,2.3,2.2,4.2,5,4.2h10c2.8,0,5-1.9,5-4.2c0-2.3-2.2-4.2-5-4.2H65z"/>
<path class="st1" d="M35,100c-2.8,0-5,1.9-5,4.2c0,2.3,2.2,4.2,5,4.2h10c2.8,0,5-1.9,5-4.2c0-2.3-2.2-4.2-5-4.2H35z"/>
<line class="st2" x1="190" y1="76.3" x2="190" y2="65.9"/>
</svg>
