<?xml version="1.0" encoding="utf-8"?>
<!-- Generator: Adobe Illustrator 22.0.0, SVG Export Plug-In . SVG Version: 6.00 Build 0)  -->
<svg version="1.1" id="" xmlns="http://www.w3.org/2000/svg" xmlns:xlink="http://www.w3.org/1999/xlink" x="0px" y="0px"
	 viewBox="0 0 200 200" style="enable-background:new 0 0 200 200;" xml:space="preserve">
<style type="text/css">
	.st0{fill:#666BD9;}
	.st1{fill:#FFFFFF;}
	.st2{fill:#46596F;}
</style>
<path class="st0" d="M125.7,106.8v-5c0-6.1,2.4-12,6.8-16.2c9.9-9.5,15.8-23.2,14.5-38.3C145,24.3,126.3,6,103.3,4.4
	c-27.5-1.9-50.5,19.9-50.5,47c0,13.3,5.5,25.2,14.3,33.8c4.5,4.4,7.1,10.3,7.1,16.5v5c0,8.9-5.2,17-13.2,20.7l-31.7,14.7
	c-10.1,4.7-16.5,14.8-16.5,25.9v27.5h174.3v-27.5c0-11.1-6.5-21.2-16.5-25.9l-31.7-14.7C130.9,123.8,125.7,115.7,125.7,106.8
	L125.7,106.8z"/>
<path class="st1" d="M68.6,54.3c-1.6,0-2.9-1.3-2.9-2.9c0-13.8,8.2-26.2,20.9-31.6c1.4-0.6,3.1,0.1,3.7,1.5c0.6,1.4-0.1,3.1-1.5,3.7
	c-10.6,4.5-17.4,14.8-17.4,26.3C71.4,53,70.2,54.3,68.6,54.3z"/>
<path class="st1" d="M97.1,20c0,1.6,1.3,2.9,2.9,2.9c1.6,0,2.9-1.3,2.9-2.9c0-1.6-1.3-2.9-2.9-2.9C98.4,17.1,97.1,18.4,97.1,20
	C97.1,20,97.1,20,97.1,20z"/>
<rect x="10.3" y="165.7" class="st1" width="176" height="28.2"/>
<path class="st2" d="M172.4,138.4l-31.7-14.7c-6.5-3-10.7-9.6-10.7-16.8v-5c0-5.1,2-9.9,5.4-13.1c11.4-10.8,17.1-26.1,15.8-41.8
	c-2.1-24.9-22.6-45-47.6-46.7C89.2-0.9,75.5,4,64.9,13.8c-10.4,9.7-16.3,23.4-16.3,37.6c0,14,5.5,27.1,15.6,36.9
	C68,92,70,96.8,70,101.8v5c0,7.2-4.2,13.8-10.7,16.8l-31.7,14.7c-11.5,5.4-19,17.1-19,29.8v27.5c0,2.4,1.9,4.3,4.3,4.3h174.3
	c2.4,0,4.3-1.9,4.3-4.3v-27.5C191.4,155.5,184,143.8,172.4,138.4z M17.2,191.4v-17.2H120c2.4,0,4.3-1.9,4.3-4.3
	c0-2.4-1.9-4.3-4.3-4.3H17.3c0.9-8.4,6.1-15.9,13.9-19.5l31.7-14.7c9.5-4.4,15.7-14.1,15.7-24.6v-5c0-7.3-3.1-14.5-8.4-19.6
	c-8.4-8.1-13-19.1-13-30.7c0-11.8,5-23.2,13.6-31.3C79.5,11.9,91,7.8,103,8.6c20.8,1.4,37.8,18.2,39.6,38.9
	c1.1,13.1-3.7,25.8-13.2,34.8c-5.2,4.9-8.1,11.9-8.1,19.3v5c0,10.5,6.2,20.2,15.7,24.6l31.7,14.8c7.8,3.6,13,11.1,13.9,19.5h-34.8
	c-2.4,0-4.3,1.9-4.3,4.3s1.9,4.3,4.3,4.3h35v17.2L17.2,191.4L17.2,191.4z"/>
</svg>
