<?xml version="1.0" encoding="utf-8"?>
<!-- Generator: Adobe Illustrator 22.0.0, SVG Export Plug-In . SVG Version: 6.00 Build 0)  -->
<svg version="1.1" id="layer_1" xmlns="http://www.w3.org/2000/svg" xmlns:xlink="http://www.w3.org/1999/xlink" x="0px" y="0px"
	 viewBox="0 0 200 200" style="enable-background:new 0 0 200 200;" xml:space="preserve">
<style type="text/css">
	.st0{fill:#415267;}
</style>
<path class="st0" d="M174.4,0H25.6C11.5,0,0,11.5,0,25.6v148.8C0,188.5,11.5,200,25.6,200h148.8c14.1,0,25.6-11.5,25.6-25.6l0-148.8
	C200,11.5,188.5,0,174.4,0z M127.1,44.1v40.1H73.7V44.1H127.1z M63.4,182.9H9.9v-40.1h53.5V182.9z M63.4,133.5H9.9V93.4h53.5V133.5z
	 M63.4,84.2H9.9V44.1h53.5V84.2z M127.1,182.9H73.7v-40.1h53.5V182.9z M127.1,133.5H73.7V93.4h53.5V133.5z M189.8,182.9h-53.5v-40.1
	h53.5V182.9z M189.8,133.5h-53.5V93.4h53.5V133.5z M189.8,84.2h-53.5V44.1h53.5V84.2z"/>
</svg>
