<?xml version="1.0" encoding="utf-8"?>
<!-- Generator: Adobe Illustrator 22.0.0, SVG Export Plug-In . SVG Version: 6.00 Build 0)  -->
<svg version="1.1" id="图层_1" xmlns="http://www.w3.org/2000/svg" xmlns:xlink="http://www.w3.org/1999/xlink" x="0px" y="0px"
	 viewBox="0 0 200 200" style="enable-background:new 0 0 200 200;" xml:space="preserve">
<style type="text/css">
	.st0{fill:#4E4A6B;}
	.st1{fill:#0096DF;stroke:#00567F;stroke-width:7;stroke-miterlimit:10;}
	.st2{font-family:'Arial-BoldMT';}
	.st3{font-size:164.4227px;}
</style>
<path class="st0" d="M174.5,196.6c0,1.6-1.4,3.1-3.5,3.6c-2.5,0.6-5.2-0.6-5.9-2.6c-8.3-22.7-35.4-38.6-65.8-38.6
	c-30.4,0-57.5,15.9-65.8,38.6c-0.7,2-3.4,3.1-5.9,2.5c0,0,0,0,0,0c-2.5-0.6-4-2.6-3.3-4.6c0,0,0,0,0,0c9.5-25.9,40.3-43.9,75-43.9
	c34.7,0,65.5,18.1,75,44C174.4,195.9,174.5,196.3,174.5,196.6L174.5,196.6z"/>
<text transform="matrix(1 0 0 1 9.9077 121.1006)" class="st1 st2 st3">Ta</text>
</svg>
