<?xml version="1.0" encoding="utf-8"?>
<!-- Generator: Adobe Illustrator 22.0.0, SVG Export Plug-In . SVG Version: 6.00 Build 0)  -->
<svg version="1.1" id="layer_1" xmlns="http://www.w3.org/2000/svg" xmlns:xlink="http://www.w3.org/1999/xlink" x="0px" y="0px"
	 viewBox="0 0 200 200" style="enable-background:new 0 0 200 200;" xml:space="preserve">
<style type="text/css">
	.st0{fill:#4E4A6B;}
	.st1{fill:#ED9520;}
	.st2{fill:#D1791A;}
	.st3{fill:#565F66;}
</style>
<path class="st0" d="M19.7,171.8L19.6,28c3.8-1.5,6.8-4.5,8.3-8.3l144.1,0c1.5,3.8,4.5,6.8,8.3,8.3v31.5h10.4V28
	c7.5-2.8,11.2-11.2,8.3-18.6S187.8-1.8,180.4,1c-3.8,1.5-6.9,4.5-8.3,8.3l-144.1,0C25.1,1.9,16.7-1.8,9.3,1S-1.9,12.2,1,19.7
	c1.5,3.8,4.5,6.9,8.3,8.3l0.1,144.3C2,175.5-1.3,184,1.9,191.3c3.2,7.3,11.7,10.6,19.1,7.4c3.5-1.6,6.3-4.5,7.7-8.1h40.5v-10.4H28.7
	C27.1,176.3,23.8,173.1,19.7,171.8z"/>
<path class="st1" d="M96.1,145l70.7-70.7l30.6,30.6l-70.7,70.7L96.1,145z"/>
<path class="st2" d="M118.4,167.3l70.7-70.7l8.3,8.3l-70.7,70.7L118.4,167.3z"/>
<path class="st3" d="M90,168l-4.5,18.2l18.2-4.5L90,168z"/>
<path class="st0" d="M199.3,103.1c-1-1-2.6-1-3.5,0l-68.4,68.5l-3.2-9.7l11.7-11.7c1-1,1-2.6,0-3.5c-1-1-2.6-1-3.5,0l-11.9,11.9
	c-0.2,0.2-0.3,0.4-0.4,0.6l-5.8-1.4l-1.4-5.8c0.2-0.1,0.4-0.2,0.6-0.4l41.2-41.2c1-1,1-2.6,0-3.5c-1-1-2.6-1-3.5,0l-41,41l-9.7-3.2
	L168.6,76c1-1,1-2.6,0-3.5c-1-1-2.6-1-3.5,0l-70.7,70.7c-0.1,0.1-0.2,0.2-0.3,0.3c-0.5,0.3-0.8,0.8-1,1.4l-10,40.7
	c-0.1,0.2-0.1,0.4-0.1,0.6c0,0.6,0.3,1.3,0.7,1.7c0.4,0.4,0.8,0.6,1.3,0.7c0.2,0,0.3,0,0.5,0c0.2,0,0.4,0,0.6-0.1l18.2-4.5l22.5-5.5
	c0.6-0.1,1.1-0.5,1.4-1c0.1-0.1,0.2-0.2,0.3-0.3l70.7-70.7C200.2,105.7,200.2,104.1,199.3,103.1L199.3,103.1z M104.5,179l-11.7-11.7
	l4.6-18.5l10.3,3.4l2,8.1c0.2,0.9,0.9,1.6,1.8,1.8l8.1,2l3.4,10.3L104.5,179z"/>
</svg>
