<?xml version="1.0" encoding="utf-8"?>
<!-- Generator: Adobe Illustrator 22.0.0, SVG Export Plug-In . SVG Version: 6.00 Build 0)  -->
<svg version="1.1" id="isolation_mode" xmlns="http://www.w3.org/2000/svg" xmlns:xlink="http://www.w3.org/1999/xlink" x="0px"
	 y="0px" viewBox="0 0 200 200" style="enable-background:new 0 0 200 200;" xml:space="preserve">
<style type="text/css">
	.st0{fill:#415267;}
	.st1{fill:#FD7651;}
</style>
<path class="st0" d="M189,63.3h-66V36.2L87.3,0H10.9C4.9,0,0,5,0,11v102.7c0,6,4.9,11,10.9,11h54.4v64c0,6.1,4.9,11.2,11,11.2H189
	c6.1,0,11-5,11-11.2V74.5C200,68.3,195.1,63.3,189,63.3z M84.8,6.4l32,32.4v0.2H92.6c-4.3,0-7.8-3.6-7.8-7.9V6.4z M6.2,113.8V11
	c0-2.5,2.2-4.8,4.7-4.8h67.7v25c0,7.7,6.2,14.1,13.9,14.1h24.4v68.4c0,2.7-2.2,4.8-4.7,4.8H10.9C8.2,118.6,6.2,116.3,6.2,113.8z
	 M194.7,183.9c0,5.6-4.5,10.2-10.1,10.2H81.4c-5.5,0-10.1-4.6-10.1-10.2v-59.1h40.8c6,0,10.9-5,10.9-11V69.1h61.5
	c5.5,0,10.1,4.6,10.1,10.2V183.9z"/>
<path class="st1" d="M33,50.6h35.6c1.4,0,2.6-1.2,2.6-2.7c0-1.4-1.2-2.7-2.6-2.7H33c-1.4,0-2.6,1.2-2.6,2.7
	C30.4,49.4,31.6,50.6,33,50.6z"/>
<path class="st1" d="M33,69.8h59.8c1.4,0,2.6-1.1,2.5-2.7c0-1.4-1.2-2.7-2.6-2.7H33c-1.4,0-2.6,1.2-2.6,2.7
	C30.4,68.5,31.6,69.8,33,69.8z"/>
<path class="st1" d="M92.8,89.1c1.4,0,2.6-1.2,2.5-2.7c0-1.4-1.2-2.7-2.6-2.7H33c-1.4,0-2.6,1.2-2.6,2.7s1.2,2.7,2.6,2.7H92.8z"/>
<path class="st0" d="M137.4,6.1h11.3c4,0,7.3,1.6,10.1,4.6c2.8,2.9,3.8,6.9,3.8,11v23.7l-7.7-7.9c-0.8-0.8-1.9-1-2.9-0.6
	c-1.4,0.6-2.1,2.3-1.5,3.7c0.1,0.3,0.3,0.6,0.6,0.9l12.2,12.5c1,1.1,2.8,1.1,3.8,0l0,0l12.6-12.9c1.1-1.1,1-2.9,0-4
	c-0.3-0.3-0.7-0.6-1.2-0.7c-0.9-0.3-1.9,0-2.6,0.7l-7.8,7.9V21.8c0-5.6-1.5-10.9-5.4-14.9c-3.8-4-8.5-6.2-14-6.2l0,0h-11.3
	c-1,0-1.9,0.5-2.3,1.4c-0.5,0.8-0.5,1.9,0,2.8C135.5,5.6,136.4,6.1,137.4,6.1z"/>
<g>
	<path class="st1" d="M138.3,179.3V131h18c3.2,0,5.6,0.2,7.2,0.5c2.3,0.4,4.3,1.1,5.9,2.3s2.9,2.7,3.8,4.7c1,2,1.4,4.2,1.4,6.6
		c0,4.1-1.3,7.6-3.9,10.4c-2.6,2.8-7.2,4.3-14,4.3h-12.2v19.6H138.3z M144.6,153.9h12.3c4.1,0,7-0.8,8.7-2.3
		c1.7-1.5,2.6-3.7,2.6-6.5c0-2-0.5-3.7-1.5-5.2c-1-1.4-2.3-2.4-4-2.8c-1.1-0.3-3-0.4-5.9-0.4h-12.2V153.9z"/>
</g>
</svg>
