<?xml version="1.0" encoding="utf-8"?>
<!-- Generator: Adobe Illustrator 22.0.0, SVG Export Plug-In . SVG Version: 6.00 Build 0)  -->
<svg version="1.1" id="layer_1" xmlns="http://www.w3.org/2000/svg" xmlns:xlink="http://www.w3.org/1999/xlink" x="0px" y="0px"
	 viewBox="0 0 200 200" style="enable-background:new 0 0 200 200;" xml:space="preserve">
<style type="text/css">
	.st0{fill:#E5E5E5;}
	.st1{fill:#D9D9D9;}
	.st2{fill:#4455B7;}
	.st3{fill:#518FF5;}
	.st4{fill:#607B88;}
	.st5{fill:#FFFFFF;}
</style>
<g id="XMLID_1_">
	<path id="XMLID_5_" class="st0" d="M187.4,199.9h-78.1L84.4,39.7h103.1c7,0,12.6,5.6,12.6,12.6v135
		C200,194.3,194.4,199.9,187.4,199.9z"/>
	<path id="XMLID_6_" class="st1" d="M187.4,199.9h-78.1L84.4,39.7h22.1l93.6,92.8v54.7C200,194.3,194.4,199.9,187.4,199.9z"/>
	<polygon id="XMLID_7_" class="st2" points="109.3,199.9 143.6,162.2 96.3,162.2 	"/>
	<path id="XMLID_8_" class="st3" d="M12.6,0.1h78.9l52.2,162.1h-131c-7,0-12.6-5.6-12.6-12.6v-137C0,5.7,5.6,0.1,12.6,0.1z"/>
	<path id="XMLID_9_" class="st4" d="M171,94.5h16.5v-7.7h-37.5V74.3h-12.6v12.6H117v7.5h44.9c0,0-2.6,12.9-13.5,24.7
		c-8.2-9.7-10.5-15.2-10.5-15.2h-10c0,0,1.9,4.6,8.2,14c1.2,1.7,3.4,4.3,6.2,7.5c-8.2,8.4-12.9,12.7-12.9,12.7l6.3,5.3
		c0,0,5.8-5.3,12.2-11.8c10.5,11.1,23.5,23.9,23.5,23.9l5.9-6.4c0,0-7.7-7.4-21.9-21.9c-0.5-0.6-1.2-1.2-1.7-1.7
		c2.3-2.5,4.5-5.2,6.3-7.6C168.5,107,171,94.5,171,94.5z"/>
	<path id="XMLID_10_" class="st5" d="M55.9,74c0,4.2,0,8.6,0,12.8c5.9,0,11.9,0,17.8,0c-0.7,4.1-3.2,7.8-6.5,10.1
		c-2.2,1.5-4.6,2.4-7.2,2.9c-2.5,0.4-5.3,0.5-7.8,0c-2.6-0.5-5.2-1.6-7.3-3.2c-3.5-2.4-6.1-6-7.5-10c-1.4-4.1-1.4-8.7,0-12.8
		c1-2.9,2.6-5.6,4.8-7.7c2.6-2.7,6.1-4.6,9.8-5.5c3.2-0.6,6.5-0.5,9.6,0.4c2.6,0.8,5.1,2.2,7.1,4.1c2-2,4-4,6-6
		c1.1-1.1,2.2-2.1,3.2-3.3c-3.1-2.9-6.7-5.1-10.6-6.5c-7.1-2.6-15-2.6-22.1-0.2c-8,2.7-14.8,8.8-18.6,16.3c-1.3,2.6-2.3,5.4-2.9,8.2
		c-1.5,7.2-0.4,14.7,2.9,21.2c2.1,4.2,5.2,8,8.9,11c3.5,2.7,7.6,4.9,11.9,6c5.5,1.5,11.3,1.5,16.8,0.2c5-1.2,9.7-3.5,13.4-7
		c4-3.7,6.8-8.4,8.3-13.6c1.6-5.6,1.9-11.6,0.8-17.4C76.5,74,66.1,74,55.9,74z"/>
</g>
</svg>
