<?xml version="1.0" encoding="utf-8"?>
<!-- Generator: Adobe Illustrator 22.0.0, SVG Export Plug-In . SVG Version: 6.00 Build 0)  -->
<svg version="1.1" id="layer_1" xmlns="http://www.w3.org/2000/svg" xmlns:xlink="http://www.w3.org/1999/xlink" x="0px" y="0px"
	 viewBox="0 0 200 200" style="enable-background:new 0 0 200 200;" xml:space="preserve">
<style type="text/css">
	.st0{fill:#415267;}
	.st1{fill:#FC983F;}
</style>
<path class="st0" d="M73.2,0C85,0,94.6,9.6,94.6,21.4v157.1c0,11.8-9.6,21.4-21.4,21.4H21.4C9.6,200,0,190.4,0,178.6V21.4
	C0,9.6,9.6,0,21.4,0H73.2z M178.6,0C190.4,0,200,9.6,200,21.4v157.1c0,11.8-9.6,21.4-21.4,21.4h-51.8c-11.8,0-21.4-9.6-21.4-21.4
	V21.4C105.4,9.6,115,0,126.8,0H178.6z M73.7,10.7H21c-5.9,0-10.7,4.8-10.7,10.7v157.1c0,5.9,4.8,10.7,10.7,10.7h52.7
	c5.9,0,10.7-4.8,10.7-10.7V21.4C84.4,15.5,79.6,10.7,73.7,10.7z M179,10.7h-52.7c-5.9,0-10.6,4.7-10.7,10.5l0,0.2v157.1
	c0,5.9,4.7,10.6,10.5,10.7l0.2,0H179c5.9,0,10.6-4.7,10.7-10.5l0-0.2V21.4C189.7,15.5,184.9,10.7,179,10.7z"/>
<path class="st1" d="M25.6,56.5h26.1v8.7H25.6V56.5z M25.6,91.3h43.5v8.7H25.6V91.3z M25.6,126.1h43.5v8.7H25.6V126.1z"/>
<path class="st1" d="M131.2,56.5h26.1v8.7h-26.1V56.5z M131.2,91.3h43.5v8.7h-43.5V91.3z M131.2,126.1h43.5v8.7h-43.5V126.1z"/>
</svg>
