<?xml version="1.0" encoding="utf-8"?>
<!-- Generator: Adobe Illustrator 22.0.0, SVG Export Plug-In . SVG Version: 6.00 Build 0)  -->
<svg version="1.1" id="layer_1" xmlns="http://www.w3.org/2000/svg" xmlns:xlink="http://www.w3.org/1999/xlink" x="0px" y="0px"
	 viewBox="0 0 200 200" style="enable-background:new 0 0 200 200;" xml:space="preserve">
<style type="text/css">
	.st0{fill:#E9000D;}
	.st1{fill:#333333;}
</style>
<path class="st0" d="M175.3,183.8H24.7c-3.7,0-6.6,3.6-6.6,8.1s3,8.1,6.6,8.1h150.6c3.7,0,6.6-3.6,6.6-8.1S179,183.8,175.3,183.8z"
	/>
<path class="st1" d="M32.4,37.6c0.7-0.4,1.2-0.9,1.5-1.7c1.7-3.7,3.6-7.2,5.5-10.8c1.8-3.1,3.8-5.6,6.2-7.6c2.4-2,5.2-3.4,8.4-4.4
	c3.2-0.9,7.2-1.4,12-1.4h24.4v130.6c0,3.8-1.5,6.4-4.7,7.8c-3.2,1.4-8.3,2.7-15.4,3.7c-1.5,0.4-2.4,1.7-2.4,3.9
	c0,1.2,0.1,2.5,0.5,4.1c5.1-0.4,10.4-0.6,16.2-0.8c11.3-0.5,22.6-0.5,33.9,0c5.6,0.2,10.9,0.5,16,0.8c0.4-1.7,0.5-3,0.5-4.1
	c0-2.6-0.8-3.9-2.6-3.9c-7.1-0.8-12.2-2-15.2-3.6c-3-1.5-4.5-4.1-4.5-7.9V11.6h24.4c4.7,0,8.8,0.5,12,1.4c3.2,0.9,6,2.5,8.3,4.4
	c2.3,1.9,4.3,4.5,6,7.6s3.4,6.6,5.2,10.8c0.4,0.8,0.8,1.4,1.7,1.7c0.8,0.4,1.5,0.5,2.1,0.5c0.9,0,1.8-0.1,2.5-0.5
	c0.7-0.4,1.4-0.7,2.3-0.9c-1.8-5.6-3-10.6-3.7-15.2c-0.6-3.8-1.3-7.7-2-11.5c-0.6-3.1-1.3-5.5-2-7.2C168.8,0.9,167.6,0,166,0
	c-1.3,0-2.8,0.1-4.9,0.2c-2,0.1-4.1,0.4-6.5,0.5l-7.1,0.5c-2.4,0.1-4.5,0.2-6.4,0.2H61.9c-2,0-4.3-0.1-6.6-0.2l-7-0.5
	c-2.3-0.1-4.5-0.4-6.5-0.5C40.2,0.1,38.6,0,37,0s-2.7,0.8-3.4,2.5c-0.7,1.7-1.4,3.9-2,7c-0.6,3-1.3,6.8-2.1,11.4s-2,9.8-3.6,15.6
	c1.3,0.9,2.7,1.4,4.5,1.4C31.1,38.1,31.7,37.9,32.4,37.6z"/>
</svg>
