<?xml version="1.0" encoding="utf-8"?>
<!-- Generator: Adobe Illustrator 22.0.0, SVG Export Plug-In . SVG Version: 6.00 Build 0)  -->
<svg version="1.1" id="" xmlns="http://www.w3.org/2000/svg" xmlns:xlink="http://www.w3.org/1999/xlink" x="0px" y="0px"
	 viewBox="0 0 200 200" style="enable-background:new 0 0 200 200;" xml:space="preserve">
<style type="text/css">
	.st0{fill:#333333;}
</style>
<path class="st0" d="M7.3,199.9c-4.6-0.6-7.8-4.8-7.2-9.3c0.5-3.8,3.5-6.7,7.2-7.2h185.4c4.6,0.6,7.8,4.8,7.2,9.3
	c-0.5,3.8-3.5,6.7-7.2,7.2H7.3z M109.5,25.4v117.3c-0.5,4.2-4.4,7.2-8.6,6.6c-3.5-0.4-6.2-3.2-6.6-6.6V25.4L36.4,83.3
	c-3,3-7.7,3-10.7,0s-3-7.7,0-10.7L95.7,2.6c3.4-3.3,8.8-3.3,12.1,0l69.9,69.9c3,3,3,7.7,0,10.7s-7.7,3-10.7,0L109.5,25.4z"/>
</svg>
