<svg xmlns="http://www.w3.org/2000/svg" width="204" height="34" fill="none" viewBox="0 0 204 34" class="logo_logo__icon__x73AF"><path fill="#000" d="M46.72 19.398v9.32q0 .282-.246.282h-3.799q-.21 0-.21-.281V6.032q0-.246.245-.246H55.62q.281 0 .316.246l.352 2.744q.035.316-.282.316H46.72v7h8.336q.28 0 .281.281v2.744q0 .28-.281.28zm12.358 9.285v-16.53q0-.282.281-.282h3.728q.282 0 .282.281V28.72q0 .28-.282.281h-3.693q-.315 0-.316-.317m2.145-19.66q-1.02 0-1.653-.599-.633-.633-.633-1.688 0-1.056.633-1.688.668-.633 1.688-.634 1.056 0 1.654.634.633.633.633 1.688t-.633 1.688q-.633.598-1.689.598m6.442 16.038V4.168q0-.246.281-.246h3.693q.317 0 .317.246v20.928q0 1.196.95 1.196.316 0 .738-.07.176 0 .176.21v2.181q0 .316-.211.387-.845.352-2.18.352-1.795 0-2.78-.95t-.984-3.341m19.057-3.87h-6.436q.034 2.252 1.266 3.553 1.23 1.302 3.693 1.302 2.251 0 4.01-.774.21-.14.211.14v2.568q0 .246-.211.422-2.005.915-4.924.915-4.326 0-6.366-2.462-2.005-2.497-2.005-6.226 0-3.87 2.11-6.472t5.768-2.602q3.483 0 5.17 2.145 1.725 2.145 1.724 5.03 0 1.441-.14 2.04-.036.246-.282.281-.914.14-3.588.14m-6.436-2.708h4.643q1.512 0 1.723-.07.036-.141.035-.492 0-1.337-.703-2.392-.704-1.055-2.286-1.055-1.549 0-2.392 1.125-.844 1.125-1.02 2.884m23.451-2.673a6.82 6.82 0 0 0-3.834-1.16q-1.195 0-1.759.457-.562.457-.562 1.09 0 .67.457 1.16.492.494 2.075 1.197 2.743 1.161 3.834 2.427 1.09 1.23 1.09 3.13 0 2.391-1.794 3.799-1.758 1.407-4.677 1.407-2.955 0-4.784-1.02a.44.44 0 0 1-.21-.387v-3.166q0-.14.07-.176.105-.07.175 0 2.181 1.618 4.643 1.618 1.161 0 1.794-.457.633-.458.633-1.16 0-.739-.528-1.232-.492-.528-2.04-1.23-2.602-1.127-3.658-2.357-1.055-1.267-1.055-3.13 0-2.182 1.618-3.624 1.619-1.44 4.502-1.441 2.709 0 4.151.773.175.07.175.422v2.814q0 .422-.316.246m26.756 10.165-.528 2.744q-.035.28-.316.281h-13.296q-.316 0-.316-.281V6.068q0-.282.281-.282h12.908q.282 0 .317.246l.387 2.744q0 .316-.246.316h-9.356v6.437h8.441q.246 0 .246.246v2.779q0 .28-.281.281h-8.406v6.859h9.918q.282 0 .247.281m10.759 3.342q-3.94-.001-6.296-2.216-2.356-2.217-2.356-6.542 0-3.94 2.532-6.472t6.753-2.532q1.055 0 1.829.175V4.133q0-.21.211-.21h3.869q.176 0 .176.21v21.068q0 1.337.106 2.322.034.21-.176.316-3.06 1.478-6.648 1.478m2.462-3.483V14.966q-.703-.387-1.899-.387-2.145 0-3.482 1.513t-1.337 4.29q0 2.955 1.302 4.362 1.336 1.407 3.376 1.407 1.266 0 2.04-.317m8.584 2.85V12.151q0-.28.282-.281h3.728q.282 0 .282.281V28.72q0 .28-.282.281h-3.693q-.317 0-.317-.317m2.146-19.662q-1.02 0-1.653-.598-.633-.633-.633-1.688 0-1.056.633-1.688.668-.633 1.688-.634 1.056 0 1.653.634.633.633.633 1.688t-.633 1.688q-.633.598-1.688.598m14.91 17.235v2.11a.48.48 0 0 1-.211.422q-1.196.528-3.06.528-4.503 0-4.502-4.854V15h-2.075q-.247-.035-.247-.316v-2.533q0-.28.282-.281h2.075q.07-2.919.352-4.185.07-.282.281-.317l3.552-.457q.282-.071.282.176-.176 1.828-.176 4.783h3.236q.246 0 .246.246v2.638q0 .246-.246.246h-3.271v9.005q0 1.195.422 1.758.422.528 1.442.528.563 0 1.407-.211.21-.071.211.176m10.325-14.702q3.763 0 5.873 2.462 2.146 2.46 2.146 6.366 0 4.15-2.216 6.542t-5.909 2.392q-4.045 0-6.12-2.533-2.04-2.568-2.04-6.33 0-3.94 2.251-6.402 2.286-2.497 6.015-2.497m-.176 3.024q-1.724 0-2.744 1.513-1.02 1.477-1.02 4.29 0 2.745 1.02 4.362 1.056 1.583 2.884 1.583 1.618 0 2.673-1.477 1.056-1.477 1.056-4.397 0-2.708-.95-4.29-.95-1.584-2.919-1.584m11.678-2.708h3.307q.28 0 .386.281.282.705.352 2.04 2.04-2.637 5.382-2.637.246 0 .246.246v3.552q0 .282-.282.246-3.06-.176-4.818 1.583-.317.316-.317.844v10.728q0 .246-.281.246h-3.693q-.317 0-.317-.281V16.83q0-2.849-.176-4.713-.035-.246.211-.246"></path><rect width="26.965" height="34" x="4.689" fill="#DA2D26" rx="2.57"></rect><path fill="#E6514B" d="M0 11.725h31.655A2.345 2.345 0 0 1 34 14.069v7.035a2.345 2.345 0 0 1-2.345 2.345H0z"></path><path fill="#87140F" d="m4.704 23.448-.013 3.517L0 23.448z"></path><path fill="#fff" d="M23.582 13.25h5.914v1.568h-4.06v1.997h2.987v1.434h-2.988v3.565h-1.853zM14.334 13.248h2.963q1.39 0 2.427.515a3.73 3.73 0 0 1 1.597 1.47q.56.956.56 2.254 0 2.133-1.243 3.235-1.231 1.09-3.439 1.09h-2.865zm2.963 7.008q1.305 0 2-.735t.695-2.034q0-.771-.305-1.384a2.24 2.24 0 0 0-.89-.956q-.586-.343-1.378-.343h-1.232v5.452zM5.863 13.25h3.585q1.451 0 2.317.772.866.76.866 2.12 0 1.395-.866 2.144-.854.747-2.317.747H7.717v2.781H5.863zm3.317 4.227q1.573 0 1.573-1.335 0-.748-.427-1.042-.414-.294-1.146-.294H7.717v2.671z"></path></svg>