<svg xmlns="http://www.w3.org/2000/svg" width="47" height="47" fill="none" viewBox="0 0 47 47"><path fill="currentColor" d="M33.745 32.276c-2.865 2.864-2.865 7.527 0 10.391 2.864 2.864 7.527 2.864 10.39 0 2.865-2.864 2.865-7.527 0-10.391-2.863-2.864-7.526-2.901-10.39 0m5.58.477c.148.074.258.147.368.257l2.937 2.938c.441.44.441 1.138 0 1.542-.44.44-1.138.44-1.542 0l-1.065-1.065v4.7c0 .624-.477 1.102-1.101 1.102a1.08 1.08 0 0 1-1.102-1.102v-4.7l-1.065 1.065c-.44.44-1.138.44-1.542 0-.44-.44-.44-1.138 0-1.542l2.938-2.938q.33-.33.77-.33c.148 0 .295.036.405.073m.698-7.417v-9.547c0-.624-.477-1.101-1.101-1.101s-1.102.477-1.102 1.101v9.547c0 .624.478 1.102 1.102 1.102s1.101-.478 1.101-1.102"></path><path fill="currentColor" d="M11.75 44.797h17.625c.624 0 1.102-.477 1.102-1.102 0-.624-.478-1.101-1.102-1.101H11.75a2.555 2.555 0 0 1-2.57-2.57V6.976a2.555 2.555 0 0 1 2.57-2.57h18.727v2.57a4.764 4.764 0 0 0 4.773 4.773h3.084c.625 0 1.69 0 1.69-1.102a8.54 8.54 0 0 0-2.46-5.985 8.54 8.54 0 0 0-5.986-2.46H11.75a4.764 4.764 0 0 0-4.773 4.774v33.046a4.764 4.764 0 0 0 4.773 4.774m20.93-40.28a6.15 6.15 0 0 1 3.304 1.725 6.15 6.15 0 0 1 1.726 3.305h-2.46a2.555 2.555 0 0 1-2.57-2.57z"></path></svg>