<svg xmlns="http://www.w3.org/2000/svg" fill="none" viewBox="0 0 32 32"><g fill="currentColor" fill-rule="evenodd" clip-path="url(#dashboard_svg__a)" clip-rule="evenodd"><path d="M21.804 5.026a2.31 2.31 0 0 0 2.31 2.311h4.04a.987.987 0 0 0 .698-1.686L23.49.29a.988.988 0 0 0-1.686.698zm2.31.336a.336.336 0 0 1-.335-.336V3.371l1.99 1.99zM11.082 10.79c0 .545.442.987.987.987H24.16a.988.988 0 0 0 0-1.975H12.07a.99.99 0 0 0-.988.987M11.082 14.146c0 .545.442.987.987.987H24.16a.988.988 0 0 0 0-1.975H12.07a.99.99 0 0 0-.988.988M11.082 17.505c0 .546.442.988.987.988H24.16a.988.988 0 0 0 0-1.976H12.07a.99.99 0 0 0-.988.988"></path><path d="M5.551 4.387a2.27 2.27 0 0 1 2.274-2.266h.772a.988.988 0 1 1 0 1.976h-.772a.295.295 0 0 0-.299.29v22.85c0 .155.128.291.299.291h16.923c.03 0 .18-.035.324-.192a.66.66 0 0 0 .165-.551.988.988 0 1 1 1.959-.26c.228 1.73-1.175 2.978-2.448 2.978H7.825a2.27 2.27 0 0 1-2.274-2.265z"></path><path d="M2.85 6.02a2.31 2.31 0 0 1 2.312-2.31h.794a.988.988 0 1 1 0 1.974h-.794a.336.336 0 0 0-.336.337v23.668c0 .186.15.337.336.337h17.426c.186 0 .336-.15.336-.337v-.264a.988.988 0 0 1 1.975 0v.264a2.31 2.31 0 0 1-2.31 2.312H5.161a2.31 2.31 0 0 1-2.311-2.312z"></path><path d="M8.273 24.546c0 1.233 1 2.235 2.234 2.235h16.408a2.235 2.235 0 0 0 2.234-2.235V6.044a1 1 0 0 0-.289-.698L23.811.292a1 1 0 0 0-.699-.29H10.507a2.235 2.235 0 0 0-2.234 2.236zm2.234.26a.26.26 0 0 1-.258-.26V2.238a.26.26 0 0 1 .258-.26h12.196l4.471 4.475v18.093a.26.26 0 0 1-.259.26z"></path></g><defs><clipPath id="dashboard_svg__a"><path fill="currentColor" d="M0 0h32v32H0z"></path></clipPath></defs></svg>