<svg xmlns="http://www.w3.org/2000/svg" fill="none" viewBox="0 0 34 34"><path fill="currentColor" fill-rule="evenodd" stroke="currentColor" stroke-width="0.5" d="M16.254 29.298H3.528A.3.3 0 0 1 3.23 29v-2.16c0-1.235.883-2.324 2.243-3.25 2.43-1.658 6.36-2.703 10.78-2.703a1.117 1.117 0 0 0 0-2.233c-4.944 0-9.32 1.237-12.039 3.09-2.073 1.414-3.216 3.21-3.216 5.097V29a2.53 2.53 0 0 0 2.53 2.53h12.726a1.115 1.115 0 1 0 0-2.233ZM16.252 1a8.19 8.19 0 0 0-8.187 8.186 8.19 8.19 0 0 0 8.187 8.186 8.19 8.19 0 0 0 8.186-8.186A8.19 8.19 0 0 0 16.252 1Zm0 2.232a5.956 5.956 0 0 1 5.953 5.954 5.956 5.956 0 0 1-5.953 5.954 5.956 5.956 0 0 1-5.954-5.954 5.956 5.956 0 0 1 5.954-5.954ZM25.186 19.886a5.304 5.304 0 0 0-5.302 5.302 5.305 5.305 0 0 0 5.302 5.303 5.307 5.307 0 0 0 5.303-5.303 5.305 5.305 0 0 0-5.303-5.302Zm0 2.233a3.07 3.07 0 0 1 3.07 3.069 3.073 3.073 0 0 1-3.07 3.07 3.073 3.073 0 0 1-3.07-3.07 3.07 3.07 0 0 1 3.07-3.07Z" clip-rule="evenodd"></path><path fill="currentColor" fill-rule="evenodd" stroke="currentColor" stroke-width="0.5" d="M26.303 21.002V18.49a1.117 1.117 0 0 0-2.233 0v2.512c0 .615.5 1.116 1.116 1.116a1.12 1.12 0 0 0 1.117-1.117ZM28.934 23.017l1.775-1.777a1.115 1.115 0 1 0-1.578-1.578l-1.777 1.776a1.12 1.12 0 0 0 0 1.579 1.12 1.12 0 0 0 1.58 0ZM29.371 26.305h2.513a1.117 1.117 0 0 0 0-2.233H29.37a1.116 1.116 0 0 0 0 2.233ZM27.354 28.935l1.777 1.776a1.115 1.115 0 1 0 1.578-1.578l-1.775-1.777a1.12 1.12 0 0 0-1.58 0 1.12 1.12 0 0 0 0 1.58ZM24.07 29.371v2.513a1.117 1.117 0 0 0 2.233 0V29.37a1.118 1.118 0 0 0-2.233 0ZM21.436 27.356l-1.776 1.777a1.115 1.115 0 1 0 1.578 1.578l1.777-1.776a1.12 1.12 0 0 0 0-1.579 1.12 1.12 0 0 0-1.58 0ZM21 24.072h-2.511a1.117 1.117 0 0 0 0 2.233h2.51a1.116 1.116 0 1 0 0-2.233ZM23.015 21.438l-1.777-1.776a1.115 1.115 0 1 0-1.578 1.578l1.776 1.777a1.12 1.12 0 0 0 1.579 0 1.12 1.12 0 0 0 0-1.58Z" clip-rule="evenodd"></path></svg>