<svg xmlns="http://www.w3.org/2000/svg" fill="none" viewBox="0 0 32 32"><path fill="currentColor" d="m28.778 16.623-3.361-3.301a1.206 1.206 0 0 0-1.68.002L13.04 23.821l-1.251 6.177 6.292-1.229 10.697-10.496a1.154 1.154 0 0 0 0-1.65M16.912 26.62l-2.099.41.418-2.06 9.346-9.17 1.681 1.65z"></path><path fill="currentColor" d="M11.195 27.667H5.253V4.333h8.319v5.834c0 1.287 1.064 2.333 2.377 2.333l8.32-.001v-2.332L15.948 2H5.253C3.94 2 2.875 3.045 2.875 4.333v23.334C2.875 28.954 3.94 30 5.253 30h5.942zm4.754-22.368 4.958 4.868h-4.958z"></path></svg>