<svg xmlns="http://www.w3.org/2000/svg" width="199" height="30" fill="none" viewBox="0 0 199 30"><path fill="#000" d="M45.574 18.634v9.092q0 .274-.24.274H41.63q-.206 0-.206-.274V5.596q0-.24.24-.24h12.592q.275 0 .309.24l.343 2.676q.034.309-.275.309h-9.058v6.827h8.132q.274 0 .274.275v2.676q0 .275-.274.275zm12.055 9.058V11.566q0-.275.275-.275h3.637q.274 0 .274.275v16.16q0 .274-.274.274h-3.603q-.309 0-.309-.308m2.093-19.18q-.994 0-1.612-.583-.618-.618-.618-1.647t.618-1.647q.651-.618 1.647-.618 1.029 0 1.612.618.618.617.618 1.647 0 1.029-.618 1.647-.617.583-1.647.583m6.284 15.646V3.778q0-.241.274-.241h3.603q.309 0 .309.24v20.415q0 1.166.926 1.166.309 0 .72-.068.172 0 .172.206v2.127q0 .31-.206.377-.824.344-2.127.343-1.75 0-2.71-.926-.96-.927-.961-3.26m18.59-3.775h-6.278q.034 2.197 1.235 3.466 1.2 1.27 3.603 1.27 2.195 0 3.911-.756.206-.137.206.138v2.504a.52.52 0 0 1-.206.412q-1.956.892-4.803.892-4.221 0-6.21-2.402-1.957-2.436-1.956-6.073 0-3.774 2.058-6.313 2.059-2.539 5.627-2.539 3.397 0 5.044 2.093 1.68 2.093 1.681 4.907 0 1.406-.137 1.99-.035.24-.275.274-.891.137-3.5.137m-6.278-2.642h4.529q1.475 0 1.681-.068.034-.138.034-.48 0-1.304-.686-2.334-.685-1.029-2.23-1.029-1.51 0-2.333 1.098t-.995 2.813m22.876-2.607a6.66 6.66 0 0 0-3.74-1.132q-1.166 0-1.715.446t-.55 1.063q0 .652.447 1.133.48.48 2.024 1.166 2.676 1.132 3.74 2.368 1.064 1.2 1.064 3.053 0 2.333-1.75 3.706-1.716 1.372-4.564 1.372-2.881 0-4.666-.995a.43.43 0 0 1-.206-.377v-3.088q0-.138.069-.172.103-.069.172 0 2.127 1.578 4.528 1.579 1.133 0 1.75-.447.618-.445.618-1.132 0-.72-.515-1.2-.48-.516-1.99-1.201-2.538-1.098-3.568-2.3-1.03-1.234-1.03-3.053 0-2.127 1.579-3.534t4.392-1.407q2.64 0 4.048.755.172.069.172.412v2.745q0 .411-.309.24m26.1 9.916-.515 2.676q-.033.274-.308.274h-12.97q-.309 0-.308-.274V5.63q0-.275.274-.275h12.592q.274 0 .309.24l.377 2.677q0 .309-.24.309h-9.127v6.279h8.235q.24 0 .24.24v2.71q0 .275-.274.275h-8.201v6.69h9.676q.275 0 .24.275m10.496 3.26q-3.843 0-6.142-2.162-2.298-2.162-2.298-6.382 0-3.843 2.47-6.313t6.587-2.47q1.03 0 1.785.17v-7.41q0-.206.205-.206h3.775q.171 0 .171.206v20.552q0 1.304.103 2.264.035.206-.171.31-2.985 1.44-6.485 1.44m2.402-3.398V14.311q-.686-.378-1.853-.378-2.093 0-3.397 1.475-1.304 1.477-1.304 4.186 0 2.883 1.27 4.255 1.304 1.372 3.294 1.372 1.234 0 1.99-.309m8.374 2.78V11.566q0-.275.274-.275h3.637q.274 0 .274.275v16.16q0 .274-.274.274h-3.603q-.309 0-.308-.308m2.092-19.18q-.994 0-1.612-.583-.618-.618-.618-1.647t.618-1.647q.651-.618 1.647-.618 1.03 0 1.612.618.618.617.618 1.647 0 1.029-.618 1.647-.617.583-1.647.583m14.545 16.812v2.059q0 .274-.206.412-1.167.514-2.985.514-4.392 0-4.392-4.735v-9.23h-2.024q-.24-.033-.24-.308v-2.47q0-.275.274-.275h2.025q.068-2.848.343-4.083.068-.274.274-.309l3.466-.446q.274-.068.274.172-.172 1.785-.172 4.666h3.157q.24 0 .24.24v2.574q0 .24-.24.24h-3.191v8.783q0 1.167.412 1.716.411.514 1.407.514.549 0 1.372-.205.206-.069.206.171m10.072-14.342q3.67 0 5.729 2.402 2.093 2.401 2.093 6.21 0 4.05-2.161 6.382-2.162 2.334-5.764 2.333-3.946 0-5.97-2.47-1.99-2.505-1.99-6.176 0-3.843 2.196-6.245 2.23-2.436 5.867-2.436m-.172 2.951q-1.682 0-2.676 1.475-.995 1.441-.995 4.186 0 2.676.995 4.255 1.03 1.545 2.813 1.544 1.578 0 2.608-1.441 1.029-1.44 1.029-4.29 0-2.64-.926-4.185-.927-1.544-2.848-1.544m11.392-2.642h3.226q.274 0 .377.275.274.685.343 1.99 1.99-2.574 5.25-2.574.24 0 .24.24v3.466q0 .274-.275.24-2.985-.171-4.7 1.544-.309.309-.309.823V27.76q0 .24-.274.24h-3.603q-.309 0-.309-.274V16.129q0-2.779-.171-4.598-.035-.24.205-.24"></path><rect width="26.305" height="30" x="4.575" y="0.001" fill="#DA2D26" rx="2.507"></rect><path fill="#E6514B" d="M0 10.345h30.88a2.287 2.287 0 0 1 2.287 2.288v5.77a2.287 2.287 0 0 1-2.288 2.287H0z"></path><path fill="#87140F" d="m4.59 20.69-.013 3.103L.002 20.69z"></path><path fill="#fff" d="M23.004 11.691h5.769v1.384h-3.961v1.762h2.914v1.265h-2.914v3.146h-1.808zM13.987 11.69h2.89q1.356 0 2.367.454t1.558 1.297.548 1.99q0 1.88-1.214 2.853-1.2.963-3.354.963h-2.795zm2.89 6.184q1.274 0 1.95-.65.68-.647.679-1.794 0-.68-.297-1.221a2.07 2.07 0 0 0-.869-.843q-.57-.303-1.344-.303h-1.201v4.81zM5.72 11.691h3.496q1.416 0 2.26.681.845.67.845 1.87 0 1.233-.845 1.892-.832.66-2.26.66H7.527v2.454H5.72zm3.235 3.73q1.534 0 1.534-1.178 0-.66-.416-.92-.405-.258-1.118-.259H7.527v2.357z"></path></svg>