<svg xmlns="http://www.w3.org/2000/svg" fill="none" viewBox="0 0 32 32"><path fill="currentColor" fill-rule="evenodd" d="M.075 25.244a3.293 3.293 0 0 1 3.293-3.293h25.264a3.293 3.293 0 0 1 0 6.586H3.368a3.293 3.293 0 0 1-3.293-3.293m3.293-.699a.698.698 0 0 0 0 1.397h25.264a.698.698 0 1 0 0-1.397zM.487 16.134a1.297 1.297 0 0 1 1.834 0l1.843 1.843a1.297 1.297 0 0 1-1.835 1.835L.486 17.968a1.297 1.297 0 0 1 0-1.834" clip-rule="evenodd"></path><path fill="currentColor" fill-rule="evenodd" d="M4.164 16.134a1.297 1.297 0 0 1 0 1.834L2.32 19.812a1.297 1.297 0 0 1-1.835-1.835l1.843-1.843a1.297 1.297 0 0 1 1.835 0" clip-rule="evenodd"></path><path fill="currentColor" fill-rule="evenodd" d="M7.744 4.58c-1.124 1.576-2.43 4.097-3.892 7.835a1.297 1.297 0 1 1-2.417-.944C2.931 7.645 4.33 4.9 5.631 3.074 6.878 1.324 8.262.099 9.814.006c1.71-.103 2.842 1.16 3.514 2.457.698 1.347 1.156 3.169 1.415 5.169.252 1.94.328 4.14.217 6.404a4.43 4.43 0 0 1 2.375.835l.056-.136c.365-.874.922-1.94 1.772-2.548.47-.336 1.08-.564 1.78-.475.677.085 1.255.444 1.736.91q.038.035.072.075l1.06 1.206c1.19 1.354 3.31 1.54 4.738.398a1.297 1.297 0 0 1 1.62 2.025c-2.5 2.001-6.192 1.694-8.306-.71l-1.021-1.162a1 1 0 0 0-.186-.145c-.213.163-.535.62-.87 1.425-.319.761-.566 1.624-.735 2.316q-.042.166-.075.315a4.3 4.3 0 0 1-.168.855l-.056.175a1.297 1.297 0 0 1-2.505-.643l1.278.221-1.278-.222v-.003l.002-.006.004-.022.014-.076a19 19 0 0 1 .111-.551c-.006-.762-.678-1.511-1.625-1.48a38 38 0 0 1-.815 4.69c-.548 2.26-1.323 4.409-2.363 6.198-1.037 1.782-2.385 3.29-4.115 4.128l-.565-1.168.565 1.168c-.79.382-1.705.54-2.558.129-.828-.4-1.26-1.174-1.472-1.894-.417-1.416-.22-3.365.375-5.293 1.117-3.618 3.891-7.96 8.52-9.922.162-2.371.104-4.69-.154-6.684-.242-1.862-.647-3.345-1.146-4.309-.526-1.014-.925-1.068-1.054-1.06-.287.017-1.049.33-2.227 1.984m4.248 13.148c-2.944 1.785-4.858 4.855-5.708 7.608-.53 1.72-.573 3.089-.365 3.796.042.145.084.226.111.269.055-.009.15-.035.3-.108 1.106-.534 2.12-1.579 3.002-3.096.878-1.51 1.576-3.406 2.085-5.505.234-.962.425-1.957.575-2.964M5.973 29.404h.013zm.087.035.002.002z" clip-rule="evenodd"></path></svg>