<svg xmlns="http://www.w3.org/2000/svg" fill="none" viewBox="0 0 32 32"><path fill="currentColor" d="M32 7.18V6.132h-4.507V7.18h1.729v17.64h-1.73v1.048H32V24.82h-1.73V7.18zM.195 21.6 5.47 9.687c.368-.821 1.038-1.319 1.946-1.319h.195c.907 0 1.556.498 1.924 1.32L14.81 21.6c.108.238.173.454.173.67 0 .887-.692 1.6-1.578 1.6-.778 0-1.297-.454-1.6-1.146l-1.016-2.378h-6.66L3.07 22.833c-.28.648-.843 1.037-1.535 1.037C.67 23.87 0 23.178 0 22.314c0-.238.087-.476.195-.714m9.362-4.194-2.098-4.994-2.097 4.994zM16.559 20.41v-.043c0-2.53 1.924-3.697 4.67-3.697 1.168 0 2.01.195 2.832.476v-.195c0-1.362-.843-2.119-2.486-2.119-.908 0-1.643.13-2.27.325a1.4 1.4 0 0 1-.476.086c-.756 0-1.362-.584-1.362-1.34 0-.584.367-1.081.886-1.276 1.038-.39 2.162-.605 3.698-.605 1.794 0 3.091.475 3.913 1.297.865.865 1.254 2.14 1.254 3.697v5.275c0 .887-.714 1.579-1.6 1.579-.951 0-1.578-.67-1.578-1.363v-.021c-.8.886-1.903 1.47-3.503 1.47-2.184 0-3.978-1.254-3.978-3.546m7.545-.756v-.584c-.562-.26-1.297-.433-2.097-.433-1.405 0-2.27.563-2.27 1.6v.044c0 .886.735 1.405 1.795 1.405 1.535 0 2.572-.843 2.572-2.032"></path></svg>