<svg xmlns="http://www.w3.org/2000/svg" fill="none" viewBox="0 0 32 34"><path fill="currentColor" stroke="currentColor" stroke-width="0.5" d="M16 18.75c-1.838 0-3.25 1.412-3.25 3.25 0 1.344.793 2.496 2 2.975V27c0 .357.12.674.348.902s.545.348.902.348.674-.12.902-.348.348-.545.348-.902v-2.025c1.207-.479 2-1.63 2-2.975 0-1.838-1.412-3.25-3.25-3.25Zm0 4c-.243 0-.426-.08-.548-.202s-.202-.305-.202-.548.08-.426.202-.548.305-.202.548-.202.426.08.548.202.202.305.202.548-.08.426-.202.548-.305.202-.548.202Zm0-22A9.213 9.213 0 0 0 6.75 10v3.759c-1.715.121-3 1.487-3 3.241v13c0 1.838 1.412 3.25 3.25 3.25h18c1.838 0 3.25-1.412 3.25-3.25V17c0-1.754-1.285-3.12-3-3.241V10A9.213 9.213 0 0 0 16 .75Zm9 15.5c.243 0 .426.08.548.202s.202.305.202.548v13c0 .243-.08.426-.202.548s-.305.202-.548.202H7c-.243 0-.426-.08-.548-.202S6.25 30.243 6.25 30V17c0-.243.08-.426.202-.548s.305-.202.548-.202zm-9-13A6.707 6.707 0 0 1 22.75 10v3.75H9.25V10A6.707 6.707 0 0 1 16 3.25Z"></path></svg>