<svg xmlns="http://www.w3.org/2000/svg" fill="none" viewBox="0 0 32 32"><g fill="currentColor" clip-path="url(#signature-sign_svg__a)"><path d="M14.193 20.81 20.13 8.646l.228.111a1.48 1.48 0 0 1 .68 1.973l-3.457 7.082a1.266 1.266 0 0 0 .583 1.693c.62.301 1.389.04 1.693-.582l3.455-7.082a4.01 4.01 0 0 0-1.844-5.358l-.241-.118c.846-2.093-.3-4.647-2.663-5.799-2.453-1.198-5.296-.435-6.337 1.698l-6.93 14.203c-1.72 3.523-2.154 7.536-1.258 11.604a1.267 1.267 0 0 0 1.782.87c3.76-1.798 6.655-4.61 8.373-8.131m.308-17.435c.266-.548.906-.846 1.638-.846.425 0 .88.1 1.314.312 1.179.575 1.818 1.791 1.396 2.656l-6.782 13.898a9.1 9.1 0 0 1-4.348-2.122zM6.227 25.848c-.248-2.113-.072-4.178.508-6.115a11.6 11.6 0 0 0 3.999 1.951c-1.17 1.65-2.69 3.06-4.507 4.164M28.3 28.871a1.266 1.266 0 0 0-1.68-.616 13.6 13.6 0 0 1-3.41 1.063 2 2 0 0 1-.515.035l-.009-.037c-.057-.247-.136-.585-.355-.926-.544-.85-1.686-1.216-2.774-.895-.569.168-1.048.511-1.565.787a3.2 3.2 0 0 1-1.831.351 3.08 3.08 0 0 0-1.107-1.662 2.32 2.32 0 0 0-1.753-.454c-.658.101-1.138.466-1.455.708l-3.298 2.51a1.266 1.266 0 0 0-.24 1.774c.414.545 1.23.654 1.773.24 1.169-.89 2.339-1.777 3.506-2.67.052.44.372 1.2.7 1.507.819.765 1.999.789 3.036.567.269-.058 2.973-.93 2.909-1.216.37 1.646 1.892 2.136 3.407 1.876a16.1 16.1 0 0 0 4.043-1.261c.635-.295.91-1.047.617-1.68"></path></g><defs><clipPath id="signature-sign_svg__a"><path fill="currentColor" d="M0 0h32v32H0z"></path></clipPath></defs></svg>