<svg xmlns="http://www.w3.org/2000/svg" fill="none" viewBox="0 0 34 34"><path fill="currentColor" stroke="currentColor" stroke-width="0.25" d="M16.998 9.66a7.338 7.338 0 1 0 7.338 7.338 7.346 7.346 0 0 0-7.338-7.339Zm0 12.23a4.892 4.892 0 1 1 0-9.785 4.892 4.892 0 0 1 0 9.785Zm13.453-4.562q.009-.33 0-.66l2.281-2.85a1.22 1.22 0 0 0 .227-1.08 16.4 16.4 0 0 0-1.664-4.013 1.22 1.22 0 0 0-.917-.6l-3.626-.404q-.226-.24-.46-.459l-.427-3.635a1.22 1.22 0 0 0-.602-.918 16.5 16.5 0 0 0-4.014-1.661 1.22 1.22 0 0 0-1.079.227l-2.842 2.27h-.66l-2.85-2.277a1.22 1.22 0 0 0-1.08-.227 16.5 16.5 0 0 0-4.013 1.664 1.22 1.22 0 0 0-.6.917L7.72 7.255a14 14 0 0 0-.459.458l-3.635.418a1.22 1.22 0 0 0-.918.602 16.5 16.5 0 0 0-1.661 4.013 1.22 1.22 0 0 0 .227 1.08l2.27 2.842v.66l-2.277 2.85a1.22 1.22 0 0 0-.227 1.079 16.4 16.4 0 0 0 1.664 4.013 1.22 1.22 0 0 0 .917.601l3.626.404q.228.238.46.458l.423 3.636a1.22 1.22 0 0 0 .602.917 16.5 16.5 0 0 0 4.013 1.662 1.22 1.22 0 0 0 1.08-.228l2.842-2.269q.33.009.66 0l2.85 2.281a1.22 1.22 0 0 0 1.079.227 16.4 16.4 0 0 0 4.013-1.664 1.22 1.22 0 0 0 .601-.917l.404-3.626q.238-.226.458-.46l3.636-.427a1.22 1.22 0 0 0 .917-.602 16.5 16.5 0 0 0 1.662-4.014 1.22 1.22 0 0 0-.228-1.079zm-2.461-.994q.039.664 0 1.327c-.018.303.077.601.266.838l2.17 2.71a14 14 0 0 1-.953 2.294l-3.455.391c-.301.034-.579.177-.78.404q-.442.496-.939.939c-.226.2-.37.478-.403.78l-.384 3.451c-.735.385-1.502.704-2.293.953l-2.712-2.17a1.22 1.22 0 0 0-.765-.267h-.073a11 11 0 0 1-1.327 0 1.22 1.22 0 0 0-.838.266l-2.718 2.17a14 14 0 0 1-2.293-.952l-.392-3.45a1.22 1.22 0 0 0-.403-.78 11 11 0 0 1-.94-.939 1.22 1.22 0 0 0-.779-.403l-3.452-.386a14 14 0 0 1-.952-2.293l2.17-2.712c.189-.236.283-.535.265-.838a11 11 0 0 1 0-1.327 1.22 1.22 0 0 0-.266-.838l-2.17-2.716a14 14 0 0 1 .953-2.293l3.45-.392c.302-.033.58-.177.78-.403q.442-.497.94-.94c.226-.2.37-.479.404-.78l.384-3.45a14 14 0 0 1 2.293-.953l2.712 2.17c.237.189.536.283.838.265q.664-.039 1.327 0c.303.018.601-.076.838-.266l2.717-2.17a14 14 0 0 1 2.293.953l.391 3.45c.034.302.177.58.404.78q.496.442.939.94c.2.225.478.37.78.403l3.451.383q.578 1.104.953 2.294l-2.17 2.712c-.19.238-.286.54-.266.845z"></path></svg>