<?xml version="1.0" encoding="utf-8"?>
<!-- Generator: Adobe Illustrator 22.0.0, SVG Export Plug-In . SVG Version: 6.00 Build 0)  -->
<svg version="1.1" id="图层_1" xmlns="http://www.w3.org/2000/svg" xmlns:xlink="http://www.w3.org/1999/xlink" x="0px" y="0px"
	 viewBox="0 0 200 200" style="enable-background:new 0 0 200 200;" xml:space="preserve">
<style type="text/css">
	.st0{fill:#46596F;}
</style>
<path class="st0" d="M184.4,200H15.6C7,200,0,193,0,184.4V15.6C0,7,7,0,15.6,0h168.8C193,0,200,7,200,15.6v168.8
	C200,193,193,200,184.4,200L184.4,200z M15.6,9.9c-3.2,0-5.7,2.6-5.7,5.7v168.8c0,3.2,2.6,5.7,5.7,5.7h168.8c3.2,0,5.7-2.6,5.7-5.7
	V15.6c0-3.2-2.6-5.7-5.7-5.7L15.6,9.9L15.6,9.9z"/>
<path class="st0" d="M98.2,155.3v-11.1c-5.3-0.4-10.4-1.7-15.3-3.7c-4.1-1.9-7.6-4.9-10.2-8.7c-3-4.3-4.7-9.4-5-14.6l12.6-2
	c0.5,4.8,2.3,9.3,5.1,13.1c3.2,3.8,7.8,6.1,12.7,6.6V99.4c-5.5-1-10.8-2.8-15.8-5.3C74.6,90.4,69.7,82.5,69.9,74
	c-0.2-7.6,3.4-14.7,9.5-19.2c4.2-3.3,10.5-5.3,18.8-6.1v-5.2h7.4v5.3c6.2,0.3,12.1,2.2,17.2,5.7c5.4,3.9,9,9.9,9.9,16.6l-13,1.7
	c-0.5-3.7-2.1-7.3-4.6-10c-2.7-2.5-6-4.1-9.6-4.6v32c4.2,0.8,8.4,1.9,12.5,3.3c3.5,1.3,6.7,3.2,9.5,5.6c2.4,2.1,4.4,4.8,5.7,7.8
	c1.4,3.1,2,6.4,2,9.7c0.1,7.3-2.9,14.3-8.4,19.2c-5.9,5.3-13.5,8.2-21.5,8.3v11.2H98.2z M98.2,58c-4.3,0.4-8.4,2.2-11.5,5.2
	c-2.7,2.6-4.2,6.2-4.2,9.9c-0.1,3.5,1.2,6.9,3.6,9.5c2.4,2.6,6.5,4.6,12.2,6.1L98.2,58z M105.5,134.8c4.6-0.4,8.8-2.4,12.1-5.6
	c3.1-3.2,4.9-7.5,4.8-11.9c0.2-3.6-1-7-3.4-9.7c-2.3-2.4-6.7-4.6-13.5-6.6L105.5,134.8z"/>
</svg>
