<?xml version="1.0" encoding="utf-8"?>
<!-- Generator: Adobe Illustrator 22.0.0, SVG Export Plug-In . SVG Version: 6.00 Build 0)  -->
<svg version="1.1" id="图层_1" xmlns="http://www.w3.org/2000/svg" xmlns:xlink="http://www.w3.org/1999/xlink" x="0px" y="0px"
	 viewBox="0 0 200 200" style="enable-background:new 0 0 200 200;" xml:space="preserve">
<style type="text/css">
	.st0{fill:#46596F;}
</style>
<path class="st0" d="M184.4,200H15.6C7,200,0,193,0,184.4V15.6C0,7,7,0,15.6,0h168.8C193,0,200,7,200,15.6v168.8
	C200,193,193,200,184.4,200L184.4,200z M15.6,9.9c-3.2,0-5.7,2.6-5.7,5.7v168.8c0,3.2,2.6,5.7,5.7,5.7h168.8c3.2,0,5.7-2.6,5.7-5.7
	V15.6c0-3.2-2.6-5.7-5.7-5.7L15.6,9.9L15.6,9.9z"/>
<path class="st0" d="M146.2,59.2H51.3c-0.5,0-1,0.1-1.5,0.2l46,46c1.2,1.2,3.1,1.2,4.3,0L146.2,59.2z M152.7,61.2l-37,37l37.3,37.3
	c0.8-1,1.2-2.3,1.2-3.7V65.2C154.3,63.7,153.7,62.3,152.7,61.2L152.7,61.2z M146.9,137.9l-35.4-35.4l-7.1,7.1
	c-3.5,3.5-9.3,3.5-12.9,0c0,0,0,0,0,0l-7.1-7.1l-35.1,35.1c0.6,0.2,1.3,0.3,2,0.3H146.9L146.9,137.9z M45.3,133l34.7-34.7L45.4,63.6
	c-0.1,0.5-0.2,1.1-0.2,1.6v66.6C45.2,132.2,45.3,132.6,45.3,133z M51.3,53.1h96.9c6.7,0,12.1,5.4,12.1,12.1v66.6
	c0,6.7-5.4,12.1-12.1,12.1H51.3c-6.7,0-12.1-5.4-12.1-12.1V65.2C39.2,58.5,44.6,53.1,51.3,53.1L51.3,53.1z"/>
</svg>
