<?xml version="1.0" encoding="utf-8"?>
<!-- Generator: Adobe Illustrator 22.0.0, SVG Export Plug-In . SVG Version: 6.00 Build 0)  -->
<svg version="1.1" id="图层_1" xmlns="http://www.w3.org/2000/svg" xmlns:xlink="http://www.w3.org/1999/xlink" x="0px" y="0px"
	 viewBox="0 0 200 200" style="enable-background:new 0 0 200 200;" xml:space="preserve">
<style type="text/css">
	.st0{fill:#46596F;}
</style>
<path class="st0" d="M184.4,200H15.6C7,200,0,193,0,184.4V15.6C0,7,7,0,15.6,0h168.8C193,0,200,7,200,15.6v168.8
	C200,193,193,200,184.4,200L184.4,200z M15.6,9.9c-3.2,0-5.7,2.6-5.7,5.7v168.8c0,3.2,2.6,5.7,5.7,5.7h168.8c3.2,0,5.7-2.6,5.7-5.7
	V15.6c0-3.2-2.6-5.7-5.7-5.7L15.6,9.9L15.6,9.9z"/>
<path class="st0" d="M129.8,124.5l12.5-12.5c1.7-1.7,1.7-4.5,0-6.2c-1.7-1.7-4.5-1.7-6.2,0l-12.5,12.5l-12.5-12.5
	c-1.7-1.7-4.5-1.7-6.2,0c-1.7,1.7-1.7,4.5,0,6.2l12.5,12.5L104.8,137c-1.7,1.7-1.7,4.5,0,6.2c0.9,0.9,2,1.3,3.1,1.3
	c1.1,0,2.2-0.4,3.1-1.3l12.5-12.5l12.5,12.5c0.9,0.9,2,1.3,3.1,1.3c1.1,0,2.2-0.4,3.1-1.3c1.7-1.7,1.7-4.5,0-6.2L129.8,124.5z
	 M115.5,49.7c1.2-2.6-0.4-5.5-3.1-6.1c-3.9-0.8-9.5-1.2-15.1,1.2c-4.3,1.8-7.6,4.2-10,7.3c-2.2,2.8-3.4,5.7-4.2,7.7
	c-2,5.1-6.6,25.5-6.6,25.7c-0.1,0.3-0.1,0.6-0.2,1H57.8c-2.5,0-4.5,2-4.5,4.5c0,2.4,2,4.3,4.4,4.3h16.4
	C70,113.1,62,146.5,61.9,146.9c-0.6,2.4,0.9,4.7,3.2,5.3c0.3,0.1,0.7,0.1,1,0.1c2,0,3.8-1.4,4.3-3.4c0.4-1.8,8.8-36.7,12.8-53.7
	h18.7c2.5,0,4.5-2,4.5-4.5c0-2.4-2-4.3-4.4-4.3H85.3c1.5-6.6,4.7-20.2,6-23.5c1.4-3.6,2.9-7.3,9.4-10.1c3.6-1.5,7.3-1.2,9.9-0.7
	C112.7,52.7,114.7,51.6,115.5,49.7L115.5,49.7z"/>
</svg>
