<?xml version="1.0" encoding="utf-8"?>
<!-- Generator: Adobe Illustrator 22.0.0, SVG Export Plug-In . SVG Version: 6.00 Build 0)  -->
<svg version="1.1" id="图层_1" xmlns="http://www.w3.org/2000/svg" xmlns:xlink="http://www.w3.org/1999/xlink" x="0px" y="0px"
	 viewBox="0 0 200 200" style="enable-background:new 0 0 200 200;" xml:space="preserve">
<style type="text/css">
	.st0{fill:#46596F;}
</style>
<path class="st0" d="M55,110C24.6,110,0,85.4,0,55S24.6,0,55,0s55,24.6,55,55S85.4,110,55,110z M55,100c24.9,0,45-20.1,45-45
	S79.9,10,55,10S10,30.1,10,55S30.1,100,55,100z M145,200c-30.4,0-55-24.6-55-55s24.6-55,55-55s55,24.6,55,55S175.4,200,145,200z
	 M145,190c24.9,0,45-20.1,45-45s-20.1-45-45-45s-45,20.1-45,45S120.1,190,145,190z"/>
<path class="st0" d="M140,20h10v80h-10V20z"/>
<path class="st0" d="M120,40h50v10h-50V40z M50,100h10v80H50V100z"/>
<path class="st0" d="M54.7,173.1l17.7-17.7l7.1,7.1l-24.8,24.8L30,162.5l7.1-7.1L54.7,173.1z"/>
</svg>
