<?xml version="1.0" encoding="utf-8"?>
<!-- Generator: Adobe Illustrator 22.0.0, SVG Export Plug-In . SVG Version: 6.00 Build 0)  -->
<svg version="1.1" id="图层_1" xmlns="http://www.w3.org/2000/svg" xmlns:xlink="http://www.w3.org/1999/xlink" x="0px" y="0px"
	 viewBox="0 0 200 200" style="enable-background:new 0 0 200 200;" xml:space="preserve">
<style type="text/css">
	.st0{fill:#46596F;}
</style>
<path class="st0" d="M184.4,200H15.6C7,200,0,193,0,184.4V15.6C0,7,7,0,15.6,0h168.8C193,0,200,7,200,15.6v168.8
	C200,193,193,200,184.4,200L184.4,200z M15.6,9.9c-3.2,0-5.7,2.6-5.7,5.7v168.8c0,3.2,2.6,5.7,5.7,5.7h168.8c3.2,0,5.7-2.6,5.7-5.7
	V15.6c0-3.2-2.6-5.7-5.7-5.7L15.6,9.9L15.6,9.9z"/>
<g>
	<path class="st0" d="M56.4,144.3L94,46.4h14l40.1,97.9h-14.8l-11.4-29.6H80.9l-10.7,29.6H56.4z M84.6,104.1h33.2L107.6,77
		c-3.1-8.2-5.4-15-6.9-20.3c-1.2,6.3-3,12.5-5.3,18.7L84.6,104.1z"/>
</g>
</svg>
