<?xml version="1.0" encoding="utf-8"?>
<!-- Generator: Adobe Illustrator 22.0.0, SVG Export Plug-In . SVG Version: 6.00 Build 0)  -->
<svg version="1.1" id="图层_1" xmlns="http://www.w3.org/2000/svg" xmlns:xlink="http://www.w3.org/1999/xlink" x="0px" y="0px"
	 viewBox="0 0 200 200" style="enable-background:new 0 0 200 200;" xml:space="preserve">
<style type="text/css">
	.st0{fill:#46596F;}
</style>
<path class="st0" d="M184.4,200H15.6C7,200,0,193,0,184.4V15.6C0,7,7,0,15.6,0h168.8C193,0,200,7,200,15.6v168.8
	C200,193,193,200,184.4,200L184.4,200z M15.6,9.9c-3.2,0-5.7,2.6-5.7,5.7v168.8c0,3.2,2.6,5.7,5.7,5.7h168.8c3.2,0,5.7-2.6,5.7-5.7
	V15.6c0-3.2-2.6-5.7-5.7-5.7L15.6,9.9L15.6,9.9z"/>
<path class="st0" d="M99.6,46.2c-11.6,0.7-21.2,10.2-22,21.8c-0.9,13.7,9.9,25.1,23.4,25.1c13,0,23.5-10.6,23.5-23.5
	C124.5,56.1,113.2,45.4,99.6,46.2z M101,100.8c-15.7,0-46.9,7.8-46.9,23.5V136c0,2.2,1.8,3.9,3.9,3.9H144c2.2,0,3.9-1.8,3.9-3.9
	v-11.8C147.9,108.6,116.7,100.8,101,100.8z"/>
</svg>
