<?xml version="1.0" encoding="utf-8"?>
<!-- Generator: Adobe Illustrator 22.0.0, SVG Export Plug-In . SVG Version: 6.00 Build 0)  -->
<svg version="1.1" id="图层_1" xmlns="http://www.w3.org/2000/svg" xmlns:xlink="http://www.w3.org/1999/xlink" x="0px" y="0px"
	 viewBox="0 0 200 200" style="enable-background:new 0 0 200 200;" xml:space="preserve">
<style type="text/css">
	.st0{fill:#46596F;}
</style>
<path class="st0" d="M184.4,200H15.6C7,200,0,193,0,184.4V15.6C0,7,7,0,15.6,0h168.8C193,0,200,7,200,15.6v168.8
	C200,193,193,200,184.4,200L184.4,200z M15.6,9.9c-3.2,0-5.7,2.6-5.7,5.7v168.8c0,3.2,2.6,5.7,5.7,5.7h168.8c3.2,0,5.7-2.6,5.7-5.7
	V15.6c0-3.2-2.6-5.7-5.7-5.7L15.6,9.9L15.6,9.9z"/>
<g>
	<path class="st0" d="M86.2,90c-5.6-2.1-9.8-5-12.5-8.8c-2.7-3.8-4.1-8.4-4.1-13.7c0-8,2.9-14.8,8.7-20.3C84,41.7,91.7,39,101.3,39
		c9.6,0,17.4,2.8,23.3,8.4c5.9,5.6,8.8,12.4,8.8,20.5c0,5.1-1.3,9.6-4,13.4c-2.7,3.8-6.8,6.7-12.2,8.8c6.8,2.2,11.9,5.8,15.5,10.7
		c3.5,4.9,5.3,10.8,5.3,17.6c0,9.4-3.3,17.4-10,23.8c-6.7,6.4-15.5,9.6-26.4,9.6c-10.9,0-19.7-3.2-26.4-9.7
		c-6.7-6.5-10-14.5-10-24.2c0-7.2,1.8-13.2,5.5-18C74.3,95,79.4,91.7,86.2,90z M79.1,118c0,3.9,0.9,7.6,2.8,11.2
		c1.8,3.6,4.6,6.4,8.2,8.4c3.6,2,7.5,3,11.7,3c6.5,0,11.8-2.1,16.1-6.3c4.2-4.2,6.3-9.5,6.3-15.9c0-6.5-2.2-11.9-6.5-16.2
		c-4.3-4.3-9.8-6.4-16.3-6.4c-6.4,0-11.7,2.1-15.9,6.3C81.2,106.4,79.1,111.7,79.1,118z M83.5,67c0,5.2,1.7,9.5,5,12.8
		c3.4,3.3,7.7,5,13.1,5c5.2,0,9.5-1.6,12.8-4.9c3.3-3.3,5-7.3,5-12.1c0-5-1.7-9.2-5.2-12.5c-3.4-3.4-7.7-5.1-12.8-5.1
		c-5.2,0-9.5,1.7-12.9,5C85.2,58.4,83.5,62.4,83.5,67z"/>
</g>
</svg>
