<?xml version="1.0" encoding="utf-8"?>
<!-- Generator: Adobe Illustrator 22.0.0, SVG Export Plug-In . SVG Version: 6.00 Build 0)  -->
<svg version="1.1" id="图层_1" xmlns="http://www.w3.org/2000/svg" xmlns:xlink="http://www.w3.org/1999/xlink" x="0px" y="0px"
	 viewBox="0 0 200 200" style="enable-background:new 0 0 200 200;" xml:space="preserve">
<style type="text/css">
	.st0{fill:#46596F;}
</style>
<path class="st0" d="M184.4,200H15.6C7,200,0,193,0,184.4V15.6C0,7,7,0,15.6,0h168.8C193,0,200,7,200,15.6v168.8
	C200,193,193,200,184.4,200L184.4,200z M15.6,9.9c-3.2,0-5.7,2.6-5.7,5.7v168.8c0,3.2,2.6,5.7,5.7,5.7h168.8c3.2,0,5.7-2.6,5.7-5.7
	V15.6c0-3.2-2.6-5.7-5.7-5.7L15.6,9.9L15.6,9.9z"/>
<path class="st0" d="M148.5,139.8c4.1-7.1,1.8-12.5-5.4-17.9c-8.4-6.4-16.7-10.7-22.6-3.8c0,0-6.3,7.5-24.8-10
	C74.1,87.5,83.1,80.3,83.1,80.3c7.5-7.5,2.7-13.2-3.6-21.7c-6.3-8.5-12.6-11.2-21.7-3.9c-17.6,14.1,7.2,47.2,19.7,60.1l0,0
	c0,0,19,19.7,31,26.3l6.4,3.6c9.2,4.7,19.5,6.9,26.8,2.5C141.8,147.2,145.3,145.4,148.5,139.8z"/>
<path class="st0" d="M107.3,80.8h-5.5c-1.2,0-2.2-1-2.2-2.2c0-1.2,1-2.2,2.2-2.2h5.5c1.2,0,2.2,1,2.2,2.2
	C109.5,79.8,108.5,80.8,107.3,80.8z"/>
<path class="st0" d="M119.5,80.8H114c-1.2,0-2.2-1-2.2-2.2c0-1.2,1-2.2,2.2-2.2h5.5c1.2,0,2.2,1,2.2,2.2
	C121.7,79.8,120.8,80.8,119.5,80.8z"/>
<path class="st0" d="M131.8,80.8h-5.5c-1.2,0-2.2-1-2.2-2.2c0-1.2,1-2.2,2.2-2.2h5.5c1.2,0,2.2,1,2.2,2.2
	C134,79.8,133,80.8,131.8,80.8z"/>
<path class="st0" d="M107.3,88.7h-5.5c-1.2,0-2.2-1-2.2-2.2s1-2.2,2.2-2.2h5.5c1.2,0,2.2,1,2.2,2.2S108.5,88.7,107.3,88.7z"/>
<path class="st0" d="M119.5,88.7H114c-1.2,0-2.2-1-2.2-2.2s1-2.2,2.2-2.2h5.5c1.2,0,2.2,1,2.2,2.2S120.8,88.7,119.5,88.7z"/>
<path class="st0" d="M131.8,88.7h-5.5c-1.2,0-2.2-1-2.2-2.2s1-2.2,2.2-2.2h5.5c1.2,0,2.2,1,2.2,2.2S133,88.7,131.8,88.7z"/>
<path class="st0" d="M107.3,97h-5.5c-1.2,0-2.2-1-2.2-2.2s1-2.2,2.2-2.2h5.5c1.2,0,2.2,1,2.2,2.2S108.5,97,107.3,97z"/>
<path class="st0" d="M119.5,97H114c-1.2,0-2.2-1-2.2-2.2s1-2.2,2.2-2.2h5.5c1.2,0,2.2,1,2.2,2.2S120.8,97,119.5,97z"/>
<path class="st0" d="M131.8,97h-5.5c-1.2,0-2.2-1-2.2-2.2s1-2.2,2.2-2.2h5.5c1.2,0,2.2,1,2.2,2.2S133,97,131.8,97z"/>
<path class="st0" d="M119.5,105.8H114c-1.2,0-2.2-1-2.2-2.2s1-2.2,2.2-2.2h5.5c1.2,0,2.2,1,2.2,2.2S120.8,105.8,119.5,105.8z"/>
</svg>
