<?xml version="1.0" encoding="utf-8"?>
<!-- Generator: Adobe Illustrator 22.0.0, SVG Export Plug-In . SVG Version: 6.00 Build 0)  -->
<svg version="1.1" id="图层_1" xmlns="http://www.w3.org/2000/svg" xmlns:xlink="http://www.w3.org/1999/xlink" x="0px" y="0px"
	 viewBox="0 0 200 200" style="enable-background:new 0 0 200 200;" xml:space="preserve">
<style type="text/css">
	.st0{fill:#46596F;}
</style>
<path class="st0" d="M100,0C44.9,0,0,44.9,0,100c0,55.1,44.9,100,100,100s100-44.9,100-100C200,44.9,155.1,0,100,0z M100,185.7
	c-47.2,0-85.7-38.4-85.7-85.7c0-47.2,38.4-85.7,85.7-85.7c47.2,0,85.7,38.4,85.7,85.7C185.7,147.2,147.2,185.7,100,185.7z"/>
<path class="st0" d="M100,64.1c-19.8,0-35.9,16.1-35.9,35.9s16.1,35.9,35.9,35.9s35.9-16.1,35.9-35.9S119.8,64.1,100,64.1z"/>
</svg>
