<?xml version="1.0" encoding="utf-8"?>
<!-- Generator: Adobe Illustrator 22.0.0, SVG Export Plug-In . SVG Version: 6.00 Build 0)  -->
<svg version="1.1" id="图层_1" xmlns="http://www.w3.org/2000/svg" xmlns:xlink="http://www.w3.org/1999/xlink" x="0px" y="0px"
	 viewBox="0 0 200 200" style="enable-background:new 0 0 200 200;" xml:space="preserve">
<style type="text/css">
	.st0{fill:#46596F;}
</style>
<path class="st0" d="M184.4,200H15.6C7,200,0,193,0,184.4V15.6C0,7,7,0,15.6,0h168.8C193,0,200,7,200,15.6v168.8
	C200,193,193,200,184.4,200L184.4,200z M15.6,9.9c-3.2,0-5.7,2.6-5.7,5.7v168.8c0,3.2,2.6,5.7,5.7,5.7h168.8c3.2,0,5.7-2.6,5.7-5.7
	V15.6c0-3.2-2.6-5.7-5.7-5.7L15.6,9.9L15.6,9.9z"/>
<path class="st0" d="M100.9,149.3c-27.4,0-49.3-6.1-49.3-16.2c0-6.5,8-10.8,21-13.5c2-0.5,4,0.7,4.2,2.7c0.5,1.8-0.6,3.7-2.4,4.3
	c-0.1,0-0.2,0.1-0.3,0.1c-9.5,2-15.2,5.1-15.2,6.5c0,0.4,0.6,0.9,2.2,2c2,1.3,4.9,2.5,8.8,3.6c8,2.3,19.4,3.6,31.3,3.6
	c11.9,0,23-1.3,31.3-3.6c3.8-1.1,6.8-2.3,8.8-3.6c1.5-1.1,2-1.6,2-2c0-1.6-6.2-4.9-16.6-6.9c-1.9-0.3-3.2-2.1-2.9-4c0,0,0-0.1,0-0.1
	c0.3-1.9,2.2-3.2,4.1-2.9c0,0,0,0,0.1,0c13.9,2.7,22.5,7.2,22.5,13.9C150.2,143.1,128.3,149.3,100.9,149.3L100.9,149.3z
	 M109.5,129.2c-1.8,1.6-3.4,2.9-4.8,3.8c-1.9,1.3-3.4,1.8-4.7,1.8c-1.3,0-2.8-0.6-4.7-1.8c-1.7-1.2-3.3-2.5-4.8-3.8
	c-3.8-3.4-7.9-7.8-11.6-12.5c-5.8-7.3-15.5-21.5-15.5-34.1c0-10.8,3.5-20.7,9.9-27.9c3.2-3.7,7.2-6.6,11.6-8.6
	c4.6-2.1,9.8-3.1,15.2-3.1s10.6,1.1,15.2,3.1c4.5,2,8.4,4.9,11.6,8.6c6.4,7.2,9.9,17.1,9.9,27.9c0,12.6-9.7,26.7-15.5,34.1
	C117.4,121.4,113.3,125.8,109.5,129.2z M100,49.6c-17.7,0-30,13.6-30,33c0,7.5,4.9,18.1,13.3,29c3.3,4.3,7.1,8.5,10.6,11.8
	c3.2,3,5.2,4.3,6.1,4.8c0.8-0.4,2.8-1.7,6.1-4.8c3.8-3.6,7.4-7.6,10.6-11.8c8.5-10.9,13.3-21.5,13.3-29
	C130,63.2,117.7,49.6,100,49.6L100,49.6z M100,96.9c-4.7,0-9.3-1.8-12.7-5.2c-3.4-3.3-5.2-7.8-5.2-12.5c0-4.7,1.9-9.2,5.2-12.5
	c3.4-3.3,7.9-5.2,12.7-5.2c4.8,0,9.3,1.8,12.7,5.2c3.4,3.3,5.2,7.8,5.2,12.5c0,4.7-1.9,9.2-5.2,12.5C109.3,95.1,104.7,96.9,100,96.9
	z M100,68.2c-6.2,0-11.2,5-11.2,11s5,11,11.2,11s11.2-5,11.2-11S106.2,68.2,100,68.2z"/>
</svg>
