<?xml version="1.0" encoding="utf-8"?>
<!-- Generator: Adobe Illustrator 22.0.0, SVG Export Plug-In . SVG Version: 6.00 Build 0)  -->
<svg version="1.1" id="图层_1" xmlns="http://www.w3.org/2000/svg" xmlns:xlink="http://www.w3.org/1999/xlink" x="0px" y="0px"
	 viewBox="0 0 200 200" style="enable-background:new 0 0 200 200;" xml:space="preserve">
<style type="text/css">
	.st0{fill:#46596F;}
</style>
<path class="st0" d="M184.4,200H15.6C7,200,0,193,0,184.4V15.6C0,7,7,0,15.6,0h168.8C193,0,200,7,200,15.6v168.8
	C200,193,193,200,184.4,200L184.4,200z M15.6,9.9c-3.2,0-5.7,2.6-5.7,5.7v168.8c0,3.2,2.6,5.7,5.7,5.7h168.8c3.2,0,5.7-2.6,5.7-5.7
	V15.6c0-3.2-2.6-5.7-5.7-5.7L15.6,9.9L15.6,9.9z"/>
<path class="st0" d="M145.6,56.4H56.3v17.4h9.5V66h30v77h-3.4v9.5h16.5V143h-2.8V66h30.1v7.8h9.5L145.6,56.4L145.6,56.4z"/>
</svg>
