<?xml version="1.0" encoding="utf-8"?>
<!-- Generator: Adobe Illustrator 22.0.0, SVG Export Plug-In . SVG Version: 6.00 Build 0)  -->
<svg version="1.1" id="图层_1" xmlns="http://www.w3.org/2000/svg" xmlns:xlink="http://www.w3.org/1999/xlink" x="0px" y="0px"
	 viewBox="0 0 200 200" style="enable-background:new 0 0 200 200;" xml:space="preserve">
<style type="text/css">
	.st0{fill:#46596F;}
</style>
<path class="st0" d="M184.4,200H15.6C7,200,0,193,0,184.4V15.6C0,7,7,0,15.6,0h168.8C193,0,200,7,200,15.6v168.8
	C200,193,193,200,184.4,200L184.4,200z M15.6,9.9c-3.2,0-5.7,2.6-5.7,5.7v168.8c0,3.2,2.6,5.7,5.7,5.7h168.8c3.2,0,5.7-2.6,5.7-5.7
	V15.6c0-3.2-2.6-5.7-5.7-5.7L15.6,9.9L15.6,9.9z"/>
<path class="st0" d="M161.1,50.9H84.5c-2.7,0-4.9,2.2-4.9,4.9c0,0,0,0,0,0c0,2.7,2.2,4.9,4.9,4.9h76.6c2.7,0,4.9-2.2,4.9-4.9
	C166,53.1,163.8,50.9,161.1,50.9z"/>
<rect x="38.7" y="47.4" class="st0" width="16" height="16"/>
<path class="st0" d="M160.7,93.5H84.2c-2.7,0-4.9,2.2-4.9,4.9c0,0,0,0,0,0c0,2.7,2.2,4.9,4.9,4.9h76.6c2.7,0,4.9-2.2,4.9-4.9
	C165.6,95.7,163.4,93.5,160.7,93.5z"/>
<rect x="38.3" y="90" class="st0" width="16" height="16"/>
<path class="st0" d="M159.7,139.1H83.2c-2.7,0-4.9,2.2-4.9,4.9c0,0,0,0,0,0c0,2.7,2.2,4.9,4.9,4.9h76.6c2.7,0,4.9-2.2,4.9-4.9
	C164.6,141.3,162.4,139.1,159.7,139.1z"/>
<rect x="37.3" y="135.6" class="st0" width="16" height="16"/>
</svg>
