<?xml version="1.0" encoding="utf-8"?>
<!-- Generator: Adobe Illustrator 22.0.0, SVG Export Plug-In . SVG Version: 6.00 Build 0)  -->
<svg version="1.1" id="图层_1" xmlns="http://www.w3.org/2000/svg" xmlns:xlink="http://www.w3.org/1999/xlink" x="0px" y="0px"
	 viewBox="0 0 200 200" style="enable-background:new 0 0 200 200;" xml:space="preserve">
<style type="text/css">
	.st0{fill:#46596F;}
</style>
<path class="st0" d="M190.7,32c-6-6-14.1-9.3-22.5-9.3h-132c-1.1-5.3-5.7-9.1-11.1-9.1H11.4C5.1,13.6,0,18.7,0,25v113.6
	c0,6.3,5.1,11.4,11.4,11.4H25c5.4,0,10-3.8,11.1-9.1h36.6v40.9c0,2.5,2,4.5,4.5,4.5h36.4c2.5,0,4.5-2,4.5-4.5v-40.9h77.3
	c2.5,0,4.5-2,4.5-4.5V54.5C200,46.1,196.7,38,190.7,32z M27.3,138.6c0,1.3-1,2.3-2.3,2.3c0,0,0,0,0,0H11.4c-1.3,0-2.3-1-2.3-2.3l0,0
	V25c0-1.3,1-2.3,2.3-2.3l0,0H25c1.3,0,2.3,1,2.3,2.3v0V138.6z M109.1,177.3H81.8v-36.4h27.3L109.1,177.3z M190.9,131.8H36.4v-100
	h131.8c12.5,0,22.7,10.2,22.7,22.7V131.8z M159.1,50H68.2c-2.5,0-4.5,2-4.5,4.5v0v18.2c0,2.5,2,4.5,4.5,4.5c2.5,0,4.5-2,4.5-4.5
	V59.1h54.5v18.2c0,10,8.1,18.2,18.2,18.2c10,0,18.2-8.1,18.2-18.2V54.5C163.6,52,161.6,50,159.1,50z M154.5,77.3
	c0,5-4.1,9.1-9.1,9.1c-5,0-9.1-4.1-9.1-9.1V59.1h18.2V77.3z"/>
</svg>
